<?xml version="1.0" encoding="utf-8"?>
<svg version="1.1" xmlns:xlink="http://www.w3.org/1999/xlink" width="331px" height="42px" xmlns="http://www.w3.org/2000/svg">
  <g transform="matrix(1 0 0 1 -134 -4743 )">
    <path d="M 135 4747  A 3 3 0 0 1 138 4744 L 461 4744  A 3 3 0 0 1 464 4747 L 464 4781  A 3 3 0 0 1 461 4784 L 138 4784  A 3 3 0 0 1 135 4781 L 135 4747  Z " fill-rule="nonzero" fill="#000000" stroke="none" fill-opacity="0.0196078431372549" />
    <path d="M 134.5 4747  A 3.5 3.5 0 0 1 138 4743.5 L 461 4743.5  A 3.5 3.5 0 0 1 464.5 4747 L 464.5 4781  A 3.5 3.5 0 0 1 461 4784.5 L 138 4784.5  A 3.5 3.5 0 0 1 134.5 4781 L 134.5 4747  Z " stroke-width="1" stroke-dasharray="9,4" stroke="#3498db" fill="none" stroke-dashoffset="0.5" />
  </g>
</svg>