<?xml version="1.0" encoding="utf-8"?>
<svg version="1.1" xmlns:xlink="http://www.w3.org/1999/xlink" width="12px" height="12px" viewBox="49 1250  12 12" xmlns="http://www.w3.org/2000/svg">
  <path d="M 55 1250  C 58.36 1250  61 1252.64  61 1256  C 61 1259.36  58.36 1262  55 1262  C 51.64 1262  49 1259.36  49 1256  C 49 1252.64  51.64 1250  55 1250  Z " fill-rule="nonzero" fill="#f0f0f0" stroke="none" />
  <path d="M 55 1250.5  C 58.08 1250.5  60.5 1252.92  60.5 1256  C 60.5 1259.08  58.08 1261.5  55 1261.5  C 51.92 1261.5  49.5 1259.08  49.5 1256  C 49.5 1252.92  51.92 1250.5  55 1250.5  Z " stroke-width="1" stroke="#797979" fill="none" />
  <path d="M 55 1259  C 53.32 1259  52 1257.68  52 1256  C 52 1254.32  53.32 1253  55 1253  C 56.68 1253  58 1254.32  58 1256  C 58 1257.68  56.68 1259  55 1259  " fill-rule="nonzero" fill="#797979" stroke="none" />
</svg>