<?xml version="1.0" encoding="utf-8"?>
<svg version="1.1" xmlns:xlink="http://www.w3.org/1999/xlink" width="12px" height="12px" viewBox="49 1023  12 12" xmlns="http://www.w3.org/2000/svg">
  <path d="M 55 1023  C 58.36 1023  61 1025.64  61 1029  C 61 1032.36  58.36 1035  55 1035  C 51.64 1035  49 1032.36  49 1029  C 49 1025.64  51.64 1023  55 1023  Z " fill-rule="nonzero" fill="#ffffff" stroke="none" />
  <path d="M 55 1023.5  C 58.08 1023.5  60.5 1025.92  60.5 1029  C 60.5 1032.08  58.08 1034.5  55 1034.5  C 51.92 1034.5  49.5 1032.08  49.5 1029  C 49.5 1025.92  51.92 1023.5  55 1023.5  Z " stroke-width="1" stroke="#797979" fill="none" />
  <path d="M 55 1032  C 53.32 1032  52 1030.68  52 1029  C 52 1027.32  53.32 1026  55 1026  C 56.68 1026  58 1027.32  58 1029  C 58 1030.68  56.68 1032  55 1032  " fill-rule="nonzero" fill="#797979" stroke="none" />
</svg>