<?xml version="1.0" encoding="utf-8"?>
<svg version="1.1" xmlns:xlink="http://www.w3.org/1999/xlink" width="12px" height="12px" viewBox="49 1149  12 12" xmlns="http://www.w3.org/2000/svg">
  <path d="M 55 1149  C 58.36 1149  61 1151.64  61 1155  C 61 1158.36  58.36 1161  55 1161  C 51.64 1161  49 1158.36  49 1155  C 49 1151.64  51.64 1149  55 1149  Z " fill-rule="nonzero" fill="#ffffff" stroke="none" />
  <path d="M 55 1149.5  C 58.08 1149.5  60.5 1151.92  60.5 1155  C 60.5 1158.08  58.08 1160.5  55 1160.5  C 51.92 1160.5  49.5 1158.08  49.5 1155  C 49.5 1151.92  51.92 1149.5  55 1149.5  Z " stroke-width="1" stroke="#797979" fill="none" />
  <path d="M 55 1158  C 53.32 1158  52 1156.68  52 1155  C 52 1153.32  53.32 1152  55 1152  C 56.68 1152  58 1153.32  58 1155  C 58 1156.68  56.68 1158  55 1158  " fill-rule="nonzero" fill="#797979" stroke="none" />
</svg>