<?xml version="1.0" encoding="utf-8"?>
<svg version="1.1" xmlns:xlink="http://www.w3.org/1999/xlink" width="12px" height="12px" viewBox="49 979  12 12" xmlns="http://www.w3.org/2000/svg">
  <path d="M 55 979  C 58.36 979  61 981.64  61 985  C 61 988.36  58.36 991  55 991  C 51.64 991  49 988.36  49 985  C 49 981.64  51.64 979  55 979  Z " fill-rule="nonzero" fill="#f0f0f0" stroke="none" />
  <path d="M 55 979.5  C 58.08 979.5  60.5 981.92  60.5 985  C 60.5 988.08  58.08 990.5  55 990.5  C 51.92 990.5  49.5 988.08  49.5 985  C 49.5 981.92  51.92 979.5  55 979.5  Z " stroke-width="1" stroke="#797979" fill="none" />
  <path d="M 55 988  C 53.32 988  52 986.68  52 985  C 52 983.32  53.32 982  55 982  C 56.68 982  58 983.32  58 985  C 58 986.68  56.68 988  55 988  " fill-rule="nonzero" fill="#797979" stroke="none" />
</svg>