<?xml version="1.0" encoding="utf-8"?>
<svg version="1.1" xmlns:xlink="http://www.w3.org/1999/xlink" width="12px" height="12px" viewBox="49 1066  12 12" xmlns="http://www.w3.org/2000/svg">
  <path d="M 55 1066  C 58.36 1066  61 1068.64  61 1072  C 61 1075.36  58.36 1078  55 1078  C 51.64 1078  49 1075.36  49 1072  C 49 1068.64  51.64 1066  55 1066  Z " fill-rule="nonzero" fill="#ffffff" stroke="none" />
  <path d="M 55 1066.5  C 58.08 1066.5  60.5 1068.92  60.5 1072  C 60.5 1075.08  58.08 1077.5  55 1077.5  C 51.92 1077.5  49.5 1075.08  49.5 1072  C 49.5 1068.92  51.92 1066.5  55 1066.5  Z " stroke-width="1" stroke="#797979" fill="none" />
  <path d="M 55 1075  C 53.32 1075  52 1073.68  52 1072  C 52 1070.32  53.32 1069  55 1069  C 56.68 1069  58 1070.32  58 1072  C 58 1073.68  56.68 1075  55 1075  " fill-rule="nonzero" fill="#797979" stroke="none" />
</svg>