<?xml version="1.0" encoding="utf-8"?>
<svg version="1.1" xmlns:xlink="http://www.w3.org/1999/xlink" width="12px" height="12px" viewBox="49 893  12 12" xmlns="http://www.w3.org/2000/svg">
  <path d="M 55 893  C 58.36 893  61 895.64  61 899  C 61 902.36  58.36 905  55 905  C 51.64 905  49 902.36  49 899  C 49 895.64  51.64 893  55 893  Z " fill-rule="nonzero" fill="#f0f0f0" stroke="none" />
  <path d="M 55 893.5  C 58.08 893.5  60.5 895.92  60.5 899  C 60.5 902.08  58.08 904.5  55 904.5  C 51.92 904.5  49.5 902.08  49.5 899  C 49.5 895.92  51.92 893.5  55 893.5  Z " stroke-width="1" stroke="#797979" fill="none" />
  <path d="M 55 902  C 53.32 902  52 900.68  52 899  C 52 897.32  53.32 896  55 896  C 56.68 896  58 897.32  58 899  C 58 900.68  56.68 902  55 902  " fill-rule="nonzero" fill="#797979" stroke="none" />
</svg>