<?xml version="1.0" encoding="utf-8"?>
<svg version="1.1" xmlns:xlink="http://www.w3.org/1999/xlink" width="12px" height="12px" viewBox="49 1192  12 12" xmlns="http://www.w3.org/2000/svg">
  <path d="M 55 1192  C 58.36 1192  61 1194.64  61 1198  C 61 1201.36  58.36 1204  55 1204  C 51.64 1204  49 1201.36  49 1198  C 49 1194.64  51.64 1192  55 1192  Z " fill-rule="nonzero" fill="#f0f0f0" stroke="none" />
  <path d="M 55 1192.5  C 58.08 1192.5  60.5 1194.92  60.5 1198  C 60.5 1201.08  58.08 1203.5  55 1203.5  C 51.92 1203.5  49.5 1201.08  49.5 1198  C 49.5 1194.92  51.92 1192.5  55 1192.5  Z " stroke-width="1" stroke="#797979" fill="none" />
  <path d="M 55 1201  C 53.32 1201  52 1199.68  52 1198  C 52 1196.32  53.32 1195  55 1195  C 56.68 1195  58 1196.32  58 1198  C 58 1199.68  56.68 1201  55 1201  " fill-rule="nonzero" fill="#797979" stroke="none" />
</svg>