<?xml version="1.0" encoding="utf-8"?>
<svg version="1.1" xmlns:xlink="http://www.w3.org/1999/xlink" width="839px" height="142px" xmlns="http://www.w3.org/2000/svg">
  <g transform="matrix(1 0 0 1 -2805 -1426 )">
    <path d="M 2806 1430  A 3 3 0 0 1 2809 1427 L 3640 1427  A 3 3 0 0 1 3643 1430 L 3643 1564  A 3 3 0 0 1 3640 1567 L 2809 1567  A 3 3 0 0 1 2806 1564 L 2806 1430  Z " fill-rule="nonzero" fill="#000000" stroke="none" fill-opacity="0.0196078431372549" />
    <path d="M 2805.5 1430  A 3.5 3.5 0 0 1 2809 1426.5 L 3640 1426.5  A 3.5 3.5 0 0 1 3643.5 1430 L 3643.5 1564  A 3.5 3.5 0 0 1 3640 1567.5 L 2809 1567.5  A 3.5 3.5 0 0 1 2805.5 1564 L 2805.5 1430  Z " stroke-width="1" stroke-dasharray="9,4" stroke="#d9d9d9" fill="none" stroke-dashoffset="0.5" />
  </g>
</svg>