<?xml version="1.0" encoding="utf-8"?>
<svg version="1.1" xmlns:xlink="http://www.w3.org/1999/xlink" width="13px" height="24px" xmlns="http://www.w3.org/2000/svg">
  <g transform="matrix(1 0 0 1 -183 -459 )">
    <path d="M 12.3340757238307 6.10096153846154  C 12.5174461766889 6.10096153846154  12.6815144766147 6.17307692307692  12.826280623608 6.31730769230769  C 13 6.50961538461538  13.0337787676318 6.72115384615384  12.9276169265033 6.95192307692308  L 5.11024498886414 23.6394230769231  C 4.98478099480327 23.8798076923077  4.78210838901262 24  4.5022271714922 24  C 4.46362286562732 24  4.39606533036377 23.9903846153846  4.29955456570156 23.9711538461538  C 4.1354862657758 23.9230769230769  4.01243504083148 23.8317307692308  3.9304008908686 23.6971153846154  C 3.84836674090572 23.5625  3.82665181885672 23.4182692307692  3.8652561247216 23.2644230769231  L 6.71714922048998 11.6105769230769  L 0.839643652561247 13.0673076923077  C 0.801039346696362 13.0769230769231  0.743132887899035 13.0817307692308  0.665924276169265 13.0817307692308  C 0.492204899777283 13.0817307692308  0.342613214550854 13.0288461538462  0.217149220489978 12.9230769230769  C 0.0434298440979955 12.7788461538462  -0.0193021529324425 12.5913461538462  0.0289532293986637 12.3605769230769  L 2.93875278396437 0.461538461538463  C 2.97735708982925 0.326923076923076  3.05456570155902 0.216346153846155  3.17037861915367 0.129807692307693  C 3.28619153674833 0.0432692307692299  3.42130660727543 0  3.57572383073497 0  L 8.32405345211581 0  C 8.50742390497402 0  8.66184112843356 0.0600961538461506  8.78730512249443 0.180288461538463  C 8.91276911655531 0.300480769230769  8.97550111358574 0.442307692307691  8.97550111358574 0.60576923076923  C 8.97550111358574 0.682692307692307  8.95137342242019 0.769230769230769  8.90311804008909 0.865384615384615  L 6.42761692650334 7.54326923076923  L 12.1603563474388 6.12980769230769  C 12.2375649591685 6.11057692307692  12.2954714179659 6.10096153846154  12.3340757238307 6.10096153846154  Z " fill-rule="nonzero" fill="#f2e197" stroke="none" transform="matrix(1 0 0 1 183 459 )" />
  </g>
</svg>