<?xml version="1.0" encoding="utf-8"?>
<svg version="1.1" xmlns:xlink="http://www.w3.org/1999/xlink" width="12px" height="12px" viewBox="544 452  12 12" xmlns="http://www.w3.org/2000/svg">
  <path d="M 550 452  C 553.36 452  556 454.64  556 458  C 556 461.36  553.36 464  550 464  C 546.64 464  544 461.36  544 458  C 544 454.64  546.64 452  550 452  Z " fill-rule="nonzero" fill="#f0f0f0" stroke="none" />
  <path d="M 550 452.5  C 553.08 452.5  555.5 454.92  555.5 458  C 555.5 461.08  553.08 463.5  550 463.5  C 546.92 463.5  544.5 461.08  544.5 458  C 544.5 454.92  546.92 452.5  550 452.5  Z " stroke-width="1" stroke="#797979" fill="none" />
  <path d="M 550 461  C 548.32 461  547 459.68  547 458  C 547 456.32  548.32 455  550 455  C 551.68 455  553 456.32  553 458  C 553 459.68  551.68 461  550 461  " fill-rule="nonzero" fill="#797979" stroke="none" />
</svg>