<?xml version="1.0" encoding="utf-8"?>
<svg version="1.1" xmlns:xlink="http://www.w3.org/1999/xlink" width="12px" height="12px" viewBox="626 452  12 12" xmlns="http://www.w3.org/2000/svg">
  <path d="M 632 452  C 635.36 452  638 454.64  638 458  C 638 461.36  635.36 464  632 464  C 628.64 464  626 461.36  626 458  C 626 454.64  628.64 452  632 452  Z " fill-rule="nonzero" fill="#f0f0f0" stroke="none" />
  <path d="M 632 452.5  C 635.08 452.5  637.5 454.92  637.5 458  C 637.5 461.08  635.08 463.5  632 463.5  C 628.92 463.5  626.5 461.08  626.5 458  C 626.5 454.92  628.92 452.5  632 452.5  Z " stroke-width="1" stroke="#797979" fill="none" />
  <path d="M 632 461  C 630.32 461  629 459.68  629 458  C 629 456.32  630.32 455  632 455  C 633.68 455  635 456.32  635 458  C 635 459.68  633.68 461  632 461  " fill-rule="nonzero" fill="#797979" stroke="none" />
</svg>