<?xml version="1.0" encoding="utf-8"?>
<svg version="1.1" xmlns:xlink="http://www.w3.org/1999/xlink" width="12px" height="12px" viewBox="544 737  12 12" xmlns="http://www.w3.org/2000/svg">
  <path d="M 550 737  C 553.36 737  556 739.64  556 743  C 556 746.36  553.36 749  550 749  C 546.64 749  544 746.36  544 743  C 544 739.64  546.64 737  550 737  Z " fill-rule="nonzero" fill="#f0f0f0" stroke="none" />
  <path d="M 550 737.5  C 553.08 737.5  555.5 739.92  555.5 743  C 555.5 746.08  553.08 748.5  550 748.5  C 546.92 748.5  544.5 746.08  544.5 743  C 544.5 739.92  546.92 737.5  550 737.5  Z " stroke-width="1" stroke="#797979" fill="none" />
  <path d="M 550 746  C 548.32 746  547 744.68  547 743  C 547 741.32  548.32 740  550 740  C 551.68 740  553 741.32  553 743  C 553 744.68  551.68 746  550 746  " fill-rule="nonzero" fill="#797979" stroke="none" />
</svg>