<?xml version="1.0" encoding="utf-8"?>
<svg version="1.1" xmlns:xlink="http://www.w3.org/1999/xlink" width="12px" height="12px" viewBox="626 737  12 12" xmlns="http://www.w3.org/2000/svg">
  <path d="M 632 737  C 635.36 737  638 739.64  638 743  C 638 746.36  635.36 749  632 749  C 628.64 749  626 746.36  626 743  C 626 739.64  628.64 737  632 737  Z " fill-rule="nonzero" fill="#f0f0f0" stroke="none" />
  <path d="M 632 737.5  C 635.08 737.5  637.5 739.92  637.5 743  C 637.5 746.08  635.08 748.5  632 748.5  C 628.92 748.5  626.5 746.08  626.5 743  C 626.5 739.92  628.92 737.5  632 737.5  Z " stroke-width="1" stroke="#797979" fill="none" />
  <path d="M 632 746  C 630.32 746  629 744.68  629 743  C 629 741.32  630.32 740  632 740  C 633.68 740  635 741.32  635 743  C 635 744.68  633.68 746  632 746  " fill-rule="nonzero" fill="#797979" stroke="none" />
</svg>