<?xml version="1.0" encoding="utf-8"?>
<svg version="1.1" xmlns:xlink="http://www.w3.org/1999/xlink" width="12px" height="12px" viewBox="544 782  12 12" xmlns="http://www.w3.org/2000/svg">
  <path d="M 550 782  C 553.36 782  556 784.64  556 788  C 556 791.36  553.36 794  550 794  C 546.64 794  544 791.36  544 788  C 544 784.64  546.64 782  550 782  Z " fill-rule="nonzero" fill="#ffffff" stroke="none" />
  <path d="M 550 782.5  C 553.08 782.5  555.5 784.92  555.5 788  C 555.5 791.08  553.08 793.5  550 793.5  C 546.92 793.5  544.5 791.08  544.5 788  C 544.5 784.92  546.92 782.5  550 782.5  Z " stroke-width="1" stroke="#797979" fill="none" />
  <path d="M 550 791  C 548.32 791  547 789.68  547 788  C 547 786.32  548.32 785  550 785  C 551.68 785  553 786.32  553 788  C 553 789.68  551.68 791  550 791  " fill-rule="nonzero" fill="#797979" stroke="none" />
</svg>