<?xml version="1.0" encoding="utf-8"?>
<svg version="1.1" xmlns:xlink="http://www.w3.org/1999/xlink" width="12px" height="12px" viewBox="626 782  12 12" xmlns="http://www.w3.org/2000/svg">
  <path d="M 632 782  C 635.36 782  638 784.64  638 788  C 638 791.36  635.36 794  632 794  C 628.64 794  626 791.36  626 788  C 626 784.64  628.64 782  632 782  Z " fill-rule="nonzero" fill="#f0f0f0" stroke="none" />
  <path d="M 632 782.5  C 635.08 782.5  637.5 784.92  637.5 788  C 637.5 791.08  635.08 793.5  632 793.5  C 628.92 793.5  626.5 791.08  626.5 788  C 626.5 784.92  628.92 782.5  632 782.5  Z " stroke-width="1" stroke="#797979" fill="none" />
  <path d="M 632 791  C 630.32 791  629 789.68  629 788  C 629 786.32  630.32 785  632 785  C 633.68 785  635 786.32  635 788  C 635 789.68  633.68 791  632 791  " fill-rule="nonzero" fill="#797979" stroke="none" />
</svg>