<?xml version="1.0" encoding="utf-8"?>
<svg version="1.1" xmlns:xlink="http://www.w3.org/1999/xlink" width="12px" height="12px" viewBox="544 894  12 12" xmlns="http://www.w3.org/2000/svg">
  <path d="M 550 894  C 553.36 894  556 896.64  556 900  C 556 903.36  553.36 906  550 906  C 546.64 906  544 903.36  544 900  C 544 896.64  546.64 894  550 894  Z " fill-rule="nonzero" fill="#ffffff" stroke="none" />
  <path d="M 550 894.5  C 553.08 894.5  555.5 896.92  555.5 900  C 555.5 903.08  553.08 905.5  550 905.5  C 546.92 905.5  544.5 903.08  544.5 900  C 544.5 896.92  546.92 894.5  550 894.5  Z " stroke-width="1" stroke="#797979" fill="none" />
  <path d="M 550 903  C 548.32 903  547 901.68  547 900  C 547 898.32  548.32 897  550 897  C 551.68 897  553 898.32  553 900  C 553 901.68  551.68 903  550 903  " fill-rule="nonzero" fill="#797979" stroke="none" />
</svg>