<?xml version="1.0" encoding="utf-8"?>
<svg version="1.1" xmlns:xlink="http://www.w3.org/1999/xlink" width="12px" height="12px" viewBox="626 894  12 12" xmlns="http://www.w3.org/2000/svg">
  <path d="M 632 894  C 635.36 894  638 896.64  638 900  C 638 903.36  635.36 906  632 906  C 628.64 906  626 903.36  626 900  C 626 896.64  628.64 894  632 894  Z " fill-rule="nonzero" fill="#ffffff" stroke="none" />
  <path d="M 632 894.5  C 635.08 894.5  637.5 896.92  637.5 900  C 637.5 903.08  635.08 905.5  632 905.5  C 628.92 905.5  626.5 903.08  626.5 900  C 626.5 896.92  628.92 894.5  632 894.5  Z " stroke-width="1" stroke="#797979" fill="none" />
  <path d="M 632 903  C 630.32 903  629 901.68  629 900  C 629 898.32  630.32 897  632 897  C 633.68 897  635 898.32  635 900  C 635 901.68  633.68 903  632 903  " fill-rule="nonzero" fill="#797979" stroke="none" />
</svg>