<?xml version="1.0" encoding="utf-8"?>
<svg version="1.1" xmlns:xlink="http://www.w3.org/1999/xlink" width="12px" height="12px" viewBox="544 295  12 12" xmlns="http://www.w3.org/2000/svg">
  <path d="M 550 295  C 553.36 295  556 297.64  556 301  C 556 304.36  553.36 307  550 307  C 546.64 307  544 304.36  544 301  C 544 297.64  546.64 295  550 295  Z " fill-rule="nonzero" fill="#f0f0f0" stroke="none" />
  <path d="M 550 295.5  C 553.08 295.5  555.5 297.92  555.5 301  C 555.5 304.08  553.08 306.5  550 306.5  C 546.92 306.5  544.5 304.08  544.5 301  C 544.5 297.92  546.92 295.5  550 295.5  Z " stroke-width="1" stroke="#797979" fill="none" />
  <path d="M 550 304  C 548.32 304  547 302.68  547 301  C 547 299.32  548.32 298  550 298  C 551.68 298  553 299.32  553 301  C 553 302.68  551.68 304  550 304  " fill-rule="nonzero" fill="#797979" stroke="none" />
</svg>