<?xml version="1.0" encoding="utf-8"?>
<svg version="1.1" xmlns:xlink="http://www.w3.org/1999/xlink" width="12px" height="12px" xmlns="http://www.w3.org/2000/svg">
  <g transform="matrix(1 0 0 1 -2551 -1074 )">
    <path d="M 2557 1078  C 2558.12 1078  2559 1078.88  2559 1080  C 2559 1081.12  2558.12 1082  2557 1082  C 2555.88 1082  2555 1081.12  2555 1080  C 2555 1078.88  2555.88 1078  2557 1078  Z " fill-rule="nonzero" fill="#ffffff" stroke="none" />
    <path d="M 2557 1076.5  C 2558.96 1076.5  2560.5 1078.04  2560.5 1080  C 2560.5 1081.96  2558.96 1083.5  2557 1083.5  C 2555.04 1083.5  2553.5 1081.96  2553.5 1080  C 2553.5 1078.04  2555.04 1076.5  2557 1076.5  Z " stroke-width="5" stroke="#409eff" fill="none" />
  </g>
</svg>