<?xml version="1.0" encoding="utf-8"?>
<svg version="1.1" xmlns:xlink="http://www.w3.org/1999/xlink" width="12px" height="12px" xmlns="http://www.w3.org/2000/svg">
  <g transform="matrix(1 0 0 1 -2551 -1074 )">
    <path d="M 2557 1074  C 2560.36 1074  2563 1076.64  2563 1080  C 2563 1083.36  2560.36 1086  2557 1086  C 2553.64 1086  2551 1083.36  2551 1080  C 2551 1076.64  2553.64 1074  2557 1074  Z " fill-rule="nonzero" fill="#ffffff" stroke="none" />
    <path d="M 2557 1074.5  C 2560.08 1074.5  2562.5 1076.92  2562.5 1080  C 2562.5 1083.08  2560.08 1085.5  2557 1085.5  C 2553.92 1085.5  2551.5 1083.08  2551.5 1080  C 2551.5 1076.92  2553.92 1074.5  2557 1074.5  Z " stroke-width="1" stroke="#409eff" fill="none" />
  </g>
</svg>