<?xml version="1.0" encoding="utf-8"?>
<svg version="1.1" xmlns:xlink="http://www.w3.org/1999/xlink" width="19px" height="25px" xmlns="http://www.w3.org/2000/svg">
  <g transform="matrix(1 0 0 1 -354 -95 )">
    <path d="M 11.65234375 15.33203125  C 12.6533453525641 14.0149238782051  13.1538461538462 12.4298878205128  13.1538461538462 10.5769230769231  C 13.1538461538462 8.72395833333333  12.6533453525641 7.13892227564102  11.65234375 5.82181490384615  C 10.6513421474359 4.50470753205128  9.44671474358974 3.84615384615385  8.03846153846154 3.84615384615385  C 6.63020833333333 3.84615384615385  5.42558092948718 4.50470753205128  4.42457932692308 5.82181490384615  C 3.42357772435897 7.13892227564102  2.92307692307692 8.72395833333333  2.92307692307692 10.5769230769231  C 2.92307692307692 12.4298878205128  3.42357772435897 14.0149238782051  4.42457932692308 15.33203125  C 5.42558092948718 16.6491386217949  6.63020833333333 17.3076923076923  8.03846153846154 17.3076923076923  C 9.44671474358974 17.3076923076923  10.6513421474359 16.6491386217949  11.65234375 15.33203125  Z M 18.5775240384615 21.7247596153846  C 18.8591746794872 22.0953525641026  19 22.5460737179487  19 23.0769230769231  C 19 23.5977564102564  18.8553685897436 24.0484775641026  18.5661057692308 24.4290865384615  C 18.2768429487179 24.8096955128205  17.9342948717949 25  17.5384615384615 25  C 17.1274038461538 25  16.7848557692308 24.8096955128205  16.5108173076923 24.4290865384615  L 12.5943509615385 19.2908653846154  C 11.2317708333333 20.5328525641026  9.71314102564103 21.1538461538462  8.03846153846154 21.1538461538462  C 6.94991987179487 21.1538461538462  5.90895432692308 20.8759014423077  4.91556490384615 20.3200120192308  C 3.92217548076923 19.7641225961538  3.06580528846154 19.0129206730769  2.34645432692308 18.06640625  C 1.62710336538462 17.1198918269231  1.05618990384615 15.9930889423077  0.633713942307692 14.6859975961538  C 0.211237980769231 13.37890625  0 12.0092147435897  0 10.5769230769231  C 0 9.14463141025641  0.211237980769231 7.77493990384615  0.633713942307692 6.46784855769231  C 1.05618990384615 5.16075721153846  1.62710336538462 4.03395432692308  2.34645432692308 3.08743990384615  C 3.06580528846154 2.14092548076923  3.92217548076923 1.38972355769231  4.91556490384615 0.833834134615385  C 5.90895432692308 0.277944711538461  6.94991987179487 0  8.03846153846154 0  C 9.12700320512821 0  10.16796875 0.277944711538461  11.1613581730769 0.833834134615385  C 12.1547475961538 1.38972355769231  13.0111177884615 2.14092548076923  13.73046875 3.08743990384615  C 14.4498197115385 4.03395432692308  15.0207331730769 5.16075721153846  15.4432091346154 6.46784855769231  C 15.8656850961538 7.77493990384615  16.0769230769231 9.14463141025641  16.0769230769231 10.5769230769231  C 16.0769230769231 12.7804487179487  15.604967948718 14.7786458333333  14.6610576923077 16.5715144230769  L 18.5775240384615 21.7247596153846  Z " fill-rule="nonzero" fill="#0079fe" stroke="none" transform="matrix(1 0 0 1 354 95 )" />
  </g>
</svg>