<?xml version="1.0" encoding="utf-8"?>
<svg version="1.1" xmlns:xlink="http://www.w3.org/1999/xlink" width="12px" height="12px" viewBox="696 271  12 12" xmlns="http://www.w3.org/2000/svg">
  <path d="M 702 271  C 705.36 271  708 273.64  708 277  C 708 280.36  705.36 283  702 283  C 698.64 283  696 280.36  696 277  C 696 273.64  698.64 271  702 271  Z " fill-rule="nonzero" fill="#ffffff" stroke="none" />
  <path d="M 702 271.5  C 705.08 271.5  707.5 273.92  707.5 277  C 707.5 280.08  705.08 282.5  702 282.5  C 698.92 282.5  696.5 280.08  696.5 277  C 696.5 273.92  698.92 271.5  702 271.5  Z " stroke-width="1" stroke="#797979" fill="none" />
  <path d="M 702 280  C 700.32 280  699 278.68  699 277  C 699 275.32  700.32 274  702 274  C 703.68 274  705 275.32  705 277  C 705 278.68  703.68 280  702 280  " fill-rule="nonzero" fill="#797979" stroke="none" />
</svg>