<?xml version="1.0" encoding="utf-8"?>
<svg version="1.1" xmlns:xlink="http://www.w3.org/1999/xlink" width="12px" height="12px" viewBox="652 1778  12 12" xmlns="http://www.w3.org/2000/svg">
  <path d="M 658 1778  C 661.36 1778  664 1780.64  664 1784  C 664 1787.36  661.36 1790  658 1790  C 654.64 1790  652 1787.36  652 1784  C 652 1780.64  654.64 1778  658 1778  Z " fill-rule="nonzero" fill="#f0f0f0" stroke="none" />
  <path d="M 658 1778.5  C 661.08 1778.5  663.5 1780.92  663.5 1784  C 663.5 1787.08  661.08 1789.5  658 1789.5  C 654.92 1789.5  652.5 1787.08  652.5 1784  C 652.5 1780.92  654.92 1778.5  658 1778.5  Z " stroke-width="1" stroke="#797979" fill="none" />
  <path d="M 658 1787  C 656.32 1787  655 1785.68  655 1784  C 655 1782.32  656.32 1781  658 1781  C 659.68 1781  661 1782.32  661 1784  C 661 1785.68  659.68 1787  658 1787  " fill-rule="nonzero" fill="#797979" stroke="none" />
</svg>