<?xml version="1.0" encoding="utf-8"?>
<svg version="1.1" xmlns:xlink="http://www.w3.org/1999/xlink" width="12px" height="12px" viewBox="517 1816  12 12" xmlns="http://www.w3.org/2000/svg">
  <path d="M 523 1816  C 526.36 1816  529 1818.64  529 1822  C 529 1825.36  526.36 1828  523 1828  C 519.64 1828  517 1825.36  517 1822  C 517 1818.64  519.64 1816  523 1816  Z " fill-rule="nonzero" fill="#ffffff" stroke="none" />
  <path d="M 523 1816.5  C 526.08 1816.5  528.5 1818.92  528.5 1822  C 528.5 1825.08  526.08 1827.5  523 1827.5  C 519.92 1827.5  517.5 1825.08  517.5 1822  C 517.5 1818.92  519.92 1816.5  523 1816.5  Z " stroke-width="1" stroke="#797979" fill="none" />
  <path d="M 523 1825  C 521.32 1825  520 1823.68  520 1822  C 520 1820.32  521.32 1819  523 1819  C 524.68 1819  526 1820.32  526 1822  C 526 1823.68  524.68 1825  523 1825  " fill-rule="nonzero" fill="#797979" stroke="none" />
</svg>