<?xml version="1.0" encoding="utf-8"?>
<svg version="1.1" xmlns:xlink="http://www.w3.org/1999/xlink" width="519px" height="42px" xmlns="http://www.w3.org/2000/svg">
  <g transform="matrix(1 0 0 1 -63 -329 )">
    <path d="M 64 333  A 3 3 0 0 1 67 330 L 578 330  A 3 3 0 0 1 581 333 L 581 367  A 3 3 0 0 1 578 370 L 67 370  A 3 3 0 0 1 64 367 L 64 333  Z " fill-rule="nonzero" fill="#000000" stroke="none" fill-opacity="0.0196078431372549" />
    <path d="M 63.5 333  A 3.5 3.5 0 0 1 67 329.5 L 578 329.5  A 3.5 3.5 0 0 1 581.5 333 L 581.5 367  A 3.5 3.5 0 0 1 578 370.5 L 67 370.5  A 3.5 3.5 0 0 1 63.5 367 L 63.5 333  Z " stroke-width="1" stroke-dasharray="9,4" stroke="#3498db" fill="none" stroke-dashoffset="0.5" />
  </g>
</svg>