<?xml version="1.0" encoding="utf-8"?>
<svg version="1.1" xmlns:xlink="http://www.w3.org/1999/xlink" width="12px" height="12px" viewBox="163 762  12 12" xmlns="http://www.w3.org/2000/svg">
  <path d="M 169 762  C 172.36 762  175 764.64  175 768  C 175 771.36  172.36 774  169 774  C 165.64 774  163 771.36  163 768  C 163 764.64  165.64 762  169 762  Z " fill-rule="nonzero" fill="#ffffff" stroke="none" />
  <path d="M 169 762.5  C 172.08 762.5  174.5 764.92  174.5 768  C 174.5 771.08  172.08 773.5  169 773.5  C 165.92 773.5  163.5 771.08  163.5 768  C 163.5 764.92  165.92 762.5  169 762.5  Z " stroke-width="1" stroke="#797979" fill="none" />
  <path d="M 169 771  C 167.32 771  166 769.68  166 768  C 166 766.32  167.32 765  169 765  C 170.68 765  172 766.32  172 768  C 172 769.68  170.68 771  169 771  " fill-rule="nonzero" fill="#797979" stroke="none" />
</svg>