<?xml version="1.0" encoding="utf-8"?>
<svg version="1.1" xmlns:xlink="http://www.w3.org/1999/xlink" width="12px" height="12px" viewBox="228 762  12 12" xmlns="http://www.w3.org/2000/svg">
  <path d="M 234 762  C 237.36 762  240 764.64  240 768  C 240 771.36  237.36 774  234 774  C 230.64 774  228 771.36  228 768  C 228 764.64  230.64 762  234 762  Z " fill-rule="nonzero" fill="#f0f0f0" stroke="none" />
  <path d="M 234 762.5  C 237.08 762.5  239.5 764.92  239.5 768  C 239.5 771.08  237.08 773.5  234 773.5  C 230.92 773.5  228.5 771.08  228.5 768  C 228.5 764.92  230.92 762.5  234 762.5  Z " stroke-width="1" stroke="#797979" fill="none" />
  <path d="M 234 771  C 232.32 771  231 769.68  231 768  C 231 766.32  232.32 765  234 765  C 235.68 765  237 766.32  237 768  C 237 769.68  235.68 771  234 771  " fill-rule="nonzero" fill="#797979" stroke="none" />
</svg>