<?xml version="1.0" encoding="utf-8"?>
<svg version="1.1" xmlns:xlink="http://www.w3.org/1999/xlink" width="12px" height="12px" viewBox="105 67  12 12" xmlns="http://www.w3.org/2000/svg">
  <path d="M 111 67  C 114.36 67  117 69.64  117 73  C 117 76.36  114.36 79  111 79  C 107.64 79  105 76.36  105 73  C 105 69.64  107.64 67  111 67  Z " fill-rule="nonzero" fill="#ffffff" stroke="none" />
  <path d="M 111 67.5  C 114.08 67.5  116.5 69.92  116.5 73  C 116.5 76.08  114.08 78.5  111 78.5  C 107.92 78.5  105.5 76.08  105.5 73  C 105.5 69.92  107.92 67.5  111 67.5  Z " stroke-width="1" stroke="#797979" fill="none" />
  <path d="M 111 76  C 109.32 76  108 74.68  108 73  C 108 71.32  109.32 70  111 70  C 112.68 70  114 71.32  114 73  C 114 74.68  112.68 76  111 76  " fill-rule="nonzero" fill="#797979" stroke="none" />
</svg>