<?xml version="1.0" encoding="utf-8"?>
<svg version="1.1" xmlns:xlink="http://www.w3.org/1999/xlink" width="12px" height="12px" viewBox="130 1263  12 12" xmlns="http://www.w3.org/2000/svg">
  <path d="M 136 1263  C 139.36 1263  142 1265.64  142 1269  C 142 1272.36  139.36 1275  136 1275  C 132.64 1275  130 1272.36  130 1269  C 130 1265.64  132.64 1263  136 1263  Z " fill-rule="nonzero" fill="#f0f0f0" stroke="none" />
  <path d="M 136 1263.5  C 139.08 1263.5  141.5 1265.92  141.5 1269  C 141.5 1272.08  139.08 1274.5  136 1274.5  C 132.92 1274.5  130.5 1272.08  130.5 1269  C 130.5 1265.92  132.92 1263.5  136 1263.5  Z " stroke-width="1" stroke="#797979" fill="none" />
  <path d="M 136 1272  C 134.32 1272  133 1270.68  133 1269  C 133 1267.32  134.32 1266  136 1266  C 137.68 1266  139 1267.32  139 1269  C 139 1270.68  137.68 1272  136 1272  " fill-rule="nonzero" fill="#797979" stroke="none" />
</svg>