<?xml version="1.0" encoding="utf-8"?>
<svg version="1.1" xmlns:xlink="http://www.w3.org/1999/xlink" width="12px" height="12px" viewBox="130 1221  12 12" xmlns="http://www.w3.org/2000/svg">
  <path d="M 136 1221  C 139.36 1221  142 1223.64  142 1227  C 142 1230.36  139.36 1233  136 1233  C 132.64 1233  130 1230.36  130 1227  C 130 1223.64  132.64 1221  136 1221  Z " fill-rule="nonzero" fill="#ffffff" stroke="none" />
  <path d="M 136 1221.5  C 139.08 1221.5  141.5 1223.92  141.5 1227  C 141.5 1230.08  139.08 1232.5  136 1232.5  C 132.92 1232.5  130.5 1230.08  130.5 1227  C 130.5 1223.92  132.92 1221.5  136 1221.5  Z " stroke-width="1" stroke="#797979" fill="none" />
  <path d="M 136 1230  C 134.32 1230  133 1228.68  133 1227  C 133 1225.32  134.32 1224  136 1224  C 137.68 1224  139 1225.32  139 1227  C 139 1228.68  137.68 1230  136 1230  " fill-rule="nonzero" fill="#797979" stroke="none" />
</svg>