<?xml version="1.0" encoding="utf-8"?>
<svg version="1.1" xmlns:xlink="http://www.w3.org/1999/xlink" width="12px" height="12px" viewBox="-997 232  12 12" xmlns="http://www.w3.org/2000/svg">
  <path d="M -991 232  C -987.64 232  -985 234.64  -985 238  C -985 241.36  -987.64 244  -991 244  C -994.36 244  -997 241.36  -997 238  C -997 234.64  -994.36 232  -991 232  Z " fill-rule="nonzero" fill="#f0f0f0" stroke="none" />
  <path d="M -991 232.5  C -987.92 232.5  -985.5 234.92  -985.5 238  C -985.5 241.08  -987.92 243.5  -991 243.5  C -994.08 243.5  -996.5 241.08  -996.5 238  C -996.5 234.92  -994.08 232.5  -991 232.5  Z " stroke-width="1" stroke="#797979" fill="none" />
  <path d="M -991 241  C -992.68 241  -994 239.68  -994 238  C -994 236.32  -992.68 235  -991 235  C -989.32 235  -988 236.32  -988 238  C -988 239.68  -989.32 241  -991 241  " fill-rule="nonzero" fill="#797979" stroke="none" />
</svg>