<?xml version="1.0" encoding="utf-8"?>
<svg version="1.1" xmlns:xlink="http://www.w3.org/1999/xlink" width="12px" height="12px" viewBox="-611 232  12 12" xmlns="http://www.w3.org/2000/svg">
  <path d="M -605 232  C -601.64 232  -599 234.64  -599 238  C -599 241.36  -601.64 244  -605 244  C -608.36 244  -611 241.36  -611 238  C -611 234.64  -608.36 232  -605 232  Z " fill-rule="nonzero" fill="#ffffff" stroke="none" />
  <path d="M -605 232.5  C -601.92 232.5  -599.5 234.92  -599.5 238  C -599.5 241.08  -601.92 243.5  -605 243.5  C -608.08 243.5  -610.5 241.08  -610.5 238  C -610.5 234.92  -608.08 232.5  -605 232.5  Z " stroke-width="1" stroke="#797979" fill="none" />
  <path d="M -605 241  C -606.68 241  -608 239.68  -608 238  C -608 236.32  -606.68 235  -605 235  C -603.32 235  -602 236.32  -602 238  C -602 239.68  -603.32 241  -605 241  " fill-rule="nonzero" fill="#797979" stroke="none" />
</svg>