<?xml version="1.0" encoding="utf-8"?>
<svg version="1.1" xmlns:xlink="http://www.w3.org/1999/xlink" width="12px" height="12px" viewBox="130 503  12 12" xmlns="http://www.w3.org/2000/svg">
  <path d="M 136 503  C 139.36 503  142 505.64  142 509  C 142 512.36  139.36 515  136 515  C 132.64 515  130 512.36  130 509  C 130 505.64  132.64 503  136 503  Z " fill-rule="nonzero" fill="#ffffff" stroke="none" />
  <path d="M 136 503.5  C 139.08 503.5  141.5 505.92  141.5 509  C 141.5 512.08  139.08 514.5  136 514.5  C 132.92 514.5  130.5 512.08  130.5 509  C 130.5 505.92  132.92 503.5  136 503.5  Z " stroke-width="1" stroke="#797979" fill="none" />
  <path d="M 136 512  C 134.32 512  133 510.68  133 509  C 133 507.32  134.32 506  136 506  C 137.68 506  139 507.32  139 509  C 139 510.68  137.68 512  136 512  " fill-rule="nonzero" fill="#797979" stroke="none" />
</svg>