<?xml version="1.0" encoding="utf-8"?>
<svg version="1.1" xmlns:xlink="http://www.w3.org/1999/xlink" width="12px" height="12px" viewBox="389 394  12 12" xmlns="http://www.w3.org/2000/svg">
  <path d="M 395 394  C 398.36 394  401 396.64  401 400  C 401 403.36  398.36 406  395 406  C 391.64 406  389 403.36  389 400  C 389 396.64  391.64 394  395 394  Z " fill-rule="nonzero" fill="#ffffff" stroke="none" />
  <path d="M 395 394.5  C 398.08 394.5  400.5 396.92  400.5 400  C 400.5 403.08  398.08 405.5  395 405.5  C 391.92 405.5  389.5 403.08  389.5 400  C 389.5 396.92  391.92 394.5  395 394.5  Z " stroke-width="1" stroke="#797979" fill="none" />
  <path d="M 395 403  C 393.32 403  392 401.68  392 400  C 392 398.32  393.32 397  395 397  C 396.68 397  398 398.32  398 400  C 398 401.68  396.68 403  395 403  " fill-rule="nonzero" fill="#797979" stroke="none" />
</svg>