<?xml version="1.0" encoding="utf-8"?>
<svg version="1.1" xmlns:xlink="http://www.w3.org/1999/xlink" width="12px" height="12px" viewBox="195 503  12 12" xmlns="http://www.w3.org/2000/svg">
  <path d="M 201 503  C 204.36 503  207 505.64  207 509  C 207 512.36  204.36 515  201 515  C 197.64 515  195 512.36  195 509  C 195 505.64  197.64 503  201 503  Z " fill-rule="nonzero" fill="#f0f0f0" stroke="none" />
  <path d="M 201 503.5  C 204.08 503.5  206.5 505.92  206.5 509  C 206.5 512.08  204.08 514.5  201 514.5  C 197.92 514.5  195.5 512.08  195.5 509  C 195.5 505.92  197.92 503.5  201 503.5  Z " stroke-width="1" stroke="#797979" fill="none" />
  <path d="M 201 512  C 199.32 512  198 510.68  198 509  C 198 507.32  199.32 506  201 506  C 202.68 506  204 507.32  204 509  C 204 510.68  202.68 512  201 512  " fill-rule="nonzero" fill="#797979" stroke="none" />
</svg>