<?xml version="1.0" encoding="utf-8"?>
<svg version="1.1" xmlns:xlink="http://www.w3.org/1999/xlink" width="12px" height="12px" viewBox="340 847  12 12" xmlns="http://www.w3.org/2000/svg">
  <path d="M 346 847  C 349.36 847  352 849.64  352 853  C 352 856.36  349.36 859  346 859  C 342.64 859  340 856.36  340 853  C 340 849.64  342.64 847  346 847  Z " fill-rule="nonzero" fill="#ffffff" stroke="none" />
  <path d="M 346 847.5  C 349.08 847.5  351.5 849.92  351.5 853  C 351.5 856.08  349.08 858.5  346 858.5  C 342.92 858.5  340.5 856.08  340.5 853  C 340.5 849.92  342.92 847.5  346 847.5  Z " stroke-width="1" stroke="#797979" fill="none" />
  <path d="M 346 856  C 344.32 856  343 854.68  343 853  C 343 851.32  344.32 850  346 850  C 347.68 850  349 851.32  349 853  C 349 854.68  347.68 856  346 856  " fill-rule="nonzero" fill="#797979" stroke="none" />
</svg>