<?xml version="1.0" encoding="utf-8"?>
<svg version="1.1" xmlns:xlink="http://www.w3.org/1999/xlink" width="12px" height="12px" viewBox="-188 352  12 12" xmlns="http://www.w3.org/2000/svg">
  <path d="M -182 352  C -178.64 352  -176 354.64  -176 358  C -176 361.36  -178.64 364  -182 364  C -185.36 364  -188 361.36  -188 358  C -188 354.64  -185.36 352  -182 352  Z " fill-rule="nonzero" fill="#f0f0f0" stroke="none" />
  <path d="M -182 352.5  C -178.92 352.5  -176.5 354.92  -176.5 358  C -176.5 361.08  -178.92 363.5  -182 363.5  C -185.08 363.5  -187.5 361.08  -187.5 358  C -187.5 354.92  -185.08 352.5  -182 352.5  Z " stroke-width="1" stroke="#797979" fill="none" />
  <path d="M -182 361  C -183.68 361  -185 359.68  -185 358  C -185 356.32  -183.68 355  -182 355  C -180.32 355  -179 356.32  -179 358  C -179 359.68  -180.32 361  -182 361  " fill-rule="nonzero" fill="#797979" stroke="none" />
</svg>