<?xml version="1.0" encoding="utf-8"?>
<svg version="1.1" xmlns:xlink="http://www.w3.org/1999/xlink" width="12px" height="12px" viewBox="-188 430  12 12" xmlns="http://www.w3.org/2000/svg">
  <path d="M -182 430  C -178.64 430  -176 432.64  -176 436  C -176 439.36  -178.64 442  -182 442  C -185.36 442  -188 439.36  -188 436  C -188 432.64  -185.36 430  -182 430  Z " fill-rule="nonzero" fill="#f0f0f0" stroke="none" />
  <path d="M -182 430.5  C -178.92 430.5  -176.5 432.92  -176.5 436  C -176.5 439.08  -178.92 441.5  -182 441.5  C -185.08 441.5  -187.5 439.08  -187.5 436  C -187.5 432.92  -185.08 430.5  -182 430.5  Z " stroke-width="1" stroke="#797979" fill="none" />
  <path d="M -182 439  C -183.68 439  -185 437.68  -185 436  C -185 434.32  -183.68 433  -182 433  C -180.32 433  -179 434.32  -179 436  C -179 437.68  -180.32 439  -182 439  " fill-rule="nonzero" fill="#797979" stroke="none" />
</svg>