<?xml version="1.0" encoding="utf-8"?>
<svg version="1.1" xmlns:xlink="http://www.w3.org/1999/xlink" width="12px" height="12px" viewBox="-119 352  12 12" xmlns="http://www.w3.org/2000/svg">
  <path d="M -113 352  C -109.64 352  -107 354.64  -107 358  C -107 361.36  -109.64 364  -113 364  C -116.36 364  -119 361.36  -119 358  C -119 354.64  -116.36 352  -113 352  Z " fill-rule="nonzero" fill="#f0f0f0" stroke="none" />
  <path d="M -113 352.5  C -109.92 352.5  -107.5 354.92  -107.5 358  C -107.5 361.08  -109.92 363.5  -113 363.5  C -116.08 363.5  -118.5 361.08  -118.5 358  C -118.5 354.92  -116.08 352.5  -113 352.5  Z " stroke-width="1" stroke="#797979" fill="none" />
  <path d="M -113 361  C -114.68 361  -116 359.68  -116 358  C -116 356.32  -114.68 355  -113 355  C -111.32 355  -110 356.32  -110 358  C -110 359.68  -111.32 361  -113 361  " fill-rule="nonzero" fill="#797979" stroke="none" />
</svg>