<?xml version="1.0" encoding="utf-8"?>
<svg version="1.1" xmlns:xlink="http://www.w3.org/1999/xlink" width="12px" height="12px" viewBox="94 2763  12 12" xmlns="http://www.w3.org/2000/svg">
  <path d="M 100 2763  C 103.36 2763  106 2765.64  106 2769  C 106 2772.36  103.36 2775  100 2775  C 96.64 2775  94 2772.36  94 2769  C 94 2765.64  96.64 2763  100 2763  Z " fill-rule="nonzero" fill="#f0f0f0" stroke="none" />
  <path d="M 100 2763.5  C 103.08 2763.5  105.5 2765.92  105.5 2769  C 105.5 2772.08  103.08 2774.5  100 2774.5  C 96.92 2774.5  94.5 2772.08  94.5 2769  C 94.5 2765.92  96.92 2763.5  100 2763.5  Z " stroke-width="1" stroke="#797979" fill="none" />
  <path d="M 100 2772  C 98.32 2772  97 2770.68  97 2769  C 97 2767.32  98.32 2766  100 2766  C 101.68 2766  103 2767.32  103 2769  C 103 2770.68  101.68 2772  100 2772  " fill-rule="nonzero" fill="#797979" stroke="none" />
</svg>