<?xml version="1.0" encoding="utf-8"?>
<svg version="1.1" xmlns:xlink="http://www.w3.org/1999/xlink" width="12px" height="12px" viewBox="229 2725  12 12" xmlns="http://www.w3.org/2000/svg">
  <path d="M 235 2725  C 238.36 2725  241 2727.64  241 2731  C 241 2734.36  238.36 2737  235 2737  C 231.64 2737  229 2734.36  229 2731  C 229 2727.64  231.64 2725  235 2725  Z " fill-rule="nonzero" fill="#ffffff" stroke="none" />
  <path d="M 235 2725.5  C 238.08 2725.5  240.5 2727.92  240.5 2731  C 240.5 2734.08  238.08 2736.5  235 2736.5  C 231.92 2736.5  229.5 2734.08  229.5 2731  C 229.5 2727.92  231.92 2725.5  235 2725.5  Z " stroke-width="1" stroke="#797979" fill="none" />
  <path d="M 235 2734  C 233.32 2734  232 2732.68  232 2731  C 232 2729.32  233.32 2728  235 2728  C 236.68 2728  238 2729.32  238 2731  C 238 2732.68  236.68 2734  235 2734  " fill-rule="nonzero" fill="#797979" stroke="none" />
</svg>