<?xml version="1.0" encoding="utf-8"?>
<svg version="1.1" xmlns:xlink="http://www.w3.org/1999/xlink" width="12px" height="12px" viewBox="-119 430  12 12" xmlns="http://www.w3.org/2000/svg">
  <path d="M -113 430  C -109.64 430  -107 432.64  -107 436  C -107 439.36  -109.64 442  -113 442  C -116.36 442  -119 439.36  -119 436  C -119 432.64  -116.36 430  -113 430  Z " fill-rule="nonzero" fill="#f0f0f0" stroke="none" />
  <path d="M -113 430.5  C -109.92 430.5  -107.5 432.92  -107.5 436  C -107.5 439.08  -109.92 441.5  -113 441.5  C -116.08 441.5  -118.5 439.08  -118.5 436  C -118.5 432.92  -116.08 430.5  -113 430.5  Z " stroke-width="1" stroke="#797979" fill="none" />
  <path d="M -113 439  C -114.68 439  -116 437.68  -116 436  C -116 434.32  -114.68 433  -113 433  C -111.32 433  -110 434.32  -110 436  C -110 437.68  -111.32 439  -113 439  " fill-rule="nonzero" fill="#797979" stroke="none" />
</svg>