<?xml version="1.0" encoding="utf-8"?>
<svg version="1.1" xmlns:xlink="http://www.w3.org/1999/xlink" width="70px" height="25px" xmlns="http://www.w3.org/2000/svg">
  <g transform="matrix(1 0 0 1 -86 -577 )">
    <path d="M 87 585  A 7 7 0 0 1 94 578 L 148 578  A 7 7 0 0 1 155 585 L 155 594  A 7 7 0 0 1 148 601 L 94 601  A 7 7 0 0 1 87 594 L 87 585  Z " fill-rule="nonzero" fill="#81d3f8" stroke="none" fill-opacity="0.168627450980392" />
    <path d="M 86.5 585  A 7.5 7.5 0 0 1 94 577.5 L 148 577.5  A 7.5 7.5 0 0 1 155.5 585 L 155.5 594  A 7.5 7.5 0 0 1 148 601.5 L 94 601.5  A 7.5 7.5 0 0 1 86.5 594 L 86.5 585  Z " stroke-width="1" stroke="#0079fe" fill="none" stroke-opacity="0.654901960784314" />
  </g>
</svg>