<?xml version="1.0" encoding="utf-8"?>
<svg version="1.1" xmlns:xlink="http://www.w3.org/1999/xlink" width="14px" height="14px" xmlns="http://www.w3.org/2000/svg">
  <g transform="matrix(1 0 0 1 -397 -88 )">
    <path d="M 404 89  C 407.36 89  410 91.64  410 95  C 410 98.36  407.36 101  404 101  C 400.64 101  398 98.36  398 95  C 398 91.64  400.64 89  404 89  Z " fill-rule="nonzero" fill="#0d0d51" stroke="none" />
    <path d="M 404 89  C 407.36 89  410 91.64  410 95  C 410 98.36  407.36 101  404 101  C 400.64 101  398 98.36  398 95  C 398 91.64  400.64 89  404 89  Z " stroke-width="2" stroke="#ffffff" fill="none" />
  </g>
</svg>