<?xml version="1.0" encoding="utf-8"?>
<svg version="1.1" xmlns:xlink="http://www.w3.org/1999/xlink" width="331px" height="104px" xmlns="http://www.w3.org/2000/svg">
  <g transform="matrix(1 0 0 1 -80 -876 )">
    <path d="M 81 880  A 3 3 0 0 1 84 877 L 407 877  A 3 3 0 0 1 410 880 L 410 976  A 3 3 0 0 1 407 979 L 84 979  A 3 3 0 0 1 81 976 L 81 880  Z " fill-rule="nonzero" fill="#000000" stroke="none" fill-opacity="0.0196078431372549" />
    <path d="M 80.5 880  A 3.5 3.5 0 0 1 84 876.5 L 407 876.5  A 3.5 3.5 0 0 1 410.5 880 L 410.5 976  A 3.5 3.5 0 0 1 407 979.5 L 84 979.5  A 3.5 3.5 0 0 1 80.5 976 L 80.5 880  Z " stroke-width="1" stroke-dasharray="9,4" stroke="#d9d9d9" fill="none" stroke-dashoffset="0.5" />
  </g>
</svg>