<?xml version="1.0" encoding="utf-8"?>
<svg version="1.1" xmlns:xlink="http://www.w3.org/1999/xlink" width="12px" height="12px" viewBox="167 169  12 12" xmlns="http://www.w3.org/2000/svg">
  <path d="M 173 169  C 176.36 169  179 171.64  179 175  C 179 178.36  176.36 181  173 181  C 169.64 181  167 178.36  167 175  C 167 171.64  169.64 169  173 169  Z " fill-rule="nonzero" fill="#f0f0f0" stroke="none" />
  <path d="M 173 169.5  C 176.08 169.5  178.5 171.92  178.5 175  C 178.5 178.08  176.08 180.5  173 180.5  C 169.92 180.5  167.5 178.08  167.5 175  C 167.5 171.92  169.92 169.5  173 169.5  Z " stroke-width="1" stroke="#797979" fill="none" />
  <path d="M 173 178  C 171.32 178  170 176.68  170 175  C 170 173.32  171.32 172  173 172  C 174.68 172  176 173.32  176 175  C 176 176.68  174.68 178  173 178  " fill-rule="nonzero" fill="#797979" stroke="none" />
</svg>