<?xml version="1.0" encoding="utf-8"?>
<svg version="1.1" xmlns:xlink="http://www.w3.org/1999/xlink" width="12px" height="12px" viewBox="167 69  12 12" xmlns="http://www.w3.org/2000/svg">
  <path d="M 173 69  C 176.36 69  179 71.64  179 75  C 179 78.36  176.36 81  173 81  C 169.64 81  167 78.36  167 75  C 167 71.64  169.64 69  173 69  Z " fill-rule="nonzero" fill="#ffffff" stroke="none" />
  <path d="M 173 69.5  C 176.08 69.5  178.5 71.92  178.5 75  C 178.5 78.08  176.08 80.5  173 80.5  C 169.92 80.5  167.5 78.08  167.5 75  C 167.5 71.92  169.92 69.5  173 69.5  Z " stroke-width="1" stroke="#797979" fill="none" />
  <path d="M 173 78  C 171.32 78  170 76.68  170 75  C 170 73.32  171.32 72  173 72  C 174.68 72  176 73.32  176 75  C 176 76.68  174.68 78  173 78  " fill-rule="nonzero" fill="#797979" stroke="none" />
</svg>