<?xml version="1.0" encoding="utf-8"?>
<svg version="1.1" xmlns:xlink="http://www.w3.org/1999/xlink" width="80px" height="35px" xmlns="http://www.w3.org/2000/svg">
  <g transform="matrix(1 0 0 1 -1282 -123 )">
    <path d="M 1283 128  A 4 4 0 0 1 1287 124 L 1357 124  A 4 4 0 0 1 1361 128 L 1361 153  A 4 4 0 0 1 1357 157 L 1287 157  A 4 4 0 0 1 1283 153 L 1283 128  Z " fill-rule="nonzero" fill="#f0f7ff" stroke="none" />
    <path d="M 1282.5 128  A 4.5 4.5 0 0 1 1287 123.5 L 1357 123.5  A 4.5 4.5 0 0 1 1361.5 128 L 1361.5 153  A 4.5 4.5 0 0 1 1357 157.5 L 1287 157.5  A 4.5 4.5 0 0 1 1282.5 153 L 1282.5 128  Z " stroke-width="1" stroke="#7abbff" fill="none" stroke-opacity="0.996078431372549" />
  </g>
</svg>