<?xml version="1.0" encoding="utf-8"?>
<svg version="1.1" xmlns:xlink="http://www.w3.org/1999/xlink" width="12px" height="12px" viewBox="-627 193  12 12" xmlns="http://www.w3.org/2000/svg">
  <path d="M -621 193  C -617.64 193  -615 195.64  -615 199  C -615 202.36  -617.64 205  -621 205  C -624.36 205  -627 202.36  -627 199  C -627 195.64  -624.36 193  -621 193  Z " fill-rule="nonzero" fill="#f0f0f0" stroke="none" />
  <path d="M -621 193.5  C -617.92 193.5  -615.5 195.92  -615.5 199  C -615.5 202.08  -617.92 204.5  -621 204.5  C -624.08 204.5  -626.5 202.08  -626.5 199  C -626.5 195.92  -624.08 193.5  -621 193.5  Z " stroke-width="1" stroke="#797979" fill="none" />
  <path d="M -621 202  C -622.68 202  -624 200.68  -624 199  C -624 197.32  -622.68 196  -621 196  C -619.32 196  -618 197.32  -618 199  C -618 200.68  -619.32 202  -621 202  " fill-rule="nonzero" fill="#797979" stroke="none" />
</svg>