<?xml version="1.0" encoding="utf-8"?>
<svg version="1.1" xmlns:xlink="http://www.w3.org/1999/xlink" width="12px" height="12px" viewBox="-669 696  12 12" xmlns="http://www.w3.org/2000/svg">
  <path d="M -663 696  C -659.64 696  -657 698.64  -657 702  C -657 705.36  -659.64 708  -663 708  C -666.36 708  -669 705.36  -669 702  C -669 698.64  -666.36 696  -663 696  Z " fill-rule="nonzero" fill="#ffffff" stroke="none" />
  <path d="M -663 696.5  C -659.92 696.5  -657.5 698.92  -657.5 702  C -657.5 705.08  -659.92 707.5  -663 707.5  C -666.08 707.5  -668.5 705.08  -668.5 702  C -668.5 698.92  -666.08 696.5  -663 696.5  Z " stroke-width="1" stroke="#797979" fill="none" />
  <path d="M -663 705  C -664.68 705  -666 703.68  -666 702  C -666 700.32  -664.68 699  -663 699  C -661.32 699  -660 700.32  -660 702  C -660 703.68  -661.32 705  -663 705  " fill-rule="nonzero" fill="#797979" stroke="none" />
</svg>