<?xml version="1.0" encoding="utf-8"?>
<svg version="1.1" xmlns:xlink="http://www.w3.org/1999/xlink" width="12px" height="12px" viewBox="-600 696  12 12" xmlns="http://www.w3.org/2000/svg">
  <path d="M -594 696  C -590.64 696  -588 698.64  -588 702  C -588 705.36  -590.64 708  -594 708  C -597.36 708  -600 705.36  -600 702  C -600 698.64  -597.36 696  -594 696  Z " fill-rule="nonzero" fill="#f0f0f0" stroke="none" />
  <path d="M -594 696.5  C -590.92 696.5  -588.5 698.92  -588.5 702  C -588.5 705.08  -590.92 707.5  -594 707.5  C -597.08 707.5  -599.5 705.08  -599.5 702  C -599.5 698.92  -597.08 696.5  -594 696.5  Z " stroke-width="1" stroke="#797979" fill="none" />
  <path d="M -594 705  C -595.68 705  -597 703.68  -597 702  C -597 700.32  -595.68 699  -594 699  C -592.32 699  -591 700.32  -591 702  C -591 703.68  -592.32 705  -594 705  " fill-rule="nonzero" fill="#797979" stroke="none" />
</svg>