<?xml version="1.0" encoding="utf-8"?>
<svg version="1.1" xmlns:xlink="http://www.w3.org/1999/xlink" width="12px" height="12px" viewBox="-268 696  12 12" xmlns="http://www.w3.org/2000/svg">
  <path d="M -262 696  C -258.64 696  -256 698.64  -256 702  C -256 705.36  -258.64 708  -262 708  C -265.36 708  -268 705.36  -268 702  C -268 698.64  -265.36 696  -262 696  Z " fill-rule="nonzero" fill="#ffffff" stroke="none" />
  <path d="M -262 696.5  C -258.92 696.5  -256.5 698.92  -256.5 702  C -256.5 705.08  -258.92 707.5  -262 707.5  C -265.08 707.5  -267.5 705.08  -267.5 702  C -267.5 698.92  -265.08 696.5  -262 696.5  Z " stroke-width="1" stroke="#797979" fill="none" />
  <path d="M -262 705  C -263.68 705  -265 703.68  -265 702  C -265 700.32  -263.68 699  -262 699  C -260.32 699  -259 700.32  -259 702  C -259 703.68  -260.32 705  -262 705  " fill-rule="nonzero" fill="#797979" stroke="none" />
</svg>