<?xml version="1.0" encoding="utf-8"?>
<svg version="1.1" xmlns:xlink="http://www.w3.org/1999/xlink" width="12px" height="12px" viewBox="2710 1263  12 12" xmlns="http://www.w3.org/2000/svg">
  <path d="M 2716 1263  C 2719.36 1263  2722 1265.64  2722 1269  C 2722 1272.36  2719.36 1275  2716 1275  C 2712.64 1275  2710 1272.36  2710 1269  C 2710 1265.64  2712.64 1263  2716 1263  Z " fill-rule="nonzero" fill="#ffffff" stroke="none" />
  <path d="M 2716 1263.5  C 2719.08 1263.5  2721.5 1265.92  2721.5 1269  C 2721.5 1272.08  2719.08 1274.5  2716 1274.5  C 2712.92 1274.5  2710.5 1272.08  2710.5 1269  C 2710.5 1265.92  2712.92 1263.5  2716 1263.5  Z " stroke-width="1" stroke="#797979" fill="none" />
  <path d="M 2716 1272  C 2714.32 1272  2713 1270.68  2713 1269  C 2713 1267.32  2714.32 1266  2716 1266  C 2717.68 1266  2719 1267.32  2719 1269  C 2719 1270.68  2717.68 1272  2716 1272  " fill-rule="nonzero" fill="#797979" stroke="none" />
</svg>