<?xml version="1.0" encoding="utf-8"?>
<svg version="1.1" xmlns:xlink="http://www.w3.org/1999/xlink" width="12px" height="12px" viewBox="2785 1263  12 12" xmlns="http://www.w3.org/2000/svg">
  <path d="M 2791 1263  C 2794.36 1263  2797 1265.64  2797 1269  C 2797 1272.36  2794.36 1275  2791 1275  C 2787.64 1275  2785 1272.36  2785 1269  C 2785 1265.64  2787.64 1263  2791 1263  Z " fill-rule="nonzero" fill="#f0f0f0" stroke="none" />
  <path d="M 2791 1263.5  C 2794.08 1263.5  2796.5 1265.92  2796.5 1269  C 2796.5 1272.08  2794.08 1274.5  2791 1274.5  C 2787.92 1274.5  2785.5 1272.08  2785.5 1269  C 2785.5 1265.92  2787.92 1263.5  2791 1263.5  Z " stroke-width="1" stroke="#797979" fill="none" />
  <path d="M 2791 1272  C 2789.32 1272  2788 1270.68  2788 1269  C 2788 1267.32  2789.32 1266  2791 1266  C 2792.68 1266  2794 1267.32  2794 1269  C 2794 1270.68  2792.68 1272  2791 1272  " fill-rule="nonzero" fill="#797979" stroke="none" />
</svg>