<?xml version="1.0" encoding="utf-8"?>
<svg version="1.1" xmlns:xlink="http://www.w3.org/1999/xlink" width="22px" height="20px" xmlns="http://www.w3.org/2000/svg">
  <g transform="matrix(1 0 0 1 -576 -15 )">
    <path d="M 13.4921875 12.265625  C 14.6512419871795 11.2119391025641  15.2307692307692 9.94391025641026  15.2307692307692 8.46153846153846  C 15.2307692307692 6.97916666666667  14.6512419871795 5.71113782051282  13.4921875 4.65745192307692  C 12.3331330128205 3.60376602564102  10.9383012820513 3.07692307692308  9.30769230769231 3.07692307692308  C 7.67708333333333 3.07692307692308  6.2822516025641 3.60376602564102  5.12319711538461 4.65745192307692  C 3.96414262820513 5.71113782051282  3.38461538461539 6.97916666666667  3.38461538461539 8.46153846153846  C 3.38461538461539 9.94391025641026  3.96414262820513 11.2119391025641  5.12319711538461 12.265625  C 6.2822516025641 13.3193108974359  7.67708333333333 13.8461538461538  9.30769230769231 13.8461538461538  C 10.9383012820513 13.8461538461538  12.3331330128205 13.3193108974359  13.4921875 12.265625  Z M 21.5108173076923 17.3798076923077  C 21.8369391025641 17.6762820512821  22 18.036858974359  22 18.4615384615385  C 22 18.8782051282051  21.8325320512821 19.2387820512821  21.4975961538462 19.5432692307692  C 21.1626602564103 19.8477564102564  20.7660256410256 20  20.3076923076923 20  C 19.8317307692308 20  19.4350961538462 19.8477564102564  19.1177884615385 19.5432692307692  L 14.5829326923077 15.4326923076923  C 13.0052083333333 16.4262820512821  11.2467948717949 16.9230769230769  9.30769230769231 16.9230769230769  C 8.04727564102564 16.9230769230769  6.84194711538461 16.7007211538462  5.69170673076923 16.2560096153846  C 4.54146634615385 15.8112980769231  3.54987980769231 15.2103365384615  2.71694711538462 14.453125  C 1.88401442307692 13.6959134615385  1.22295673076923 12.7944711538462  0.733774038461538 11.7487980769231  C 0.244591346153846 10.703125  0 9.60737179487179  0 8.46153846153846  C 0 7.31570512820513  0.244591346153846 6.21995192307692  0.733774038461538 5.17427884615385  C 1.22295673076923 4.12860576923077  1.88401442307692 3.22716346153846  2.71694711538462 2.46995192307692  C 3.54987980769231 1.71274038461539  4.54146634615385 1.11177884615385  5.69170673076923 0.667067307692308  C 6.84194711538461 0.222355769230769  8.04727564102564 0  9.30769230769231 0  C 10.568108974359 0  11.7734375 0.222355769230769  12.9236778846154 0.667067307692308  C 14.0739182692308 1.11177884615385  15.0655048076923 1.71274038461539  15.8984375 2.46995192307692  C 16.7313701923077 3.22716346153846  17.3924278846154 4.12860576923077  17.8816105769231 5.17427884615385  C 18.3707932692308 6.21995192307692  18.6153846153846 7.31570512820513  18.6153846153846 8.46153846153846  C 18.6153846153846 10.224358974359  18.0689102564103 11.8229166666667  16.9759615384615 13.2572115384615  L 21.5108173076923 17.3798076923077  Z " fill-rule="nonzero" fill="#02a7f0" stroke="none" transform="matrix(1 0 0 1 576 15 )" />
  </g>
</svg>