<?xml version="1.0" encoding="utf-8"?>
<svg version="1.1" xmlns:xlink="http://www.w3.org/1999/xlink" width="968px" height="42px" xmlns="http://www.w3.org/2000/svg">
  <g transform="matrix(1 0 0 1 -1930 -2409 )">
    <path d="M 1931 2413  A 3 3 0 0 1 1934 2410 L 2894 2410  A 3 3 0 0 1 2897 2413 L 2897 2447  A 3 3 0 0 1 2894 2450 L 1934 2450  A 3 3 0 0 1 1931 2447 L 1931 2413  Z " fill-rule="nonzero" fill="#000000" stroke="none" fill-opacity="0.0196078431372549" />
    <path d="M 1930.5 2413  A 3.5 3.5 0 0 1 1934 2409.5 L 2894 2409.5  A 3.5 3.5 0 0 1 2897.5 2413 L 2897.5 2447  A 3.5 3.5 0 0 1 2894 2450.5 L 1934 2450.5  A 3.5 3.5 0 0 1 1930.5 2447 L 1930.5 2413  Z " stroke-width="1" stroke-dasharray="9,4" stroke="#3498db" fill="none" stroke-dashoffset="0.5" />
  </g>
</svg>