<?xml version="1.0" encoding="utf-8"?>
<svg version="1.1" xmlns:xlink="http://www.w3.org/1999/xlink" width="12px" height="12px" viewBox="166 729  12 12" xmlns="http://www.w3.org/2000/svg">
  <path d="M 172 729  C 175.36 729  178 731.64  178 735  C 178 738.36  175.36 741  172 741  C 168.64 741  166 738.36  166 735  C 166 731.64  168.64 729  172 729  Z " fill-rule="nonzero" fill="#f0f0f0" stroke="none" />
  <path d="M 172 729.5  C 175.08 729.5  177.5 731.92  177.5 735  C 177.5 738.08  175.08 740.5  172 740.5  C 168.92 740.5  166.5 738.08  166.5 735  C 166.5 731.92  168.92 729.5  172 729.5  Z " stroke-width="1" stroke="#797979" fill="none" />
  <path d="M 172 738  C 170.32 738  169 736.68  169 735  C 169 733.32  170.32 732  172 732  C 173.68 732  175 733.32  175 735  C 175 736.68  173.68 738  172 738  " fill-rule="nonzero" fill="#797979" stroke="none" />
</svg>