<?xml version="1.0" encoding="utf-8"?>
<svg version="1.1" xmlns:xlink="http://www.w3.org/1999/xlink" width="12px" height="12px" viewBox="173 838  12 12" xmlns="http://www.w3.org/2000/svg">
  <path d="M 179 838  C 182.36 838  185 840.64  185 844  C 185 847.36  182.36 850  179 850  C 175.64 850  173 847.36  173 844  C 173 840.64  175.64 838  179 838  Z " fill-rule="nonzero" fill="#f0f0f0" stroke="none" />
  <path d="M 179 838.5  C 182.08 838.5  184.5 840.92  184.5 844  C 184.5 847.08  182.08 849.5  179 849.5  C 175.92 849.5  173.5 847.08  173.5 844  C 173.5 840.92  175.92 838.5  179 838.5  Z " stroke-width="1" stroke="#797979" fill="none" />
  <path d="M 179 847  C 177.32 847  176 845.68  176 844  C 176 842.32  177.32 841  179 841  C 180.68 841  182 842.32  182 844  C 182 845.68  180.68 847  179 847  " fill-rule="nonzero" fill="#797979" stroke="none" />
</svg>