<?xml version="1.0" encoding="utf-8"?>
<svg version="1.1" xmlns:xlink="http://www.w3.org/1999/xlink" width="12px" height="12px" viewBox="238 838  12 12" xmlns="http://www.w3.org/2000/svg">
  <path d="M 244 838  C 247.36 838  250 840.64  250 844  C 250 847.36  247.36 850  244 850  C 240.64 850  238 847.36  238 844  C 238 840.64  240.64 838  244 838  Z " fill-rule="nonzero" fill="#f0f0f0" stroke="none" />
  <path d="M 244 838.5  C 247.08 838.5  249.5 840.92  249.5 844  C 249.5 847.08  247.08 849.5  244 849.5  C 240.92 849.5  238.5 847.08  238.5 844  C 238.5 840.92  240.92 838.5  244 838.5  Z " stroke-width="1" stroke="#797979" fill="none" />
  <path d="M 244 847  C 242.32 847  241 845.68  241 844  C 241 842.32  242.32 841  244 841  C 245.68 841  247 842.32  247 844  C 247 845.68  245.68 847  244 847  " fill-rule="nonzero" fill="#797979" stroke="none" />
</svg>