<?xml version="1.0" encoding="utf-8"?>
<svg version="1.1" xmlns:xlink="http://www.w3.org/1999/xlink" width="12px" height="12px" viewBox="231 729  12 12" xmlns="http://www.w3.org/2000/svg">
  <path d="M 237 729  C 240.36 729  243 731.64  243 735  C 243 738.36  240.36 741  237 741  C 233.64 741  231 738.36  231 735  C 231 731.64  233.64 729  237 729  Z " fill-rule="nonzero" fill="#ffffff" stroke="none" />
  <path d="M 237 729.5  C 240.08 729.5  242.5 731.92  242.5 735  C 242.5 738.08  240.08 740.5  237 740.5  C 233.92 740.5  231.5 738.08  231.5 735  C 231.5 731.92  233.92 729.5  237 729.5  Z " stroke-width="1" stroke="#797979" fill="none" />
  <path d="M 237 738  C 235.32 738  234 736.68  234 735  C 234 733.32  235.32 732  237 732  C 238.68 732  240 733.32  240 735  C 240 736.68  238.68 738  237 738  " fill-rule="nonzero" fill="#797979" stroke="none" />
</svg>