<?xml version="1.0" encoding="utf-8"?>
<svg version="1.1" xmlns:xlink="http://www.w3.org/1999/xlink" width="12px" height="12px" viewBox="221 962  12 12" xmlns="http://www.w3.org/2000/svg">
  <path d="M 227 962  C 230.36 962  233 964.64  233 968  C 233 971.36  230.36 974  227 974  C 223.64 974  221 971.36  221 968  C 221 964.64  223.64 962  227 962  Z " fill-rule="nonzero" fill="#f0f0f0" stroke="none" />
  <path d="M 227 962.5  C 230.08 962.5  232.5 964.92  232.5 968  C 232.5 971.08  230.08 973.5  227 973.5  C 223.92 973.5  221.5 971.08  221.5 968  C 221.5 964.92  223.92 962.5  227 962.5  Z " stroke-width="1" stroke="#797979" fill="none" />
  <path d="M 227 971  C 225.32 971  224 969.68  224 968  C 224 966.32  225.32 965  227 965  C 228.68 965  230 966.32  230 968  C 230 969.68  228.68 971  227 971  " fill-rule="nonzero" fill="#797979" stroke="none" />
</svg>