<?xml version="1.0" encoding="utf-8"?>
<svg version="1.1" xmlns:xlink="http://www.w3.org/1999/xlink" width="12px" height="12px" viewBox="4520 1297  12 12" xmlns="http://www.w3.org/2000/svg">
  <path d="M 4526 1297  C 4529.36 1297  4532 1299.64  4532 1303  C 4532 1306.36  4529.36 1309  4526 1309  C 4522.64 1309  4520 1306.36  4520 1303  C 4520 1299.64  4522.64 1297  4526 1297  Z " fill-rule="nonzero" fill="#ffffff" stroke="none" />
  <path d="M 4526 1297.5  C 4529.08 1297.5  4531.5 1299.92  4531.5 1303  C 4531.5 1306.08  4529.08 1308.5  4526 1308.5  C 4522.92 1308.5  4520.5 1306.08  4520.5 1303  C 4520.5 1299.92  4522.92 1297.5  4526 1297.5  Z " stroke-width="1" stroke="#797979" fill="none" />
  <path d="M 4526 1306  C 4524.32 1306  4523 1304.68  4523 1303  C 4523 1301.32  4524.32 1300  4526 1300  C 4527.68 1300  4529 1301.32  4529 1303  C 4529 1304.68  4527.68 1306  4526 1306  " fill-rule="nonzero" fill="#797979" stroke="none" />
</svg>