<?xml version="1.0" encoding="utf-8"?>
<svg version="1.1" xmlns:xlink="http://www.w3.org/1999/xlink" width="12px" height="12px" viewBox="425 69  12 12" xmlns="http://www.w3.org/2000/svg">
  <path d="M 431 69  C 434.36 69  437 71.64  437 75  C 437 78.36  434.36 81  431 81  C 427.64 81  425 78.36  425 75  C 425 71.64  427.64 69  431 69  Z " fill-rule="nonzero" fill="#f0f0f0" stroke="none" />
  <path d="M 431 69.5  C 434.08 69.5  436.5 71.92  436.5 75  C 436.5 78.08  434.08 80.5  431 80.5  C 427.92 80.5  425.5 78.08  425.5 75  C 425.5 71.92  427.92 69.5  431 69.5  Z " stroke-width="1" stroke="#797979" fill="none" />
  <path d="M 431 78  C 429.32 78  428 76.68  428 75  C 428 73.32  429.32 72  431 72  C 432.68 72  434 73.32  434 75  C 434 76.68  432.68 78  431 78  " fill-rule="nonzero" fill="#797979" stroke="none" />
</svg>