<?xml version="1.0" encoding="utf-8"?>
<svg version="1.1" xmlns:xlink="http://www.w3.org/1999/xlink" width="12px" height="12px" viewBox="121 2361  12 12" xmlns="http://www.w3.org/2000/svg">
  <path d="M 127 2361  C 130.36 2361  133 2363.64  133 2367  C 133 2370.36  130.36 2373  127 2373  C 123.64 2373  121 2370.36  121 2367  C 121 2363.64  123.64 2361  127 2361  Z " fill-rule="nonzero" fill="#f0f0f0" stroke="none" />
  <path d="M 127 2361.5  C 130.08 2361.5  132.5 2363.92  132.5 2367  C 132.5 2370.08  130.08 2372.5  127 2372.5  C 123.92 2372.5  121.5 2370.08  121.5 2367  C 121.5 2363.92  123.92 2361.5  127 2361.5  Z " stroke-width="1" stroke="#797979" fill="none" />
  <path d="M 127 2370  C 125.32 2370  124 2368.68  124 2367  C 124 2365.32  125.32 2364  127 2364  C 128.68 2364  130 2365.32  130 2367  C 130 2368.68  128.68 2370  127 2370  " fill-rule="nonzero" fill="#797979" stroke="none" />
</svg>