<?xml version="1.0" encoding="utf-8"?>
<svg version="1.1" xmlns:xlink="http://www.w3.org/1999/xlink" width="12px" height="12px" viewBox="120 538  12 12" xmlns="http://www.w3.org/2000/svg">
  <path d="M 126 538  C 129.36 538  132 540.64  132 544  C 132 547.36  129.36 550  126 550  C 122.64 550  120 547.36  120 544  C 120 540.64  122.64 538  126 538  Z " fill-rule="nonzero" fill="#f0f0f0" stroke="none" />
  <path d="M 126 538.5  C 129.08 538.5  131.5 540.92  131.5 544  C 131.5 547.08  129.08 549.5  126 549.5  C 122.92 549.5  120.5 547.08  120.5 544  C 120.5 540.92  122.92 538.5  126 538.5  Z " stroke-width="1" stroke="#797979" fill="none" />
  <path d="M 126 547  C 124.32 547  123 545.68  123 544  C 123 542.32  124.32 541  126 541  C 127.68 541  129 542.32  129 544  C 129 545.68  127.68 547  126 547  " fill-rule="nonzero" fill="#797979" stroke="none" />
</svg>