<?xml version="1.0" encoding="utf-8"?>
<svg version="1.1" xmlns:xlink="http://www.w3.org/1999/xlink" width="12px" height="12px" viewBox="120 641  12 12" xmlns="http://www.w3.org/2000/svg">
  <path d="M 126 641  C 129.36 641  132 643.64  132 647  C 132 650.36  129.36 653  126 653  C 122.64 653  120 650.36  120 647  C 120 643.64  122.64 641  126 641  Z " fill-rule="nonzero" fill="#ffffff" stroke="none" />
  <path d="M 126 641.5  C 129.08 641.5  131.5 643.92  131.5 647  C 131.5 650.08  129.08 652.5  126 652.5  C 122.92 652.5  120.5 650.08  120.5 647  C 120.5 643.92  122.92 641.5  126 641.5  Z " stroke-width="1" stroke="#797979" fill="none" />
  <path d="M 126 650  C 124.32 650  123 648.68  123 647  C 123 645.32  124.32 644  126 644  C 127.68 644  129 645.32  129 647  C 129 648.68  127.68 650  126 650  " fill-rule="nonzero" fill="#797979" stroke="none" />
</svg>