<?xml version="1.0" encoding="utf-8"?>
<svg version="1.1" xmlns:xlink="http://www.w3.org/1999/xlink" width="531px" height="104px" xmlns="http://www.w3.org/2000/svg">
  <g transform="matrix(1 0 0 1 -58 -331 )">
    <path d="M 59 335  A 3 3 0 0 1 62 332 L 585 332  A 3 3 0 0 1 588 335 L 588 431  A 3 3 0 0 1 585 434 L 62 434  A 3 3 0 0 1 59 431 L 59 335  Z " fill-rule="nonzero" fill="#000000" stroke="none" fill-opacity="0.0196078431372549" />
    <path d="M 58.5 335  A 3.5 3.5 0 0 1 62 331.5 L 585 331.5  A 3.5 3.5 0 0 1 588.5 335 L 588.5 431  A 3.5 3.5 0 0 1 585 434.5 L 62 434.5  A 3.5 3.5 0 0 1 58.5 431 L 58.5 335  Z " stroke-width="1" stroke-dasharray="9,4" stroke="#d9d9d9" fill="none" stroke-dashoffset="0.5" />
  </g>
</svg>