<?xml version="1.0" encoding="utf-8"?>
<svg version="1.1" xmlns:xlink="http://www.w3.org/1999/xlink" width="530px" height="104px" xmlns="http://www.w3.org/2000/svg">
  <g transform="matrix(1 0 0 1 -58 -450 )">
    <path d="M 59 454  A 3 3 0 0 1 62 451 L 584 451  A 3 3 0 0 1 587 454 L 587 550  A 3 3 0 0 1 584 553 L 62 553  A 3 3 0 0 1 59 550 L 59 454  Z " fill-rule="nonzero" fill="#000000" stroke="none" fill-opacity="0.0196078431372549" />
    <path d="M 58.5 454  A 3.5 3.5 0 0 1 62 450.5 L 584 450.5  A 3.5 3.5 0 0 1 587.5 454 L 587.5 550  A 3.5 3.5 0 0 1 584 553.5 L 62 553.5  A 3.5 3.5 0 0 1 58.5 550 L 58.5 454  Z " stroke-width="1" stroke-dasharray="9,4" stroke="#d9d9d9" fill="none" stroke-dashoffset="0.5" />
  </g>
</svg>