<?xml version="1.0" encoding="utf-8"?>
<svg version="1.1" xmlns:xlink="http://www.w3.org/1999/xlink" width="20px" height="20px" xmlns="http://www.w3.org/2000/svg">
  <g transform="matrix(1 0 0 1 -134 -469 )">
    <path d="M 144 469  C 149.6 469  154 473.4  154 479  C 154 484.6  149.6 489  144 489  C 138.4 489  134 484.6  134 479  C 134 473.4  138.4 469  144 469  Z " fill-rule="nonzero" fill="#d9001b" stroke="none" />
    <path d="M 144 469.5  C 149.32 469.5  153.5 473.68  153.5 479  C 153.5 484.32  149.32 488.5  144 488.5  C 138.68 488.5  134.5 484.32  134.5 479  C 134.5 473.68  138.68 469.5  144 469.5  Z " stroke-width="1" stroke="#797979" fill="none" />
  </g>
</svg>