<?xml version="1.0" encoding="utf-8"?>
<svg version="1.1" xmlns:xlink="http://www.w3.org/1999/xlink" width="73px" height="60px" xmlns="http://www.w3.org/2000/svg">
  <defs>
    <radialGradient cx="38.5470532319392" cy="25.0950570342206" r="36.0377491212527" gradientTransform="matrix(-1 5.73014374137196E-16 -5.55899864422342E-16 -0.970132494947226 77.0941064638784 49.4405873256719 )" gradientUnits="userSpaceOnUse" id="RadialGradient171">
      <stop id="Stop172" stop-color="#ffc8c8" offset="0" />
      <stop id="Stop173" stop-color="#fdf3f3" offset="1" />
    </radialGradient>
  </defs>
  <g transform="matrix(1 0 0 1 -2190 -502 )">
    <path d="M 1 26.6744730679157  C 1 22.2753424703064  0.51157990369785 17.454876753149  1 13.7939110070258  C 1.39481667617929 10.834552171397  2.42430381976612 8.45332596270032  3.74238875878223 6.53395784543324  C 4.81402210817083 4.97346745264264  6.01381332446948 3.70492280359434  7.72365339578454 2.7868852459016  C 14.5565246310505 -0.881780921237748  27.8533219652712 0.232558139534888  39.4069767441861 0.232558139534888  C 51.9605766225818 0.232558139534888  64.4346539008216 -1.27796232153827  70.2209302325581 4.59302325581393  C 71.9389553579289 6.33619972273419  72.2558139534884 8.95348837209303  72.546511627907 12.1511627906977  C 72.8372093023256 15.3488372093024  72.546511627907 26.6716342316111  72.546511627907 32.7906976744186  C 72.546511627907 43.5820065961633  68.7835479321593 47.751040203485  63.6955503512881 51.7330210772834  C 58.2221650046573 56.0166150489379  51.0156678224414 59.6955503512881  39.4069767441861 59.6955503512881  C 26.9564643144951 59.6955503512881  20.8651140580972 56.57038390513  13.5784543325527 50.0936768149883  C 9.73619572176466 46.6785065553685  7.82730403282386 45.2742707383254  5.38173302107725 40.2576112412178  C 4.12104591334958 37.6715330118449  1 30.0588004148098  1 26.6744730679157  Z " fill-rule="nonzero" fill="url(#RadialGradient171)" stroke="none" transform="matrix(1 0 0 1 2190 502 )" />
  </g>
</svg>