<?xml version="1.0" encoding="utf-8"?>
<svg version="1.1" xmlns:xlink="http://www.w3.org/1999/xlink" width="11px" height="13px" xmlns="http://www.w3.org/2000/svg">
  <defs>
    <radialGradient cx="5.80846007604563" cy="5.5130120389269" r="7.49921846973222" gradientTransform="matrix(2.60559487795539E-15 1 -0.71688034188034 1.86789974691032E-15 9.76063003130196 -0.295448037118735 )" gradientUnits="userSpaceOnUse" id="RadialGradient7">
      <stop id="Stop8" stop-color="#cad3f2" offset="0" />
      <stop id="Stop9" stop-color="#8ea4ec" offset="1" />
    </radialGradient>
  </defs>
  <g transform="matrix(1 0 0 1 -817 -277 )">
    <path d="M 7.59114583333333 0.493303571428572  L 10.5130208333333 3.453125  C 10.5798611111111 3.52083333333333  10.6467013888889 3.6078869047619  10.7135416666667 3.71428571428571  L 7.33333333333333 3.71428571428571  L 7.33333333333333 0.290178571428572  C 7.43836805555556 0.357886904761904  7.52430555555556 0.425595238095237  7.59114583333333 0.493303571428572  Z M 6.6171875 4.43973214285714  C 6.75086805555556 4.57514880952381  6.91319444444444 4.64285714285714  7.10416666666667 4.64285714285714  L 11 4.64285714285714  L 11 12.3035714285714  C 11 12.4970238095238  10.9331597222222 12.6614583333333  10.7994791666667 12.796875  C 10.6657986111111 12.9322916666667  10.5034722222222 13  10.3125 13  L 0.6875 13  C 0.496527777777778 13  0.334201388888889 12.9322916666667  0.200520833333333 12.796875  C 0.0668402777777778 12.6614583333333  0 12.4970238095238  0 12.3035714285714  L 0 0.696428571428572  C 0 0.50297619047619  0.0668402777777778 0.338541666666666  0.200520833333333 0.203125  C 0.334201388888889 0.0677083333333338  0.496527777777778 0  0.6875 0  L 6.41666666666667 0  L 6.41666666666667 3.94642857142857  C 6.41666666666667 4.13988095238095  6.48350694444444 4.30431547619048  6.6171875 4.43973214285714  Z M 8.185546875 10.1489955357143  C 8.228515625 10.10546875  8.25 10.0498511904762  8.25 9.98214285714286  L 8.25 9.51785714285714  C 8.25 9.45014880952381  8.228515625 9.39453125  8.185546875 9.35100446428571  C 8.142578125 9.30747767857143  8.08767361111111 9.28571428571429  8.02083333333333 9.28571428571429  L 2.97916666666667 9.28571428571429  C 2.91232638888889 9.28571428571429  2.857421875 9.30747767857143  2.814453125 9.35100446428571  C 2.771484375 9.39453125  2.75 9.45014880952381  2.75 9.51785714285714  L 2.75 9.98214285714286  C 2.75 10.0498511904762  2.771484375 10.10546875  2.814453125 10.1489955357143  C 2.857421875 10.1925223214286  2.91232638888889 10.2142857142857  2.97916666666667 10.2142857142857  L 8.02083333333333 10.2142857142857  C 8.08767361111111 10.2142857142857  8.142578125 10.1925223214286  8.185546875 10.1489955357143  Z M 8.185546875 8.29185267857143  C 8.228515625 8.24832589285714  8.25 8.19270833333333  8.25 8.125  L 8.25 7.66071428571429  C 8.25 7.59300595238095  8.228515625 7.53738839285714  8.185546875 7.49386160714286  C 8.142578125 7.45033482142857  8.08767361111111 7.42857142857143  8.02083333333333 7.42857142857143  L 2.97916666666667 7.42857142857143  C 2.91232638888889 7.42857142857143  2.857421875 7.45033482142857  2.814453125 7.49386160714286  C 2.771484375 7.53738839285714  2.75 7.59300595238095  2.75 7.66071428571429  L 2.75 8.125  C 2.75 8.19270833333333  2.771484375 8.24832589285714  2.814453125 8.29185267857143  C 2.857421875 8.33537946428571  2.91232638888889 8.35714285714286  2.97916666666667 8.35714285714286  L 8.02083333333333 8.35714285714286  C 8.08767361111111 8.35714285714286  8.142578125 8.33537946428571  8.185546875 8.29185267857143  Z M 8.185546875 6.43470982142857  C 8.228515625 6.39118303571429  8.25 6.33556547619048  8.25 6.26785714285714  L 8.25 5.80357142857143  C 8.25 5.73586309523809  8.228515625 5.68024553571429  8.185546875 5.63671875  C 8.142578125 5.59319196428571  8.08767361111111 5.57142857142857  8.02083333333333 5.57142857142857  L 2.97916666666667 5.57142857142857  C 2.91232638888889 5.57142857142857  2.857421875 5.59319196428571  2.814453125 5.63671875  C 2.771484375 5.68024553571429  2.75 5.73586309523809  2.75 5.80357142857143  L 2.75 6.26785714285714  C 2.75 6.33556547619048  2.771484375 6.39118303571429  2.814453125 6.43470982142857  C 2.857421875 6.47823660714286  2.91232638888889 6.5  2.97916666666667 6.5  L 8.02083333333333 6.5  C 8.08767361111111 6.5  8.142578125 6.47823660714286  8.185546875 6.43470982142857  Z " fill-rule="nonzero" fill="url(#RadialGradient7)" stroke="none" transform="matrix(1 0 0 1 817 277 )" />
  </g>
</svg>