<?xml version="1.0" encoding="utf-8"?>
<svg version="1.1" xmlns:xlink="http://www.w3.org/1999/xlink" width="18px" height="33px" xmlns="http://www.w3.org/2000/svg">
  <g transform="matrix(1 0 0 1 -2015 -427 )">
    <path d="M 17.0779510022272 8.38882211538461  C 17.3318485523385 8.38882211538461  17.5590200445434 8.48798076923077  17.7594654788419 8.68629807692308  C 18 8.95072115384615  18.0467706013363 9.24158653846154  17.8997772828508 9.55889423076923  L 7.07572383073497 32.5042067307692  C 6.90200445434299 32.8347355769231  6.62138084632517 33  6.23385300668151 33  C 6.1804008908686 33  6.08685968819599 32.9867788461538  5.9532293986637 32.9603365384615  C 5.7260579064588 32.8942307692308  5.55567928730512 32.7686298076923  5.44209354120267 32.5835336538462  C 5.32850779510022 32.3984375  5.29844097995546 32.2001201923077  5.35189309576837 31.9885817307692  L 9.30066815144766 15.9645432692308  L 1.16258351893096 17.9675480769231  C 1.10913140311804 17.9807692307692  1.02895322939866 17.9873798076923  0.922048997772828 17.9873798076923  C 0.681514476614699 17.9873798076923  0.474387527839644 17.9146634615385  0.300668151447662 17.7692307692308  C 0.0601336302895323 17.5709134615385  -0.0267260579064588 17.3131009615385  0.0400890868596882 16.9957932692308  L 4.06904231625835 0.634615384615386  C 4.12249443207127 0.449519230769229  4.2293986636971 0.297475961538463  4.38975501113586 0.178485576923077  C 4.55011135857461 0.0594951923076912  4.73719376391982 0  4.95100222717149 0  L 11.5256124721604 0  C 11.7795100222717 0  11.9933184855234 0.0826322115384571  12.1670378619154 0.247896634615386  C 12.3407572383074 0.413161057692308  12.4276169265033 0.608173076923075  12.4276169265033 0.832932692307691  C 12.4276169265033 0.938701923076922  12.3942093541203 1.05769230769231  12.3273942093541 1.18990384615385  L 8.89977728285078 10.3719951923077  L 16.837416481069 8.42848557692308  C 16.9443207126949 8.40204326923077  17.0244988864143 8.38882211538461  17.0779510022272 8.38882211538461  Z " fill-rule="nonzero" fill="#f2e197" stroke="none" transform="matrix(1 0 0 1 2015 427 )" />
  </g>
</svg>