<?xml version="1.0" encoding="utf-8"?>
<svg version="1.1" xmlns:xlink="http://www.w3.org/1999/xlink" width="80px" height="35px" xmlns="http://www.w3.org/2000/svg">
  <g transform="matrix(1 0 0 1 -995 -267 )">
    <path d="M 995.5 272  A 4.5 4.5 0 0 1 1000 267.5 L 1070 267.5  A 4.5 4.5 0 0 1 1074.5 272 L 1074.5 297  A 4.5 4.5 0 0 1 1070 301.5 L 1000 301.5  A 4.5 4.5 0 0 1 995.5 297 L 995.5 272  Z " fill-rule="nonzero" fill="#f9f9f9" stroke="none" fill-opacity="0" />
    <path d="M 995.5 272  A 4.5 4.5 0 0 1 1000 267.5 L 1070 267.5  A 4.5 4.5 0 0 1 1074.5 272 L 1074.5 297  A 4.5 4.5 0 0 1 1070 301.5 L 1000 301.5  A 4.5 4.5 0 0 1 995.5 297 L 995.5 272  Z " stroke-width="1" stroke="#e4e4e4" fill="none" />
  </g>
</svg>