<?xml version="1.0" encoding="utf-8"?>
<svg version="1.1" xmlns:xlink="http://www.w3.org/1999/xlink" width="236px" height="36px" xmlns="http://www.w3.org/2000/svg">
  <g transform="matrix(1 0 0 1 -372 0 )">
    <path d="M 594.068481616806 0.5  C 594.068481616806 0.5  596.944977093829 0.719393722823757  596.944977093829 0.719393722823757  C 596.944977093829 0.719393722823757  607.473952347048 18  607.473952347048 18  C 607.473952347048 18  596.944977093829 35.2806062771762  596.944977093829 35.2806062771762  C 596.944977093829 35.2806062771762  594.068481616806 35.5  594.068481616806 35.5  C 594.068481616806 35.5  372.5 35.5  372.5 35.5  C 372.5 35.5  372.5 0.499999999999998  372.5 0.499999999999998  C 372.5 0.499999999999998  594.068481616806 0.5  594.068481616806 0.5  Z " fill-rule="nonzero" fill="#0079fe" stroke="none" />
    <path d="M 594.068481616806 0.5  C 594.068481616806 0.5  596.944977093829 0.719393722823757  596.944977093829 0.719393722823757  C 596.944977093829 0.719393722823757  607.473952347048 18  607.473952347048 18  C 607.473952347048 18  596.944977093829 35.2806062771762  596.944977093829 35.2806062771762  C 596.944977093829 35.2806062771762  594.068481616806 35.5  594.068481616806 35.5  C 594.068481616806 35.5  372.5 35.5  372.5 35.5  C 372.5 35.5  372.5 0.499999999999998  372.5 0.499999999999998  C 372.5 0.499999999999998  594.068481616806 0.5  594.068481616806 0.5  Z " stroke-width="1" stroke="#0079fe" fill="none" />
  </g>
</svg>