<?xml version="1.0" encoding="utf-8"?>
<svg version="1.1" xmlns:xlink="http://www.w3.org/1999/xlink" width="12px" height="12px" viewBox="650 67  12 12" xmlns="http://www.w3.org/2000/svg">
  <path d="M 656 67  C 659.36 67  662 69.64  662 73  C 662 76.36  659.36 79  656 79  C 652.64 79  650 76.36  650 73  C 650 69.64  652.64 67  656 67  Z " fill-rule="nonzero" fill="#f0f0f0" stroke="none" />
  <path d="M 656 67.5  C 659.08 67.5  661.5 69.92  661.5 73  C 661.5 76.08  659.08 78.5  656 78.5  C 652.92 78.5  650.5 76.08  650.5 73  C 650.5 69.92  652.92 67.5  656 67.5  Z " stroke-width="1" stroke="#797979" fill="none" />
  <path d="M 656 76  C 654.32 76  653 74.68  653 73  C 653 71.32  654.32 70  656 70  C 657.68 70  659 71.32  659 73  C 659 74.68  657.68 76  656 76  " fill-rule="nonzero" fill="#797979" stroke="none" />
</svg>