<?xml version="1.0" encoding="utf-8"?>
<svg version="1.1" xmlns:xlink="http://www.w3.org/1999/xlink" width="12px" height="12px" viewBox="574 67  12 12" xmlns="http://www.w3.org/2000/svg">
  <path d="M 580 67  C 583.36 67  586 69.64  586 73  C 586 76.36  583.36 79  580 79  C 576.64 79  574 76.36  574 73  C 574 69.64  576.64 67  580 67  Z " fill-rule="nonzero" fill="#f0f0f0" stroke="none" />
  <path d="M 580 67.5  C 583.08 67.5  585.5 69.92  585.5 73  C 585.5 76.08  583.08 78.5  580 78.5  C 576.92 78.5  574.5 76.08  574.5 73  C 574.5 69.92  576.92 67.5  580 67.5  Z " stroke-width="1" stroke="#797979" fill="none" />
  <path d="M 580 76  C 578.32 76  577 74.68  577 73  C 577 71.32  578.32 70  580 70  C 581.68 70  583 71.32  583 73  C 583 74.68  581.68 76  580 76  " fill-rule="nonzero" fill="#797979" stroke="none" />
</svg>