<?xml version="1.0" encoding="utf-8"?>
<svg version="1.1" xmlns:xlink="http://www.w3.org/1999/xlink" width="12px" height="12px" viewBox="-558 193  12 12" xmlns="http://www.w3.org/2000/svg">
  <path d="M -552 193  C -548.64 193  -546 195.64  -546 199  C -546 202.36  -548.64 205  -552 205  C -555.36 205  -558 202.36  -558 199  C -558 195.64  -555.36 193  -552 193  Z " fill-rule="nonzero" fill="#f0f0f0" stroke="none" />
  <path d="M -552 193.5  C -548.92 193.5  -546.5 195.92  -546.5 199  C -546.5 202.08  -548.92 204.5  -552 204.5  C -555.08 204.5  -557.5 202.08  -557.5 199  C -557.5 195.92  -555.08 193.5  -552 193.5  Z " stroke-width="1" stroke="#797979" fill="none" />
  <path d="M -552 202  C -553.68 202  -555 200.68  -555 199  C -555 197.32  -553.68 196  -552 196  C -550.32 196  -549 197.32  -549 199  C -549 200.68  -550.32 202  -552 202  " fill-rule="nonzero" fill="#797979" stroke="none" />
</svg>