<?xml version="1.0" encoding="utf-8"?>
<svg version="1.1" xmlns:xlink="http://www.w3.org/1999/xlink" width="102px" height="96px" xmlns="http://www.w3.org/2000/svg">
  <g transform="matrix(1 0 0 1 -67 -1677 )">
    <path d="M 68 1679  A 1 1 0 0 1 69 1678 L 167 1678  A 1 1 0 0 1 168 1679 L 168 1771  A 1 1 0 0 1 167 1772 L 69 1772  A 1 1 0 0 1 68 1771 L 68 1679  Z " fill-rule="nonzero" fill="#ffffff" stroke="none" />
    <path d="M 67.5 1679  A 1.5 1.5 0 0 1 69 1677.5 L 167 1677.5  A 1.5 1.5 0 0 1 168.5 1679 L 168.5 1771  A 1.5 1.5 0 0 1 167 1772.5 L 69 1772.5  A 1.5 1.5 0 0 1 67.5 1771 L 67.5 1679  Z " stroke-width="1" stroke-dasharray="3,1" stroke="#999999" fill="none" stroke-dashoffset="0.5" />
  </g>
</svg>