<?xml version="1.0" encoding="utf-8"?>
<svg version="1.1" xmlns:xlink="http://www.w3.org/1999/xlink" width="70px" height="25px" xmlns="http://www.w3.org/2000/svg">
  <g transform="matrix(1 0 0 1 -82 -489 )">
    <path d="M 83 497  A 7 7 0 0 1 90 490 L 144 490  A 7 7 0 0 1 151 497 L 151 506  A 7 7 0 0 1 144 513 L 90 513  A 7 7 0 0 1 83 506 L 83 497  Z " fill-rule="nonzero" fill="#81d3f8" stroke="none" fill-opacity="0.168627450980392" />
    <path d="M 82.5 497  A 7.5 7.5 0 0 1 90 489.5 L 144 489.5  A 7.5 7.5 0 0 1 151.5 497 L 151.5 506  A 7.5 7.5 0 0 1 144 513.5 L 90 513.5  A 7.5 7.5 0 0 1 82.5 506 L 82.5 497  Z " stroke-width="1" stroke="#0079fe" fill="none" stroke-opacity="0.654901960784314" />
  </g>
</svg>