<?xml version="1.0" encoding="utf-8"?>
<svg version="1.1" xmlns:xlink="http://www.w3.org/1999/xlink" width="331px" height="104px" xmlns="http://www.w3.org/2000/svg">
  <g transform="matrix(1 0 0 1 -66 -1387 )">
    <path d="M 67 1391  A 3 3 0 0 1 70 1388 L 393 1388  A 3 3 0 0 1 396 1391 L 396 1487  A 3 3 0 0 1 393 1490 L 70 1490  A 3 3 0 0 1 67 1487 L 67 1391  Z " fill-rule="nonzero" fill="#000000" stroke="none" fill-opacity="0.0196078431372549" />
    <path d="M 66.5 1391  A 3.5 3.5 0 0 1 70 1387.5 L 393 1387.5  A 3.5 3.5 0 0 1 396.5 1391 L 396.5 1487  A 3.5 3.5 0 0 1 393 1490.5 L 70 1490.5  A 3.5 3.5 0 0 1 66.5 1487 L 66.5 1391  Z " stroke-width="1" stroke-dasharray="9,4" stroke="#d9d9d9" fill="none" stroke-dashoffset="0.5" />
  </g>
</svg>