<?xml version="1.0" encoding="utf-8"?>
<svg version="1.1" xmlns:xlink="http://www.w3.org/1999/xlink" width="331px" height="104px" xmlns="http://www.w3.org/2000/svg">
  <g transform="matrix(1 0 0 1 -68 -1560 )">
    <path d="M 69 1564  A 3 3 0 0 1 72 1561 L 395 1561  A 3 3 0 0 1 398 1564 L 398 1660  A 3 3 0 0 1 395 1663 L 72 1663  A 3 3 0 0 1 69 1660 L 69 1564  Z " fill-rule="nonzero" fill="#000000" stroke="none" fill-opacity="0.0196078431372549" />
    <path d="M 68.5 1564  A 3.5 3.5 0 0 1 72 1560.5 L 395 1560.5  A 3.5 3.5 0 0 1 398.5 1564 L 398.5 1660  A 3.5 3.5 0 0 1 395 1663.5 L 72 1663.5  A 3.5 3.5 0 0 1 68.5 1660 L 68.5 1564  Z " stroke-width="1" stroke-dasharray="9,4" stroke="#d9d9d9" fill="none" stroke-dashoffset="0.5" />
  </g>
</svg>