<?xml version="1.0" encoding="utf-8"?>
<svg version="1.1" xmlns:xlink="http://www.w3.org/1999/xlink" width="12px" height="12px" viewBox="248 1908  12 12" xmlns="http://www.w3.org/2000/svg">
  <path d="M 254 1908  C 257.36 1908  260 1910.64  260 1914  C 260 1917.36  257.36 1920  254 1920  C 250.64 1920  248 1917.36  248 1914  C 248 1910.64  250.64 1908  254 1908  Z " fill-rule="nonzero" fill="#ffffff" stroke="none" />
  <path d="M 254 1908.5  C 257.08 1908.5  259.5 1910.92  259.5 1914  C 259.5 1917.08  257.08 1919.5  254 1919.5  C 250.92 1919.5  248.5 1917.08  248.5 1914  C 248.5 1910.92  250.92 1908.5  254 1908.5  Z " stroke-width="1" stroke="#797979" fill="none" />
  <path d="M 254 1917  C 252.32 1917  251 1915.68  251 1914  C 251 1912.32  252.32 1911  254 1911  C 255.68 1911  257 1912.32  257 1914  C 257 1915.68  255.68 1917  254 1917  " fill-rule="nonzero" fill="#797979" stroke="none" />
</svg>