<?xml version="1.0" encoding="utf-8"?>
<svg version="1.1" xmlns:xlink="http://www.w3.org/1999/xlink" width="12px" height="12px" viewBox="28 428  12 12" xmlns="http://www.w3.org/2000/svg">
  <path d="M 34 428  C 37.36 428  40 430.64  40 434  C 40 437.36  37.36 440  34 440  C 30.64 440  28 437.36  28 434  C 28 430.64  30.64 428  34 428  Z " fill-rule="nonzero" fill="#ffffff" stroke="none" />
  <path d="M 34 428.5  C 37.08 428.5  39.5 430.92  39.5 434  C 39.5 437.08  37.08 439.5  34 439.5  C 30.92 439.5  28.5 437.08  28.5 434  C 28.5 430.92  30.92 428.5  34 428.5  Z " stroke-width="1" stroke="#797979" fill="none" />
  <path d="M 34 437  C 32.32 437  31 435.68  31 434  C 31 432.32  32.32 431  34 431  C 35.68 431  37 432.32  37 434  C 37 435.68  35.68 437  34 437  " fill-rule="nonzero" fill="#797979" stroke="none" />
</svg>