<?xml version="1.0" encoding="utf-8"?>
<svg version="1.1" xmlns:xlink="http://www.w3.org/1999/xlink" width="12px" height="12px" viewBox="28 325  12 12" xmlns="http://www.w3.org/2000/svg">
  <path d="M 34 325  C 37.36 325  40 327.64  40 331  C 40 334.36  37.36 337  34 337  C 30.64 337  28 334.36  28 331  C 28 327.64  30.64 325  34 325  Z " fill-rule="nonzero" fill="#ffffff" stroke="none" />
  <path d="M 34 325.5  C 37.08 325.5  39.5 327.92  39.5 331  C 39.5 334.08  37.08 336.5  34 336.5  C 30.92 336.5  28.5 334.08  28.5 331  C 28.5 327.92  30.92 325.5  34 325.5  Z " stroke-width="1" stroke="#797979" fill="none" />
  <path d="M 34 334  C 32.32 334  31 332.68  31 331  C 31 329.32  32.32 328  34 328  C 35.68 328  37 329.32  37 331  C 37 332.68  35.68 334  34 334  " fill-rule="nonzero" fill="#797979" stroke="none" />
</svg>