<?xml version="1.0" encoding="utf-8"?>
<svg version="1.1" xmlns:xlink="http://www.w3.org/1999/xlink" width="70px" height="25px" xmlns="http://www.w3.org/2000/svg">
  <g transform="matrix(1 0 0 1 -319 -1147 )">
    <path d="M 320 1155  A 7 7 0 0 1 327 1148 L 381 1148  A 7 7 0 0 1 388 1155 L 388 1164  A 7 7 0 0 1 381 1171 L 327 1171  A 7 7 0 0 1 320 1164 L 320 1155  Z " fill-rule="nonzero" fill="#81d3f8" stroke="none" fill-opacity="0.168627450980392" />
    <path d="M 319.5 1155  A 7.5 7.5 0 0 1 327 1147.5 L 381 1147.5  A 7.5 7.5 0 0 1 388.5 1155 L 388.5 1164  A 7.5 7.5 0 0 1 381 1171.5 L 327 1171.5  A 7.5 7.5 0 0 1 319.5 1164 L 319.5 1155  Z " stroke-width="1" stroke="#0079fe" fill="none" stroke-opacity="0.654901960784314" />
  </g>
</svg>