<?xml version="1.0" encoding="utf-8"?>
<svg version="1.1" xmlns:xlink="http://www.w3.org/1999/xlink" width="80px" height="30px" xmlns="http://www.w3.org/2000/svg">
  <g transform="matrix(1 0 0 1 -1101 -940 )">
    <path d="M 1102 943  A 2 2 0 0 1 1104 941 L 1178 941  A 2 2 0 0 1 1180 943 L 1180 967  A 2 2 0 0 1 1178 969 L 1104 969  A 2 2 0 0 1 1102 967 L 1102 943  Z " fill-rule="nonzero" fill="#f0f7ff" stroke="none" />
    <path d="M 1101.5 943  A 2.5 2.5 0 0 1 1104 940.5 L 1178 940.5  A 2.5 2.5 0 0 1 1180.5 943 L 1180.5 967  A 2.5 2.5 0 0 1 1178 969.5 L 1104 969.5  A 2.5 2.5 0 0 1 1101.5 967 L 1101.5 943  Z " stroke-width="1" stroke="#7abbff" fill="none" stroke-opacity="0.996078431372549" />
  </g>
</svg>