<?xml version="1.0" encoding="utf-8"?>
<svg version="1.1" xmlns:xlink="http://www.w3.org/1999/xlink" width="12px" height="12px" viewBox="41 396  12 12" xmlns="http://www.w3.org/2000/svg">
  <path d="M 47 396  C 50.36 396  53 398.64  53 402  C 53 405.36  50.36 408  47 408  C 43.64 408  41 405.36  41 402  C 41 398.64  43.64 396  47 396  Z " fill-rule="nonzero" fill="#ffffff" stroke="none" />
  <path d="M 47 396.5  C 50.08 396.5  52.5 398.92  52.5 402  C 52.5 405.08  50.08 407.5  47 407.5  C 43.92 407.5  41.5 405.08  41.5 402  C 41.5 398.92  43.92 396.5  47 396.5  Z " stroke-width="1" stroke="#797979" fill="none" />
  <path d="M 47 405  C 45.32 405  44 403.68  44 402  C 44 400.32  45.32 399  47 399  C 48.68 399  50 400.32  50 402  C 50 403.68  48.68 405  47 405  " fill-rule="nonzero" fill="#797979" stroke="none" />
</svg>