<?xml version="1.0" encoding="utf-8"?>
<svg version="1.1" xmlns:xlink="http://www.w3.org/1999/xlink" width="519px" height="142px" xmlns="http://www.w3.org/2000/svg">
  <g transform="matrix(1 0 0 1 -77 -92 )">
    <path d="M 78 96  A 3 3 0 0 1 81 93 L 592 93  A 3 3 0 0 1 595 96 L 595 230  A 3 3 0 0 1 592 233 L 81 233  A 3 3 0 0 1 78 230 L 78 96  Z " fill-rule="nonzero" fill="#000000" stroke="none" fill-opacity="0.0196078431372549" />
    <path d="M 77.5 96  A 3.5 3.5 0 0 1 81 92.5 L 592 92.5  A 3.5 3.5 0 0 1 595.5 96 L 595.5 230  A 3.5 3.5 0 0 1 592 233.5 L 81 233.5  A 3.5 3.5 0 0 1 77.5 230 L 77.5 96  Z " stroke-width="1" stroke-dasharray="9,4" stroke="#d9d9d9" fill="none" stroke-dashoffset="0.5" />
  </g>
</svg>