<?xml version="1.0" encoding="utf-8"?>
<svg version="1.1" xmlns:xlink="http://www.w3.org/1999/xlink" width="104px" height="104px" xmlns="http://www.w3.org/2000/svg">
  <g transform="matrix(1 0 0 1 -104 -978 )">
    <path d="M 105 982  A 3 3 0 0 1 108 979 L 204 979  A 3 3 0 0 1 207 982 L 207 1078  A 3 3 0 0 1 204 1081 L 108 1081  A 3 3 0 0 1 105 1078 L 105 982  Z " fill-rule="nonzero" fill="#000000" stroke="none" fill-opacity="0.0196078431372549" />
    <path d="M 104.5 982  A 3.5 3.5 0 0 1 108 978.5 L 204 978.5  A 3.5 3.5 0 0 1 207.5 982 L 207.5 1078  A 3.5 3.5 0 0 1 204 1081.5 L 108 1081.5  A 3.5 3.5 0 0 1 104.5 1078 L 104.5 982  Z " stroke-width="1" stroke-dasharray="9,4" stroke="#d9d9d9" fill="none" stroke-dashoffset="0.5" />
  </g>
</svg>