<?xml version="1.0" encoding="utf-8"?>
<svg version="1.1" xmlns:xlink="http://www.w3.org/1999/xlink" width="542px" height="96px" xmlns="http://www.w3.org/2000/svg">
  <g transform="matrix(1 0 0 1 -52 -563 )">
    <path d="M 53 565  A 1 1 0 0 1 54 564 L 592 564  A 1 1 0 0 1 593 565 L 593 657  A 1 1 0 0 1 592 658 L 54 658  A 1 1 0 0 1 53 657 L 53 565  Z " fill-rule="nonzero" fill="#ffffff" stroke="none" />
    <path d="M 52.5 565  A 1.5 1.5 0 0 1 54 563.5 L 592 563.5  A 1.5 1.5 0 0 1 593.5 565 L 593.5 657  A 1.5 1.5 0 0 1 592 658.5 L 54 658.5  A 1.5 1.5 0 0 1 52.5 657 L 52.5 565  Z " stroke-width="1" stroke-dasharray="3,1" stroke="#999999" fill="none" stroke-dashoffset="0.5" />
  </g>
</svg>