<?xml version="1.0" encoding="utf-8"?>
<svg version="1.1" xmlns:xlink="http://www.w3.org/1999/xlink" width="18px" height="23px" xmlns="http://www.w3.org/2000/svg">
  <g transform="matrix(1 0 0 1 -482 -164 )">
    <path d="M 12.181640625 10.376953125  C 13.060546875 9.62825520833333  13.5 8.72482638888889  13.5 7.66666666666667  C 13.5 6.60850694444444  13.060546875 5.705078125  12.181640625 4.95638020833333  C 11.302734375 4.20768229166667  10.2421875 3.83333333333333  9 3.83333333333333  C 7.7578125 3.83333333333333  6.697265625 4.20768229166667  5.818359375 4.95638020833333  C 4.939453125 5.705078125  4.5 6.60850694444444  4.5 7.66666666666667  C 4.5 8.72482638888889  4.939453125 9.62825520833333  5.818359375 10.376953125  C 6.697265625 11.1256510416667  7.7578125 11.5  9 11.5  C 10.2421875 11.5  11.302734375 11.1256510416667  12.181640625 10.376953125  Z M 15.36328125 2.24609375  C 17.12109375 3.74348958333333  18 5.55034722222222  18 7.66666666666667  C 18 8.75477430555555  17.806640625 9.64822048611111  17.419921875 10.3470052083333  L 11.021484375 21.9368489583333  C 10.833984375 22.2662760416667  10.5556640625 22.5258246527778  10.1865234375 22.7154947916667  C 9.8173828125 22.9051649305556  9.421875 23  9 23  C 8.578125 23  8.1826171875 22.9051649305556  7.8134765625 22.7154947916667  C 7.4443359375 22.5258246527778  7.171875 22.2662760416667  6.99609375 21.9368489583333  L 0.580078125 10.3470052083333  C 0.193359375 9.64822048611111  0 8.75477430555555  0 7.66666666666667  C 0 5.55034722222222  0.87890625 3.74348958333333  2.63671875 2.24609375  C 4.39453125 0.748697916666668  6.515625 0  9 0  C 11.484375 0  13.60546875 0.748697916666668  15.36328125 2.24609375  Z " fill-rule="nonzero" fill="#000000" stroke="none" transform="matrix(1 0 0 1 482 164 )" />
  </g>
</svg>