<?xml version="1.0" encoding="utf-8"?>
<svg version="1.1" xmlns:xlink="http://www.w3.org/1999/xlink" width="839px" height="142px" xmlns="http://www.w3.org/2000/svg">
  <g transform="matrix(1 0 0 1 -2516 -1239 )">
    <path d="M 2517 1243  A 3 3 0 0 1 2520 1240 L 3351 1240  A 3 3 0 0 1 3354 1243 L 3354 1377  A 3 3 0 0 1 3351 1380 L 2520 1380  A 3 3 0 0 1 2517 1377 L 2517 1243  Z " fill-rule="nonzero" fill="#000000" stroke="none" fill-opacity="0.0196078431372549" />
    <path d="M 2516.5 1243  A 3.5 3.5 0 0 1 2520 1239.5 L 3351 1239.5  A 3.5 3.5 0 0 1 3354.5 1243 L 3354.5 1377  A 3.5 3.5 0 0 1 3351 1380.5 L 2520 1380.5  A 3.5 3.5 0 0 1 2516.5 1377 L 2516.5 1243  Z " stroke-width="1" stroke-dasharray="9,4" stroke="#d9d9d9" fill="none" stroke-dashoffset="0.5" />
  </g>
</svg>