<?xml version="1.0" encoding="utf-8"?>
<svg version="1.1" xmlns:xlink="http://www.w3.org/1999/xlink" width="12px" height="12px" viewBox="274 212  12 12" xmlns="http://www.w3.org/2000/svg">
  <path d="M 280 212  C 283.36 212  286 214.64  286 218  C 286 221.36  283.36 224  280 224  C 276.64 224  274 221.36  274 218  C 274 214.64  276.64 212  280 212  Z " fill-rule="nonzero" fill="#ffffff" stroke="none" />
  <path d="M 280 212.5  C 283.08 212.5  285.5 214.92  285.5 218  C 285.5 221.08  283.08 223.5  280 223.5  C 276.92 223.5  274.5 221.08  274.5 218  C 274.5 214.92  276.92 212.5  280 212.5  Z " stroke-width="1" stroke="#797979" fill="none" />
  <path d="M 280 221  C 278.32 221  277 219.68  277 218  C 277 216.32  278.32 215  280 215  C 281.68 215  283 216.32  283 218  C 283 219.68  281.68 221  280 221  " fill-rule="nonzero" fill="#797979" stroke="none" />
</svg>