<?xml version="1.0" encoding="utf-8"?>
<svg version="1.1" xmlns:xlink="http://www.w3.org/1999/xlink" width="12px" height="12px" viewBox="-221 250  12 12" xmlns="http://www.w3.org/2000/svg">
  <path d="M -215 250  C -211.64 250  -209 252.64  -209 256  C -209 259.36  -211.64 262  -215 262  C -218.36 262  -221 259.36  -221 256  C -221 252.64  -218.36 250  -215 250  Z " fill-rule="nonzero" fill="#f0f0f0" stroke="none" />
  <path d="M -215 250.5  C -211.92 250.5  -209.5 252.92  -209.5 256  C -209.5 259.08  -211.92 261.5  -215 261.5  C -218.08 261.5  -220.5 259.08  -220.5 256  C -220.5 252.92  -218.08 250.5  -215 250.5  Z " stroke-width="1" stroke="#797979" fill="none" />
  <path d="M -215 259  C -216.68 259  -218 257.68  -218 256  C -218 254.32  -216.68 253  -215 253  C -213.32 253  -212 254.32  -212 256  C -212 257.68  -213.32 259  -215 259  " fill-rule="nonzero" fill="#797979" stroke="none" />
</svg>