<?xml version="1.0" encoding="utf-8"?>
<svg version="1.1" xmlns:xlink="http://www.w3.org/1999/xlink" width="12px" height="12px" viewBox="-290 250  12 12" xmlns="http://www.w3.org/2000/svg">
  <path d="M -284 250  C -280.64 250  -278 252.64  -278 256  C -278 259.36  -280.64 262  -284 262  C -287.36 262  -290 259.36  -290 256  C -290 252.64  -287.36 250  -284 250  Z " fill-rule="nonzero" fill="#ffffff" stroke="none" />
  <path d="M -284 250.5  C -280.92 250.5  -278.5 252.92  -278.5 256  C -278.5 259.08  -280.92 261.5  -284 261.5  C -287.08 261.5  -289.5 259.08  -289.5 256  C -289.5 252.92  -287.08 250.5  -284 250.5  Z " stroke-width="1" stroke="#797979" fill="none" />
  <path d="M -284 259  C -285.68 259  -287 257.68  -287 256  C -287 254.32  -285.68 253  -284 253  C -282.32 253  -281 254.32  -281 256  C -281 257.68  -282.32 259  -284 259  " fill-rule="nonzero" fill="#797979" stroke="none" />
</svg>