<?xml version="1.0" encoding="utf-8"?>
<svg version="1.1" xmlns:xlink="http://www.w3.org/1999/xlink" width="12px" height="12px" viewBox="648 1751  12 12" xmlns="http://www.w3.org/2000/svg">
  <path d="M 654 1751  C 657.36 1751  660 1753.64  660 1757  C 660 1760.36  657.36 1763  654 1763  C 650.64 1763  648 1760.36  648 1757  C 648 1753.64  650.64 1751  654 1751  Z " fill-rule="nonzero" fill="#f0f0f0" stroke="none" />
  <path d="M 654 1751.5  C 657.08 1751.5  659.5 1753.92  659.5 1757  C 659.5 1760.08  657.08 1762.5  654 1762.5  C 650.92 1762.5  648.5 1760.08  648.5 1757  C 648.5 1753.92  650.92 1751.5  654 1751.5  Z " stroke-width="1" stroke="#797979" fill="none" />
  <path d="M 654 1760  C 652.32 1760  651 1758.68  651 1757  C 651 1755.32  652.32 1754  654 1754  C 655.68 1754  657 1755.32  657 1757  C 657 1758.68  655.68 1760  654 1760  " fill-rule="nonzero" fill="#797979" stroke="none" />
</svg>