<?xml version="1.0" encoding="utf-8"?>
<svg version="1.1" xmlns:xlink="http://www.w3.org/1999/xlink" width="12px" height="12px" viewBox="20 282  12 12" xmlns="http://www.w3.org/2000/svg">
  <path d="M 26 282  C 29.36 282  32 284.64  32 288  C 32 291.36  29.36 294  26 294  C 22.64 294  20 291.36  20 288  C 20 284.64  22.64 282  26 282  Z " fill-rule="nonzero" fill="#ffffff" stroke="none" />
  <path d="M 26 282.5  C 29.08 282.5  31.5 284.92  31.5 288  C 31.5 291.08  29.08 293.5  26 293.5  C 22.92 293.5  20.5 291.08  20.5 288  C 20.5 284.92  22.92 282.5  26 282.5  Z " stroke-width="1" stroke="#797979" fill="none" />
  <path d="M 26 291  C 24.32 291  23 289.68  23 288  C 23 286.32  24.32 285  26 285  C 27.68 285  29 286.32  29 288  C 29 289.68  27.68 291  26 291  " fill-rule="nonzero" fill="#797979" stroke="none" />
</svg>