<?xml version="1.0" encoding="utf-8"?>
<svg version="1.1" xmlns:xlink="http://www.w3.org/1999/xlink" width="12px" height="12px" viewBox="20 326  12 12" xmlns="http://www.w3.org/2000/svg">
  <path d="M 26 326  C 29.36 326  32 328.64  32 332  C 32 335.36  29.36 338  26 338  C 22.64 338  20 335.36  20 332  C 20 328.64  22.64 326  26 326  Z " fill-rule="nonzero" fill="#f0f0f0" stroke="none" />
  <path d="M 26 326.5  C 29.08 326.5  31.5 328.92  31.5 332  C 31.5 335.08  29.08 337.5  26 337.5  C 22.92 337.5  20.5 335.08  20.5 332  C 20.5 328.92  22.92 326.5  26 326.5  Z " stroke-width="1" stroke="#797979" fill="none" />
  <path d="M 26 335  C 24.32 335  23 333.68  23 332  C 23 330.32  24.32 329  26 329  C 27.68 329  29 330.32  29 332  C 29 333.68  27.68 335  26 335  " fill-rule="nonzero" fill="#797979" stroke="none" />
</svg>