<?xml version="1.0" encoding="utf-8"?>
<svg version="1.1" xmlns:xlink="http://www.w3.org/1999/xlink" width="839px" height="142px" xmlns="http://www.w3.org/2000/svg">
  <g transform="matrix(1 0 0 1 -2588 -1579 )">
    <path d="M 2589 1583  A 3 3 0 0 1 2592 1580 L 3423 1580  A 3 3 0 0 1 3426 1583 L 3426 1717  A 3 3 0 0 1 3423 1720 L 2592 1720  A 3 3 0 0 1 2589 1717 L 2589 1583  Z " fill-rule="nonzero" fill="#000000" stroke="none" fill-opacity="0.0196078431372549" />
    <path d="M 2588.5 1583  A 3.5 3.5 0 0 1 2592 1579.5 L 3423 1579.5  A 3.5 3.5 0 0 1 3426.5 1583 L 3426.5 1717  A 3.5 3.5 0 0 1 3423 1720.5 L 2592 1720.5  A 3.5 3.5 0 0 1 2588.5 1717 L 2588.5 1583  Z " stroke-width="1" stroke-dasharray="9,4" stroke="#d9d9d9" fill="none" stroke-dashoffset="0.5" />
  </g>
</svg>