<?xml version="1.0" encoding="utf-8"?>
<svg version="1.1" xmlns:xlink="http://www.w3.org/1999/xlink" width="12px" height="12px" viewBox="28 141  12 12" xmlns="http://www.w3.org/2000/svg">
  <path d="M 34 141  C 37.36 141  40 143.64  40 147  C 40 150.36  37.36 153  34 153  C 30.64 153  28 150.36  28 147  C 28 143.64  30.64 141  34 141  Z " fill-rule="nonzero" fill="#ffffff" stroke="none" />
  <path d="M 34 141.5  C 37.08 141.5  39.5 143.92  39.5 147  C 39.5 150.08  37.08 152.5  34 152.5  C 30.92 152.5  28.5 150.08  28.5 147  C 28.5 143.92  30.92 141.5  34 141.5  Z " stroke-width="1" stroke="#797979" fill="none" />
  <path d="M 34 150  C 32.32 150  31 148.68  31 147  C 31 145.32  32.32 144  34 144  C 35.68 144  37 145.32  37 147  C 37 148.68  35.68 150  34 150  " fill-rule="nonzero" fill="#797979" stroke="none" />
</svg>