<?xml version="1.0" encoding="utf-8"?>
<svg version="1.1" xmlns:xlink="http://www.w3.org/1999/xlink" width="12px" height="12px" viewBox="208 141  12 12" xmlns="http://www.w3.org/2000/svg">
  <path d="M 214 141  C 217.36 141  220 143.64  220 147  C 220 150.36  217.36 153  214 153  C 210.64 153  208 150.36  208 147  C 208 143.64  210.64 141  214 141  Z " fill-rule="nonzero" fill="#ffffff" stroke="none" />
  <path d="M 214 141.5  C 217.08 141.5  219.5 143.92  219.5 147  C 219.5 150.08  217.08 152.5  214 152.5  C 210.92 152.5  208.5 150.08  208.5 147  C 208.5 143.92  210.92 141.5  214 141.5  Z " stroke-width="1" stroke="#797979" fill="none" />
  <path d="M 214 150  C 212.32 150  211 148.68  211 147  C 211 145.32  212.32 144  214 144  C 215.68 144  217 145.32  217 147  C 217 148.68  215.68 150  214 150  " fill-rule="nonzero" fill="#797979" stroke="none" />
</svg>