<?xml version="1.0" encoding="utf-8"?>
<svg version="1.1" xmlns:xlink="http://www.w3.org/1999/xlink" width="16px" height="23px" xmlns="http://www.w3.org/2000/svg">
  <g transform="matrix(1 0 0 1 -428 -505 )">
    <path d="M 10.828125 10.376953125  C 11.609375 9.62825520833333  12 8.72482638888889  12 7.66666666666667  C 12 6.60850694444444  11.609375 5.705078125  10.828125 4.95638020833333  C 10.046875 4.20768229166667  9.10416666666667 3.83333333333333  8 3.83333333333333  C 6.89583333333333 3.83333333333333  5.953125 4.20768229166667  5.171875 4.95638020833333  C 4.390625 5.705078125  4 6.60850694444444  4 7.66666666666667  C 4 8.72482638888889  4.390625 9.62825520833333  5.171875 10.376953125  C 5.953125 11.1256510416667  6.89583333333333 11.5  8 11.5  C 9.10416666666667 11.5  10.046875 11.1256510416667  10.828125 10.376953125  Z M 13.65625 2.24609375  C 15.21875 3.74348958333333  16 5.55034722222222  16 7.66666666666667  C 16 8.75477430555555  15.828125 9.64822048611111  15.484375 10.3470052083333  L 9.796875 21.9368489583333  C 9.63020833333333 22.2662760416667  9.3828125 22.5258246527778  9.0546875 22.7154947916667  C 8.7265625 22.9051649305556  8.375 23  8 23  C 7.625 23  7.2734375 22.9051649305556  6.9453125 22.7154947916667  C 6.6171875 22.5258246527778  6.375 22.2662760416667  6.21875 21.9368489583333  L 0.515625 10.3470052083333  C 0.171875 9.64822048611111  0 8.75477430555555  0 7.66666666666667  C 0 5.55034722222222  0.78125 3.74348958333333  2.34375 2.24609375  C 3.90625 0.748697916666668  5.79166666666667 0  8 0  C 10.2083333333333 0  12.09375 0.748697916666668  13.65625 2.24609375  Z " fill-rule="nonzero" fill="#000000" stroke="none" transform="matrix(1 0 0 1 428 505 )" />
  </g>
</svg>