<?xml version="1.0" encoding="utf-8"?>
<svg version="1.1" xmlns:xlink="http://www.w3.org/1999/xlink" width="377px" height="694px" xmlns="http://www.w3.org/2000/svg">
  <defs>
    <filter x="749px" y="310px" width="377px" height="694px" filterUnits="userSpaceOnUse" id="filter20">
      <feOffset dx="0" dy="0" in="SourceAlpha" result="shadowOffsetInner" />
      <feGaussianBlur stdDeviation="0.5" in="shadowOffsetInner" result="shadowGaussian" />
      <feComposite in2="shadowGaussian" operator="atop" in="SourceAlpha" result="shadowComposite" />
      <feColorMatrix type="matrix" values="0 0 0 0 0  0 0 0 0 0  0 0 0 0 0  0 0 0 0.349019607843137 0  " in="shadowComposite" />
    </filter>
    <g id="widget21">
      <path d="M 751 339  A 27 27 0 0 1 778 312 L 1097 312  A 27 27 0 0 1 1124 339 L 1124 1002  L 751 1002  L 751 339  Z " fill-rule="nonzero" fill="#ffffff" stroke="none" fill-opacity="0" />
      <path d="M 750.5 339  A 27.5 27.5 0 0 1 778 311.5 L 1097 311.5  A 27.5 27.5 0 0 1 1124.5 339 L 1124.5 1002.5  L 750.5 1002.5  L 750.5 339  Z " stroke-width="1" stroke="#f2f2f2" fill="none" stroke-opacity="0.203921568627451" />
    </g>
  </defs>
  <g transform="matrix(1 0 0 1 -749 -310 )">
    <use xlink:href="#widget21" filter="url(#filter20)" />
    <use xlink:href="#widget21" />
  </g>
</svg>