<?xml version="1.0" encoding="utf-8"?>
<svg version="1.1" xmlns:xlink="http://www.w3.org/1999/xlink" width="84px" height="30px" xmlns="http://www.w3.org/2000/svg">
  <g transform="matrix(1 0 0 1 -1408 -1082 )">
    <path d="M 1409 1097  A 14 14 0 0 1 1423 1083 L 1477 1083  A 14 14 0 0 1 1491 1097 A 14 14 0 0 1 1477 1111 L 1423 1111  A 14 14 0 0 1 1409 1097 Z " fill-rule="nonzero" fill="#399ffd" stroke="none" fill-opacity="0.168627450980392" />
    <path d="M 1408.5 1097  A 14.5 14.5 0 0 1 1423 1082.5 L 1477 1082.5  A 14.5 14.5 0 0 1 1491.5 1097 A 14.5 14.5 0 0 1 1477 1111.5 L 1423 1111.5  A 14.5 14.5 0 0 1 1408.5 1097 Z " stroke-width="1" stroke="#399ffd" fill="none" stroke-opacity="0.729411764705882" />
  </g>
</svg>