<?xml version="1.0" encoding="utf-8"?>
<svg version="1.1" xmlns:xlink="http://www.w3.org/1999/xlink" width="12px" height="12px" viewBox="167 117  12 12" xmlns="http://www.w3.org/2000/svg">
  <path d="M 173 117  C 176.36 117  179 119.64  179 123  C 179 126.36  176.36 129  173 129  C 169.64 129  167 126.36  167 123  C 167 119.64  169.64 117  173 117  Z " fill-rule="nonzero" fill="#f0f0f0" stroke="none" />
  <path d="M 173 117.5  C 176.08 117.5  178.5 119.92  178.5 123  C 178.5 126.08  176.08 128.5  173 128.5  C 169.92 128.5  167.5 126.08  167.5 123  C 167.5 119.92  169.92 117.5  173 117.5  Z " stroke-width="1" stroke="#797979" fill="none" />
  <path d="M 173 126  C 171.32 126  170 124.68  170 123  C 170 121.32  171.32 120  173 120  C 174.68 120  176 121.32  176 123  C 176 124.68  174.68 126  173 126  " fill-rule="nonzero" fill="#797979" stroke="none" />
</svg>