<?xml version="1.0" encoding="utf-8"?>
<svg version="1.1" xmlns:xlink="http://www.w3.org/1999/xlink" width="12px" height="12px" viewBox="243 117  12 12" xmlns="http://www.w3.org/2000/svg">
  <path d="M 249 117  C 252.36 117  255 119.64  255 123  C 255 126.36  252.36 129  249 129  C 245.64 129  243 126.36  243 123  C 243 119.64  245.64 117  249 117  Z " fill-rule="nonzero" fill="#f0f0f0" stroke="none" />
  <path d="M 249 117.5  C 252.08 117.5  254.5 119.92  254.5 123  C 254.5 126.08  252.08 128.5  249 128.5  C 245.92 128.5  243.5 126.08  243.5 123  C 243.5 119.92  245.92 117.5  249 117.5  Z " stroke-width="1" stroke="#797979" fill="none" />
  <path d="M 249 126  C 247.32 126  246 124.68  246 123  C 246 121.32  247.32 120  249 120  C 250.68 120  252 121.32  252 123  C 252 124.68  250.68 126  249 126  " fill-rule="nonzero" fill="#797979" stroke="none" />
</svg>