<?xml version="1.0" encoding="utf-8"?>
<svg version="1.1" xmlns:xlink="http://www.w3.org/1999/xlink" width="104px" height="104px" xmlns="http://www.w3.org/2000/svg">
  <g transform="matrix(1 0 0 1 -37 -886 )">
    <path d="M 38 890  A 3 3 0 0 1 41 887 L 137 887  A 3 3 0 0 1 140 890 L 140 986  A 3 3 0 0 1 137 989 L 41 989  A 3 3 0 0 1 38 986 L 38 890  Z " fill-rule="nonzero" fill="#000000" stroke="none" fill-opacity="0.0196078431372549" />
    <path d="M 37.5 890  A 3.5 3.5 0 0 1 41 886.5 L 137 886.5  A 3.5 3.5 0 0 1 140.5 890 L 140.5 986  A 3.5 3.5 0 0 1 137 989.5 L 41 989.5  A 3.5 3.5 0 0 1 37.5 986 L 37.5 890  Z " stroke-width="1" stroke-dasharray="9,4" stroke="#d9d9d9" fill="none" stroke-dashoffset="0.5" />
  </g>
</svg>