<?xml version="1.0" encoding="utf-8"?>
<svg version="1.1" xmlns:xlink="http://www.w3.org/1999/xlink" width="969px" height="142px" xmlns="http://www.w3.org/2000/svg">
  <g transform="matrix(1 0 0 1 -4573 -2037 )">
    <path d="M 4574 2041  A 3 3 0 0 1 4577 2038 L 5538 2038  A 3 3 0 0 1 5541 2041 L 5541 2175  A 3 3 0 0 1 5538 2178 L 4577 2178  A 3 3 0 0 1 4574 2175 L 4574 2041  Z " fill-rule="nonzero" fill="#000000" stroke="none" fill-opacity="0.0196078431372549" />
    <path d="M 4573.5 2041  A 3.5 3.5 0 0 1 4577 2037.5 L 5538 2037.5  A 3.5 3.5 0 0 1 5541.5 2041 L 5541.5 2175  A 3.5 3.5 0 0 1 5538 2178.5 L 4577 2178.5  A 3.5 3.5 0 0 1 4573.5 2175 L 4573.5 2041  Z " stroke-width="1" stroke-dasharray="9,4" stroke="#d9d9d9" fill="none" stroke-dashoffset="0.5" />
  </g>
</svg>