<?xml version="1.0" encoding="utf-8"?>
<svg version="1.1" xmlns:xlink="http://www.w3.org/1999/xlink" width="968px" height="42px" xmlns="http://www.w3.org/2000/svg">
  <g transform="matrix(1 0 0 1 -4573 -2372 )">
    <path d="M 4574 2376  A 3 3 0 0 1 4577 2373 L 5537 2373  A 3 3 0 0 1 5540 2376 L 5540 2410  A 3 3 0 0 1 5537 2413 L 4577 2413  A 3 3 0 0 1 4574 2410 L 4574 2376  Z " fill-rule="nonzero" fill="#000000" stroke="none" fill-opacity="0.0196078431372549" />
    <path d="M 4573.5 2376  A 3.5 3.5 0 0 1 4577 2372.5 L 5537 2372.5  A 3.5 3.5 0 0 1 5540.5 2376 L 5540.5 2410  A 3.5 3.5 0 0 1 5537 2413.5 L 4577 2413.5  A 3.5 3.5 0 0 1 4573.5 2410 L 4573.5 2376  Z " stroke-width="1" stroke-dasharray="9,4" stroke="#3498db" fill="none" stroke-dashoffset="0.5" />
  </g>
</svg>