<?xml version="1.0" encoding="utf-8"?>
<svg version="1.1" xmlns:xlink="http://www.w3.org/1999/xlink" width="100px" height="57px" xmlns="http://www.w3.org/2000/svg">
  <g transform="matrix(1 0 0 1 -4966 -1728 )">
    <path d="M 4966 1728  L 5066 1728  L 5066 1785  L 4966 1785  L 4966 1728  " fill-rule="nonzero" fill="#cccccc" stroke="none" />
    <path d="M 4970 1732  L 5062 1732  L 5062 1781  L 4970 1781  L 4970 1732  " fill-rule="nonzero" fill="#ffffff" stroke="none" />
    <path d="M 5022.275 1745.1  C 5019.881 1745.1  5018 1743.219  5018 1740.825  C 5018 1738.431  5019.881 1736.55  5022.275 1736.55  C 5024.669 1736.55  5026.55 1738.431  5026.55 1740.825  C 5026.55 1743.219  5024.669 1745.1  5022.275 1745.1  " fill-rule="nonzero" fill="#cccccc" stroke="none" />
    <path d="M 4972 1780  L 4972 1754.7  L 4994.25 1743.2  L 5025.4 1764.268  L 5043.2 1750.1  L 5061 1764.268  L 5061 1780  L 4972 1780  " fill-rule="nonzero" fill="#169bd5" stroke="none" />
  </g>
</svg>