<?xml version="1.0" encoding="utf-8"?>
<svg version="1.1" xmlns:xlink="http://www.w3.org/1999/xlink" width="14px" height="17px" xmlns="http://www.w3.org/2000/svg">
  <g transform="matrix(1 0 0 1 -32 -200 )">
    <path d="M 14 6.92592592592593  C 14 3.10092592592593  10.8659090909091 0  7 0  C 3.13409090909091 0  0 3.10092592592593  0 6.92592592592593  C 0 11.4806666666667  4.55127272727273 13.6610740740741  5.12145454545455 14.1685555555556  C 5.70372727272727 14.6867407407407  6.18481818181818 15.8484074074074  6.37890909090909 16.507  C 6.47309090909091 16.8268518518518  6.73781818181818 16.9886666666667  7 16.9955925925926  C 7.26281818181818 16.988037037037  7.52690909090909 16.8262222222222  7.62109090909091 16.507  C 7.81518181818182 15.8484074074074  8.29627272727273 14.6873703703704  8.87854545454545 14.1685555555556  C 9.44872727272727 13.6610740740741  14 11.4806666666667  14 6.92592592592593  Z M 8.90909090909091 6.92592592592593  C 8.90909090909091 7.96922222222222  8.05445454545455 8.81481481481481  7 8.81481481481481  C 5.94554545454545 8.81481481481481  5.09090909090909 7.96922222222222  5.09090909090909 6.92592592592593  C 5.09090909090909 5.88262962962963  5.94554545454545 5.03703703703704  7 5.03703703703704  C 8.05445454545455 5.03703703703704  8.90909090909091 5.88262962962963  8.90909090909091 6.92592592592593  Z " fill-rule="nonzero" fill="#aaaaaa" stroke="none" transform="matrix(1 0 0 1 32 200 )" />
  </g>
</svg>