<?xml version="1.0" encoding="utf-8"?>
<svg version="1.1" xmlns:xlink="http://www.w3.org/1999/xlink" width="12px" height="12px" viewBox="252 169  12 12" xmlns="http://www.w3.org/2000/svg">
  <path d="M 258 169  C 261.36 169  264 171.64  264 175  C 264 178.36  261.36 181  258 181  C 254.64 181  252 178.36  252 175  C 252 171.64  254.64 169  258 169  Z " fill-rule="nonzero" fill="#f0f0f0" stroke="none" />
  <path d="M 258 169.5  C 261.08 169.5  263.5 171.92  263.5 175  C 263.5 178.08  261.08 180.5  258 180.5  C 254.92 180.5  252.5 178.08  252.5 175  C 252.5 171.92  254.92 169.5  258 169.5  Z " stroke-width="1" stroke="#797979" fill="none" />
  <path d="M 258 178  C 256.32 178  255 176.68  255 175  C 255 173.32  256.32 172  258 172  C 259.68 172  261 173.32  261 175  C 261 176.68  259.68 178  258 178  " fill-rule="nonzero" fill="#797979" stroke="none" />
</svg>