<?xml version="1.0" encoding="utf-8"?>
<svg version="1.1" xmlns:xlink="http://www.w3.org/1999/xlink" width="12px" height="12px" viewBox="366 169  12 12" xmlns="http://www.w3.org/2000/svg">
  <path d="M 372 169  C 375.36 169  378 171.64  378 175  C 378 178.36  375.36 181  372 181  C 368.64 181  366 178.36  366 175  C 366 171.64  368.64 169  372 169  Z " fill-rule="nonzero" fill="#f0f0f0" stroke="none" />
  <path d="M 372 169.5  C 375.08 169.5  377.5 171.92  377.5 175  C 377.5 178.08  375.08 180.5  372 180.5  C 368.92 180.5  366.5 178.08  366.5 175  C 366.5 171.92  368.92 169.5  372 169.5  Z " stroke-width="1" stroke="#797979" fill="none" />
  <path d="M 372 178  C 370.32 178  369 176.68  369 175  C 369 173.32  370.32 172  372 172  C 373.68 172  375 173.32  375 175  C 375 176.68  373.68 178  372 178  " fill-rule="nonzero" fill="#797979" stroke="none" />
</svg>