<?xml version="1.0" encoding="utf-8"?>
<svg version="1.1" xmlns:xlink="http://www.w3.org/1999/xlink" width="18px" height="21px" xmlns="http://www.w3.org/2000/svg">
  <g transform="matrix(1 0 0 1 -248 -5 )">
    <path d="M 13.546875 0.796875000000001  L 17.203125 4.453125  C 17.421875 4.671875  17.609375 4.96875  17.765625 5.34375  C 17.921875 5.71875  18 6.0625  18 6.375  L 18 19.875  C 18 20.1875  17.890625 20.453125  17.671875 20.671875  C 17.453125 20.890625  17.1875 21  16.875 21  L 1.125 21  C 0.8125 21  0.546875 20.890625  0.328125 20.671875  C 0.109375 20.453125  0 20.1875  0 19.875  L 0 1.125  C 0 0.812499999999999  0.109375 0.546874999999999  0.328125 0.328125  C 0.546875 0.109375000000001  0.8125 0  1.125 0  L 11.625 0  C 11.9375 0  12.28125 0.0781250000000009  12.65625 0.234375  C 13.03125 0.390625  13.328125 0.578124999999999  13.546875 0.796875000000001  Z M 12.48046875 1.8515625  C 12.38671875 1.7578125  12.2265625 1.671875  12 1.59375  L 12 6  L 16.40625 6  C 16.328125 5.7734375  16.2421875 5.61328125  16.1484375 5.51953125  L 12.48046875 1.8515625  Z M 1.5 19.5  L 16.5 19.5  L 16.5 7.5  L 11.625 7.5  C 11.3125 7.5  11.046875 7.390625  10.828125 7.171875  C 10.609375 6.953125  10.5 6.6875  10.5 6.375  L 10.5 1.5  L 1.5 1.5  L 1.5 19.5  Z M 4.5 10.125  L 4.5 9.375  C 4.5 9.265625  4.53515625 9.17578125  4.60546875 9.10546875  C 4.67578125 9.03515625  4.765625 9  4.875 9  L 13.125 9  C 13.234375 9  13.32421875 9.03515625  13.39453125 9.10546875  C 13.46484375 9.17578125  13.5 9.265625  13.5 9.375  L 13.5 10.125  C 13.5 10.234375  13.46484375 10.32421875  13.39453125 10.39453125  C 13.32421875 10.46484375  13.234375 10.5  13.125 10.5  L 4.875 10.5  C 4.765625 10.5  4.67578125 10.46484375  4.60546875 10.39453125  C 4.53515625 10.32421875  4.5 10.234375  4.5 10.125  Z M 4.875 12  L 13.125 12  C 13.234375 12  13.32421875 12.03515625  13.39453125 12.10546875  C 13.46484375 12.17578125  13.5 12.265625  13.5 12.375  L 13.5 13.125  C 13.5 13.234375  13.46484375 13.32421875  13.39453125 13.39453125  C 13.32421875 13.46484375  13.234375 13.5  13.125 13.5  L 4.875 13.5  C 4.765625 13.5  4.67578125 13.46484375  4.60546875 13.39453125  C 4.53515625 13.32421875  4.5 13.234375  4.5 13.125  L 4.5 12.375  C 4.5 12.265625  4.53515625 12.17578125  4.60546875 12.10546875  C 4.67578125 12.03515625  4.765625 12  4.875 12  Z M 4.875 15  L 13.125 15  C 13.234375 15  13.32421875 15.03515625  13.39453125 15.10546875  C 13.46484375 15.17578125  13.5 15.265625  13.5 15.375  L 13.5 16.125  C 13.5 16.234375  13.46484375 16.32421875  13.39453125 16.39453125  C 13.32421875 16.46484375  13.234375 16.5  13.125 16.5  L 4.875 16.5  C 4.765625 16.5  4.67578125 16.46484375  4.60546875 16.39453125  C 4.53515625 16.32421875  4.5 16.234375  4.5 16.125  L 4.5 15.375  C 4.5 15.265625  4.53515625 15.17578125  4.60546875 15.10546875  C 4.67578125 15.03515625  4.765625 15  4.875 15  Z " fill-rule="nonzero" fill="#000000" stroke="none" transform="matrix(1 0 0 1 248 5 )" />
  </g>
</svg>