<?xml version="1.0" encoding="utf-8"?>
<svg version="1.1" xmlns:xlink="http://www.w3.org/1999/xlink" width="542px" height="96px" xmlns="http://www.w3.org/2000/svg">
  <g transform="matrix(1 0 0 1 -50 -543 )">
    <path d="M 51 545  A 1 1 0 0 1 52 544 L 590 544  A 1 1 0 0 1 591 545 L 591 637  A 1 1 0 0 1 590 638 L 52 638  A 1 1 0 0 1 51 637 L 51 545  Z " fill-rule="nonzero" fill="#f2f2f2" stroke="none" />
    <path d="M 50.5 545  A 1.5 1.5 0 0 1 52 543.5 L 590 543.5  A 1.5 1.5 0 0 1 591.5 545 L 591.5 637  A 1.5 1.5 0 0 1 590 638.5 L 52 638.5  A 1.5 1.5 0 0 1 50.5 637 L 50.5 545  Z " stroke-width="1" stroke-dasharray="3,1" stroke="#cccccc" fill="none" stroke-dashoffset="0.5" />
  </g>
</svg>