<?xml version="1.0" encoding="utf-8"?>
<svg version="1.1" xmlns:xlink="http://www.w3.org/1999/xlink" width="12px" height="12px" viewBox="-122 271  12 12" xmlns="http://www.w3.org/2000/svg">
  <path d="M -116 271  C -112.64 271  -110 273.64  -110 277  C -110 280.36  -112.64 283  -116 283  C -119.36 283  -122 280.36  -122 277  C -122 273.64  -119.36 271  -116 271  Z " fill-rule="nonzero" fill="#f0f0f0" stroke="none" />
  <path d="M -116 271.5  C -112.92 271.5  -110.5 273.92  -110.5 277  C -110.5 280.08  -112.92 282.5  -116 282.5  C -119.08 282.5  -121.5 280.08  -121.5 277  C -121.5 273.92  -119.08 271.5  -116 271.5  Z " stroke-width="1" stroke="#797979" fill="none" />
  <path d="M -116 280  C -117.68 280  -119 278.68  -119 277  C -119 275.32  -117.68 274  -116 274  C -114.32 274  -113 275.32  -113 277  C -113 278.68  -114.32 280  -116 280  " fill-rule="nonzero" fill="#797979" stroke="none" />
</svg>