<?xml version="1.0" encoding="utf-8"?>
<svg version="1.1" xmlns:xlink="http://www.w3.org/1999/xlink" width="12px" height="12px" viewBox="590 544  12 12" xmlns="http://www.w3.org/2000/svg">
  <path d="M 596 544  C 599.36 544  602 546.64  602 550  C 602 553.36  599.36 556  596 556  C 592.64 556  590 553.36  590 550  C 590 546.64  592.64 544  596 544  Z " fill-rule="nonzero" fill="#f0f0f0" stroke="none" />
  <path d="M 596 544.5  C 599.08 544.5  601.5 546.92  601.5 550  C 601.5 553.08  599.08 555.5  596 555.5  C 592.92 555.5  590.5 553.08  590.5 550  C 590.5 546.92  592.92 544.5  596 544.5  Z " stroke-width="1" stroke="#797979" fill="none" />
  <path d="M 596 553  C 594.32 553  593 551.68  593 550  C 593 548.32  594.32 547  596 547  C 597.68 547  599 548.32  599 550  C 599 551.68  597.68 553  596 553  " fill-rule="nonzero" fill="#797979" stroke="none" />
</svg>