<?xml version="1.0" encoding="utf-8"?>
<svg version="1.1" xmlns:xlink="http://www.w3.org/1999/xlink" width="12px" height="12px" viewBox="525 544  12 12" xmlns="http://www.w3.org/2000/svg">
  <path d="M 531 544  C 534.36 544  537 546.64  537 550  C 537 553.36  534.36 556  531 556  C 527.64 556  525 553.36  525 550  C 525 546.64  527.64 544  531 544  Z " fill-rule="nonzero" fill="#ffffff" stroke="none" />
  <path d="M 531 544.5  C 534.08 544.5  536.5 546.92  536.5 550  C 536.5 553.08  534.08 555.5  531 555.5  C 527.92 555.5  525.5 553.08  525.5 550  C 525.5 546.92  527.92 544.5  531 544.5  Z " stroke-width="1" stroke="#797979" fill="none" />
  <path d="M 531 553  C 529.32 553  528 551.68  528 550  C 528 548.32  529.32 547  531 547  C 532.68 547  534 548.32  534 550  C 534 551.68  532.68 553  531 553  " fill-rule="nonzero" fill="#797979" stroke="none" />
</svg>