<?xml version="1.0" encoding="utf-8"?>
<svg version="1.1" xmlns:xlink="http://www.w3.org/1999/xlink" width="12px" height="12px" viewBox="142 436  12 12" xmlns="http://www.w3.org/2000/svg">
  <path d="M 148 436  C 151.36 436  154 438.64  154 442  C 154 445.36  151.36 448  148 448  C 144.64 448  142 445.36  142 442  C 142 438.64  144.64 436  148 436  Z " fill-rule="nonzero" fill="#ffffff" stroke="none" />
  <path d="M 148 436.5  C 151.08 436.5  153.5 438.92  153.5 442  C 153.5 445.08  151.08 447.5  148 447.5  C 144.92 447.5  142.5 445.08  142.5 442  C 142.5 438.92  144.92 436.5  148 436.5  Z " stroke-width="1" stroke="#797979" fill="none" />
  <path d="M 148 445  C 146.32 445  145 443.68  145 442  C 145 440.32  146.32 439  148 439  C 149.68 439  151 440.32  151 442  C 151 443.68  149.68 445  148 445  " fill-rule="nonzero" fill="#797979" stroke="none" />
</svg>