<?xml version="1.0" encoding="utf-8"?>
<svg version="1.1" xmlns:xlink="http://www.w3.org/1999/xlink" width="12px" height="12px" viewBox="17982 800  12 12" xmlns="http://www.w3.org/2000/svg">
  <path d="M 17988 800  C 17991.36 800  17994 802.64  17994 806  C 17994 809.36  17991.36 812  17988 812  C 17984.64 812  17982 809.36  17982 806  C 17982 802.64  17984.64 800  17988 800  Z " fill-rule="nonzero" fill="#f0f0f0" stroke="none" />
  <path d="M 17988 800.5  C 17991.08 800.5  17993.5 802.92  17993.5 806  C 17993.5 809.08  17991.08 811.5  17988 811.5  C 17984.92 811.5  17982.5 809.08  17982.5 806  C 17982.5 802.92  17984.92 800.5  17988 800.5  Z " stroke-width="1" stroke="#797979" fill="none" />
  <path d="M 17988 809  C 17986.32 809  17985 807.68  17985 806  C 17985 804.32  17986.32 803  17988 803  C 17989.68 803  17991 804.32  17991 806  C 17991 807.68  17989.68 809  17988 809  " fill-rule="nonzero" fill="#797979" stroke="none" />
</svg>