<?xml version="1.0" encoding="utf-8"?>
<svg version="1.1" xmlns:xlink="http://www.w3.org/1999/xlink" width="12px" height="12px" viewBox="18064 800  12 12" xmlns="http://www.w3.org/2000/svg">
  <path d="M 18070 800  C 18073.36 800  18076 802.64  18076 806  C 18076 809.36  18073.36 812  18070 812  C 18066.64 812  18064 809.36  18064 806  C 18064 802.64  18066.64 800  18070 800  Z " fill-rule="nonzero" fill="#f0f0f0" stroke="none" />
  <path d="M 18070 800.5  C 18073.08 800.5  18075.5 802.92  18075.5 806  C 18075.5 809.08  18073.08 811.5  18070 811.5  C 18066.92 811.5  18064.5 809.08  18064.5 806  C 18064.5 802.92  18066.92 800.5  18070 800.5  Z " stroke-width="1" stroke="#797979" fill="none" />
  <path d="M 18070 809  C 18068.32 809  18067 807.68  18067 806  C 18067 804.32  18068.32 803  18070 803  C 18071.68 803  18073 804.32  18073 806  C 18073 807.68  18071.68 809  18070 809  " fill-rule="nonzero" fill="#797979" stroke="none" />
</svg>