<?xml version="1.0" encoding="utf-8"?>
<svg version="1.1" xmlns:xlink="http://www.w3.org/1999/xlink" width="12px" height="12px" viewBox="17444 1057  12 12" xmlns="http://www.w3.org/2000/svg">
  <path d="M 17450 1057  C 17453.36 1057  17456 1059.64  17456 1063  C 17456 1066.36  17453.36 1069  17450 1069  C 17446.64 1069  17444 1066.36  17444 1063  C 17444 1059.64  17446.64 1057  17450 1057  Z " fill-rule="nonzero" fill="#f0f0f0" stroke="none" />
  <path d="M 17450 1057.5  C 17453.08 1057.5  17455.5 1059.92  17455.5 1063  C 17455.5 1066.08  17453.08 1068.5  17450 1068.5  C 17446.92 1068.5  17444.5 1066.08  17444.5 1063  C 17444.5 1059.92  17446.92 1057.5  17450 1057.5  Z " stroke-width="1" stroke="#797979" fill="none" />
  <path d="M 17450 1066  C 17448.32 1066  17447 1064.68  17447 1063  C 17447 1061.32  17448.32 1060  17450 1060  C 17451.68 1060  17453 1061.32  17453 1063  C 17453 1064.68  17451.68 1066  17450 1066  " fill-rule="nonzero" fill="#797979" stroke="none" />
</svg>