<?xml version="1.0" encoding="utf-8"?>
<svg version="1.1" xmlns:xlink="http://www.w3.org/1999/xlink" width="12px" height="12px" viewBox="17526 1057  12 12" xmlns="http://www.w3.org/2000/svg">
  <path d="M 17532 1057  C 17535.36 1057  17538 1059.64  17538 1063  C 17538 1066.36  17535.36 1069  17532 1069  C 17528.64 1069  17526 1066.36  17526 1063  C 17526 1059.64  17528.64 1057  17532 1057  Z " fill-rule="nonzero" fill="#f0f0f0" stroke="none" />
  <path d="M 17532 1057.5  C 17535.08 1057.5  17537.5 1059.92  17537.5 1063  C 17537.5 1066.08  17535.08 1068.5  17532 1068.5  C 17528.92 1068.5  17526.5 1066.08  17526.5 1063  C 17526.5 1059.92  17528.92 1057.5  17532 1057.5  Z " stroke-width="1" stroke="#797979" fill="none" />
  <path d="M 17532 1066  C 17530.32 1066  17529 1064.68  17529 1063  C 17529 1061.32  17530.32 1060  17532 1060  C 17533.68 1060  17535 1061.32  17535 1063  C 17535 1064.68  17533.68 1066  17532 1066  " fill-rule="nonzero" fill="#797979" stroke="none" />
</svg>