<?xml version="1.0" encoding="utf-8"?>
<svg version="1.1" xmlns:xlink="http://www.w3.org/1999/xlink" width="12px" height="12px" viewBox="17444 1169  12 12" xmlns="http://www.w3.org/2000/svg">
  <path d="M 17450 1169  C 17453.36 1169  17456 1171.64  17456 1175  C 17456 1178.36  17453.36 1181  17450 1181  C 17446.64 1181  17444 1178.36  17444 1175  C 17444 1171.64  17446.64 1169  17450 1169  Z " fill-rule="nonzero" fill="#ffffff" stroke="none" />
  <path d="M 17450 1169.5  C 17453.08 1169.5  17455.5 1171.92  17455.5 1175  C 17455.5 1178.08  17453.08 1180.5  17450 1180.5  C 17446.92 1180.5  17444.5 1178.08  17444.5 1175  C 17444.5 1171.92  17446.92 1169.5  17450 1169.5  Z " stroke-width="1" stroke="#797979" fill="none" />
  <path d="M 17450 1178  C 17448.32 1178  17447 1176.68  17447 1175  C 17447 1173.32  17448.32 1172  17450 1172  C 17451.68 1172  17453 1173.32  17453 1175  C 17453 1176.68  17451.68 1178  17450 1178  " fill-rule="nonzero" fill="#797979" stroke="none" />
</svg>