<?xml version="1.0" encoding="utf-8"?>
<svg version="1.1" xmlns:xlink="http://www.w3.org/1999/xlink" width="12px" height="12px" viewBox="17526 1169  12 12" xmlns="http://www.w3.org/2000/svg">
  <path d="M 17532 1169  C 17535.36 1169  17538 1171.64  17538 1175  C 17538 1178.36  17535.36 1181  17532 1181  C 17528.64 1181  17526 1178.36  17526 1175  C 17526 1171.64  17528.64 1169  17532 1169  Z " fill-rule="nonzero" fill="#ffffff" stroke="none" />
  <path d="M 17532 1169.5  C 17535.08 1169.5  17537.5 1171.92  17537.5 1175  C 17537.5 1178.08  17535.08 1180.5  17532 1180.5  C 17528.92 1180.5  17526.5 1178.08  17526.5 1175  C 17526.5 1171.92  17528.92 1169.5  17532 1169.5  Z " stroke-width="1" stroke="#797979" fill="none" />
  <path d="M 17532 1178  C 17530.32 1178  17529 1176.68  17529 1175  C 17529 1173.32  17530.32 1172  17532 1172  C 17533.68 1172  17535 1173.32  17535 1175  C 17535 1176.68  17533.68 1178  17532 1178  " fill-rule="nonzero" fill="#797979" stroke="none" />
</svg>