<?xml version="1.0" encoding="utf-8"?>
<svg version="1.1" xmlns:xlink="http://www.w3.org/1999/xlink" width="12px" height="12px" viewBox="19092 1464  12 12" xmlns="http://www.w3.org/2000/svg">
  <path d="M 19098 1464  C 19101.36 1464  19104 1466.64  19104 1470  C 19104 1473.36  19101.36 1476  19098 1476  C 19094.64 1476  19092 1473.36  19092 1470  C 19092 1466.64  19094.64 1464  19098 1464  Z " fill-rule="nonzero" fill="#f0f0f0" stroke="none" />
  <path d="M 19098 1464.5  C 19101.08 1464.5  19103.5 1466.92  19103.5 1470  C 19103.5 1473.08  19101.08 1475.5  19098 1475.5  C 19094.92 1475.5  19092.5 1473.08  19092.5 1470  C 19092.5 1466.92  19094.92 1464.5  19098 1464.5  Z " stroke-width="1" stroke="#797979" fill="none" />
  <path d="M 19098 1473  C 19096.32 1473  19095 1471.68  19095 1470  C 19095 1468.32  19096.32 1467  19098 1467  C 19099.68 1467  19101 1468.32  19101 1470  C 19101 1471.68  19099.68 1473  19098 1473  " fill-rule="nonzero" fill="#797979" stroke="none" />
</svg>