<?xml version="1.0" encoding="utf-8"?>
<svg version="1.1" xmlns:xlink="http://www.w3.org/1999/xlink" width="12px" height="12px" viewBox="19010 1464  12 12" xmlns="http://www.w3.org/2000/svg">
  <path d="M 19016 1464  C 19019.36 1464  19022 1466.64  19022 1470  C 19022 1473.36  19019.36 1476  19016 1476  C 19012.64 1476  19010 1473.36  19010 1470  C 19010 1466.64  19012.64 1464  19016 1464  Z " fill-rule="nonzero" fill="#ffffff" stroke="none" />
  <path d="M 19016 1464.5  C 19019.08 1464.5  19021.5 1466.92  19021.5 1470  C 19021.5 1473.08  19019.08 1475.5  19016 1475.5  C 19012.92 1475.5  19010.5 1473.08  19010.5 1470  C 19010.5 1466.92  19012.92 1464.5  19016 1464.5  Z " stroke-width="1" stroke="#797979" fill="none" />
  <path d="M 19016 1473  C 19014.32 1473  19013 1471.68  19013 1470  C 19013 1468.32  19014.32 1467  19016 1467  C 19017.68 1467  19019 1468.32  19019 1470  C 19019 1471.68  19017.68 1473  19016 1473  " fill-rule="nonzero" fill="#797979" stroke="none" />
</svg>