<?xml version="1.0" encoding="utf-8"?>
<svg version="1.1" xmlns:xlink="http://www.w3.org/1999/xlink" width="12px" height="12px" viewBox="19014 1713  12 12" xmlns="http://www.w3.org/2000/svg">
  <path d="M 19020 1713  C 19023.36 1713  19026 1715.64  19026 1719  C 19026 1722.36  19023.36 1725  19020 1725  C 19016.64 1725  19014 1722.36  19014 1719  C 19014 1715.64  19016.64 1713  19020 1713  Z " fill-rule="nonzero" fill="#ffffff" stroke="none" />
  <path d="M 19020 1713.5  C 19023.08 1713.5  19025.5 1715.92  19025.5 1719  C 19025.5 1722.08  19023.08 1724.5  19020 1724.5  C 19016.92 1724.5  19014.5 1722.08  19014.5 1719  C 19014.5 1715.92  19016.92 1713.5  19020 1713.5  Z " stroke-width="1" stroke="#797979" fill="none" />
  <path d="M 19020 1722  C 19018.32 1722  19017 1720.68  19017 1719  C 19017 1717.32  19018.32 1716  19020 1716  C 19021.68 1716  19023 1717.32  19023 1719  C 19023 1720.68  19021.68 1722  19020 1722  " fill-rule="nonzero" fill="#797979" stroke="none" />
</svg>