<?xml version="1.0" encoding="utf-8"?>
<svg version="1.1" xmlns:xlink="http://www.w3.org/1999/xlink" width="12px" height="12px" viewBox="19101 1970  12 12" xmlns="http://www.w3.org/2000/svg">
  <path d="M 19107 1970  C 19110.36 1970  19113 1972.64  19113 1976  C 19113 1979.36  19110.36 1982  19107 1982  C 19103.64 1982  19101 1979.36  19101 1976  C 19101 1972.64  19103.64 1970  19107 1970  Z " fill-rule="nonzero" fill="#f0f0f0" stroke="none" />
  <path d="M 19107 1970.5  C 19110.08 1970.5  19112.5 1972.92  19112.5 1976  C 19112.5 1979.08  19110.08 1981.5  19107 1981.5  C 19103.92 1981.5  19101.5 1979.08  19101.5 1976  C 19101.5 1972.92  19103.92 1970.5  19107 1970.5  Z " stroke-width="1" stroke="#797979" fill="none" />
  <path d="M 19107 1979  C 19105.32 1979  19104 1977.68  19104 1976  C 19104 1974.32  19105.32 1973  19107 1973  C 19108.68 1973  19110 1974.32  19110 1976  C 19110 1977.68  19108.68 1979  19107 1979  " fill-rule="nonzero" fill="#797979" stroke="none" />
</svg>