<?xml version="1.0" encoding="utf-8"?>
<svg version="1.1" xmlns:xlink="http://www.w3.org/1999/xlink" width="12px" height="12px" viewBox="19107 2253  12 12" xmlns="http://www.w3.org/2000/svg">
  <path d="M 19113 2253  C 19116.36 2253  19119 2255.64  19119 2259  C 19119 2262.36  19116.36 2265  19113 2265  C 19109.64 2265  19107 2262.36  19107 2259  C 19107 2255.64  19109.64 2253  19113 2253  Z " fill-rule="nonzero" fill="#ffffff" stroke="none" />
  <path d="M 19113 2253.5  C 19116.08 2253.5  19118.5 2255.92  19118.5 2259  C 19118.5 2262.08  19116.08 2264.5  19113 2264.5  C 19109.92 2264.5  19107.5 2262.08  19107.5 2259  C 19107.5 2255.92  19109.92 2253.5  19113 2253.5  Z " stroke-width="1" stroke="#797979" fill="none" />
  <path d="M 19113 2262  C 19111.32 2262  19110 2260.68  19110 2259  C 19110 2257.32  19111.32 2256  19113 2256  C 19114.68 2256  19116 2257.32  19116 2259  C 19116 2260.68  19114.68 2262  19113 2262  " fill-rule="nonzero" fill="#797979" stroke="none" />
</svg>