<?xml version="1.0" encoding="utf-8"?>
<svg version="1.1" xmlns:xlink="http://www.w3.org/1999/xlink" width="12px" height="12px" viewBox="19025 2253  12 12" xmlns="http://www.w3.org/2000/svg">
  <path d="M 19031 2253  C 19034.36 2253  19037 2255.64  19037 2259  C 19037 2262.36  19034.36 2265  19031 2265  C 19027.64 2265  19025 2262.36  19025 2259  C 19025 2255.64  19027.64 2253  19031 2253  Z " fill-rule="nonzero" fill="#f0f0f0" stroke="none" />
  <path d="M 19031 2253.5  C 19034.08 2253.5  19036.5 2255.92  19036.5 2259  C 19036.5 2262.08  19034.08 2264.5  19031 2264.5  C 19027.92 2264.5  19025.5 2262.08  19025.5 2259  C 19025.5 2255.92  19027.92 2253.5  19031 2253.5  Z " stroke-width="1" stroke="#797979" fill="none" />
  <path d="M 19031 2262  C 19029.32 2262  19028 2260.68  19028 2259  C 19028 2257.32  19029.32 2256  19031 2256  C 19032.68 2256  19034 2257.32  19034 2259  C 19034 2260.68  19032.68 2262  19031 2262  " fill-rule="nonzero" fill="#797979" stroke="none" />
</svg>