<?xml version="1.0" encoding="utf-8"?>
<svg version="1.1" xmlns:xlink="http://www.w3.org/1999/xlink" width="12px" height="12px" viewBox="598 319  12 12" xmlns="http://www.w3.org/2000/svg">
  <path d="M 604 319  C 607.36 319  610 321.64  610 325  C 610 328.36  607.36 331  604 331  C 600.64 331  598 328.36  598 325  C 598 321.64  600.64 319  604 319  Z " fill-rule="nonzero" fill="#f0f0f0" stroke="none" />
  <path d="M 604 319.5  C 607.08 319.5  609.5 321.92  609.5 325  C 609.5 328.08  607.08 330.5  604 330.5  C 600.92 330.5  598.5 328.08  598.5 325  C 598.5 321.92  600.92 319.5  604 319.5  Z " stroke-width="1" stroke="#797979" fill="none" />
  <path d="M 604 328  C 602.32 328  601 326.68  601 325  C 601 323.32  602.32 322  604 322  C 605.68 322  607 323.32  607 325  C 607 326.68  605.68 328  604 328  " fill-rule="nonzero" fill="#797979" stroke="none" />
</svg>