<?xml version="1.0" encoding="utf-8"?>
<svg version="1.1" xmlns:xlink="http://www.w3.org/1999/xlink" width="12px" height="12px" viewBox="689 985  12 12" xmlns="http://www.w3.org/2000/svg">
  <path d="M 695 985  C 698.36 985  701 987.64  701 991  C 701 994.36  698.36 997  695 997  C 691.64 997  689 994.36  689 991  C 689 987.64  691.64 985  695 985  Z " fill-rule="nonzero" fill="#ffffff" stroke="none" />
  <path d="M 695 985.5  C 698.08 985.5  700.5 987.92  700.5 991  C 700.5 994.08  698.08 996.5  695 996.5  C 691.92 996.5  689.5 994.08  689.5 991  C 689.5 987.92  691.92 985.5  695 985.5  Z " stroke-width="1" stroke="#797979" fill="none" />
  <path d="M 695 994  C 693.32 994  692 992.68  692 991  C 692 989.32  693.32 988  695 988  C 696.68 988  698 989.32  698 991  C 698 992.68  696.68 994  695 994  " fill-rule="nonzero" fill="#797979" stroke="none" />
</svg>