<?xml version="1.0" encoding="utf-8"?>
<svg version="1.1" xmlns:xlink="http://www.w3.org/1999/xlink" width="12px" height="12px" viewBox="1160 985  12 12" xmlns="http://www.w3.org/2000/svg">
  <path d="M 1166 985  C 1169.36 985  1172 987.64  1172 991  C 1172 994.36  1169.36 997  1166 997  C 1162.64 997  1160 994.36  1160 991  C 1160 987.64  1162.64 985  1166 985  Z " fill-rule="nonzero" fill="#ffffff" stroke="none" />
  <path d="M 1166 985.5  C 1169.08 985.5  1171.5 987.92  1171.5 991  C 1171.5 994.08  1169.08 996.5  1166 996.5  C 1162.92 996.5  1160.5 994.08  1160.5 991  C 1160.5 987.92  1162.92 985.5  1166 985.5  Z " stroke-width="1" stroke="#797979" fill="none" />
  <path d="M 1166 994  C 1164.32 994  1163 992.68  1163 991  C 1163 989.32  1164.32 988  1166 988  C 1167.68 988  1169 989.32  1169 991  C 1169 992.68  1167.68 994  1166 994  " fill-rule="nonzero" fill="#797979" stroke="none" />
</svg>