<?xml version="1.0" encoding="utf-8"?>
<svg version="1.1" xmlns:xlink="http://www.w3.org/1999/xlink" width="12px" height="12px" viewBox="592 492  12 12" xmlns="http://www.w3.org/2000/svg">
  <path d="M 598 492  C 601.36 492  604 494.64  604 498  C 604 501.36  601.36 504  598 504  C 594.64 504  592 501.36  592 498  C 592 494.64  594.64 492  598 492  Z " fill-rule="nonzero" fill="#ffffff" stroke="none" />
  <path d="M 598 492.5  C 601.08 492.5  603.5 494.92  603.5 498  C 603.5 501.08  601.08 503.5  598 503.5  C 594.92 503.5  592.5 501.08  592.5 498  C 592.5 494.92  594.92 492.5  598 492.5  Z " stroke-width="1" stroke="#797979" fill="none" />
  <path d="M 598 501  C 596.32 501  595 499.68  595 498  C 595 496.32  596.32 495  598 495  C 599.68 495  601 496.32  601 498  C 601 499.68  599.68 501  598 501  " fill-rule="nonzero" fill="#797979" stroke="none" />
</svg>