<?xml version="1.0" encoding="utf-8"?>
<svg version="1.1" xmlns:xlink="http://www.w3.org/1999/xlink" width="12px" height="12px" viewBox="674 492  12 12" xmlns="http://www.w3.org/2000/svg">
  <path d="M 680 492  C 683.36 492  686 494.64  686 498  C 686 501.36  683.36 504  680 504  C 676.64 504  674 501.36  674 498  C 674 494.64  676.64 492  680 492  Z " fill-rule="nonzero" fill="#f0f0f0" stroke="none" />
  <path d="M 680 492.5  C 683.08 492.5  685.5 494.92  685.5 498  C 685.5 501.08  683.08 503.5  680 503.5  C 676.92 503.5  674.5 501.08  674.5 498  C 674.5 494.92  676.92 492.5  680 492.5  Z " stroke-width="1" stroke="#797979" fill="none" />
  <path d="M 680 501  C 678.32 501  677 499.68  677 498  C 677 496.32  678.32 495  680 495  C 681.68 495  683 496.32  683 498  C 683 499.68  681.68 501  680 501  " fill-rule="nonzero" fill="#797979" stroke="none" />
</svg>