<?xml version="1.0" encoding="utf-8"?>
<svg version="1.1" xmlns:xlink="http://www.w3.org/1999/xlink" width="12px" height="12px" viewBox="686 1096  12 12" xmlns="http://www.w3.org/2000/svg">
  <path d="M 692 1096  C 695.36 1096  698 1098.64  698 1102  C 698 1105.36  695.36 1108  692 1108  C 688.64 1108  686 1105.36  686 1102  C 686 1098.64  688.64 1096  692 1096  Z " fill-rule="nonzero" fill="#f0f0f0" stroke="none" />
  <path d="M 692 1096.5  C 695.08 1096.5  697.5 1098.92  697.5 1102  C 697.5 1105.08  695.08 1107.5  692 1107.5  C 688.92 1107.5  686.5 1105.08  686.5 1102  C 686.5 1098.92  688.92 1096.5  692 1096.5  Z " stroke-width="1" stroke="#797979" fill="none" />
  <path d="M 692 1105  C 690.32 1105  689 1103.68  689 1102  C 689 1100.32  690.32 1099  692 1099  C 693.68 1099  695 1100.32  695 1102  C 695 1103.68  693.68 1105  692 1105  " fill-rule="nonzero" fill="#797979" stroke="none" />
</svg>