<?xml version="1.0" encoding="utf-8"?>
<svg version="1.1" xmlns:xlink="http://www.w3.org/1999/xlink" width="70px" height="25px" xmlns="http://www.w3.org/2000/svg">
  <g transform="matrix(1 0 0 1 -575 513 )">
    <path d="M 576 -505  A 7 7 0 0 1 583 -512 L 637 -512  A 7 7 0 0 1 644 -505 L 644 -496  A 7 7 0 0 1 637 -489 L 583 -489  A 7 7 0 0 1 576 -496 L 576 -505  Z " fill-rule="nonzero" fill="#81d3f8" stroke="none" fill-opacity="0.168627450980392" />
    <path d="M 575.5 -505  A 7.5 7.5 0 0 1 583 -512.5 L 637 -512.5  A 7.5 7.5 0 0 1 644.5 -505 L 644.5 -496  A 7.5 7.5 0 0 1 637 -488.5 L 583 -488.5  A 7.5 7.5 0 0 1 575.5 -496 L 575.5 -505  Z " stroke-width="1" stroke="#0079fe" fill="none" stroke-opacity="0.654901960784314" />
  </g>
</svg>