<?xml version="1.0" encoding="utf-8"?>
<svg version="1.1" xmlns:xlink="http://www.w3.org/1999/xlink" width="12px" height="12px" viewBox="640 -843  12 12" xmlns="http://www.w3.org/2000/svg">
  <path d="M 646 -843  C 649.36 -843  652 -840.36  652 -837  C 652 -833.64  649.36 -831  646 -831  C 642.64 -831  640 -833.64  640 -837  C 640 -840.36  642.64 -843  646 -843  Z " fill-rule="nonzero" fill="#ffffff" stroke="none" />
  <path d="M 646 -842.5  C 649.08 -842.5  651.5 -840.08  651.5 -837  C 651.5 -833.92  649.08 -831.5  646 -831.5  C 642.92 -831.5  640.5 -833.92  640.5 -837  C 640.5 -840.08  642.92 -842.5  646 -842.5  Z " stroke-width="1" stroke="#797979" fill="none" />
  <path d="M 646 -834  C 644.32 -834  643 -835.32  643 -837  C 643 -838.68  644.32 -840  646 -840  C 647.68 -840  649 -838.68  649 -837  C 649 -835.32  647.68 -834  646 -834  " fill-rule="nonzero" fill="#797979" stroke="none" />
</svg>