<?xml version="1.0" encoding="utf-8"?>
<svg version="1.1" xmlns:xlink="http://www.w3.org/1999/xlink" width="12px" height="12px" viewBox="567 -292  12 12" xmlns="http://www.w3.org/2000/svg">
  <path d="M 573 -292  C 576.36 -292  579 -289.36  579 -286  C 579 -282.64  576.36 -280  573 -280  C 569.64 -280  567 -282.64  567 -286  C 567 -289.36  569.64 -292  573 -292  Z " fill-rule="nonzero" fill="#ffffff" stroke="none" />
  <path d="M 573 -291.5  C 576.08 -291.5  578.5 -289.08  578.5 -286  C 578.5 -282.92  576.08 -280.5  573 -280.5  C 569.92 -280.5  567.5 -282.92  567.5 -286  C 567.5 -289.08  569.92 -291.5  573 -291.5  Z " stroke-width="1" stroke="#797979" fill="none" />
  <path d="M 573 -283  C 571.32 -283  570 -284.32  570 -286  C 570 -287.68  571.32 -289  573 -289  C 574.68 -289  576 -287.68  576 -286  C 576 -284.32  574.68 -283  573 -283  " fill-rule="nonzero" fill="#797979" stroke="none" />
</svg>