<?xml version="1.0" encoding="utf-8"?>
<svg version="1.1" xmlns:xlink="http://www.w3.org/1999/xlink" width="12px" height="12px" viewBox="567 -177  12 12" xmlns="http://www.w3.org/2000/svg">
  <path d="M 573 -177  C 576.36 -177  579 -174.36  579 -171  C 579 -167.64  576.36 -165  573 -165  C 569.64 -165  567 -167.64  567 -171  C 567 -174.36  569.64 -177  573 -177  Z " fill-rule="nonzero" fill="#f0f0f0" stroke="none" />
  <path d="M 573 -176.5  C 576.08 -176.5  578.5 -174.08  578.5 -171  C 578.5 -167.92  576.08 -165.5  573 -165.5  C 569.92 -165.5  567.5 -167.92  567.5 -171  C 567.5 -174.08  569.92 -176.5  573 -176.5  Z " stroke-width="1" stroke="#797979" fill="none" />
  <path d="M 573 -168  C 571.32 -168  570 -169.32  570 -171  C 570 -172.68  571.32 -174  573 -174  C 574.68 -174  576 -172.68  576 -171  C 576 -169.32  574.68 -168  573 -168  " fill-rule="nonzero" fill="#797979" stroke="none" />
</svg>