<?xml version="1.0" encoding="utf-8"?>
<svg version="1.1" xmlns:xlink="http://www.w3.org/1999/xlink" width="12px" height="12px" viewBox="1120 -177  12 12" xmlns="http://www.w3.org/2000/svg">
  <path d="M 1126 -177  C 1129.36 -177  1132 -174.36  1132 -171  C 1132 -167.64  1129.36 -165  1126 -165  C 1122.64 -165  1120 -167.64  1120 -171  C 1120 -174.36  1122.64 -177  1126 -177  Z " fill-rule="nonzero" fill="#f0f0f0" stroke="none" />
  <path d="M 1126 -176.5  C 1129.08 -176.5  1131.5 -174.08  1131.5 -171  C 1131.5 -167.92  1129.08 -165.5  1126 -165.5  C 1122.92 -165.5  1120.5 -167.92  1120.5 -171  C 1120.5 -174.08  1122.92 -176.5  1126 -176.5  Z " stroke-width="1" stroke="#797979" fill="none" />
  <path d="M 1126 -168  C 1124.32 -168  1123 -169.32  1123 -171  C 1123 -172.68  1124.32 -174  1126 -174  C 1127.68 -174  1129 -172.68  1129 -171  C 1129 -169.32  1127.68 -168  1126 -168  " fill-rule="nonzero" fill="#797979" stroke="none" />
</svg>