<?xml version="1.0" encoding="utf-8"?>
<svg version="1.1" xmlns:xlink="http://www.w3.org/1999/xlink" width="12px" height="12px" viewBox="552 -670  12 12" xmlns="http://www.w3.org/2000/svg">
  <path d="M 558 -670  C 561.36 -670  564 -667.36  564 -664  C 564 -660.64  561.36 -658  558 -658  C 554.64 -658  552 -660.64  552 -664  C 552 -667.36  554.64 -670  558 -670  Z " fill-rule="nonzero" fill="#ffffff" stroke="none" />
  <path d="M 558 -669.5  C 561.08 -669.5  563.5 -667.08  563.5 -664  C 563.5 -660.92  561.08 -658.5  558 -658.5  C 554.92 -658.5  552.5 -660.92  552.5 -664  C 552.5 -667.08  554.92 -669.5  558 -669.5  Z " stroke-width="1" stroke="#797979" fill="none" />
  <path d="M 558 -661  C 556.32 -661  555 -662.32  555 -664  C 555 -665.68  556.32 -667  558 -667  C 559.68 -667  561 -665.68  561 -664  C 561 -662.32  559.68 -661  558 -661  " fill-rule="nonzero" fill="#797979" stroke="none" />
</svg>