<?xml version="1.0" encoding="utf-8"?>
<svg version="1.1" xmlns:xlink="http://www.w3.org/1999/xlink" width="12px" height="12px" viewBox="634 -670  12 12" xmlns="http://www.w3.org/2000/svg">
  <path d="M 640 -670  C 643.36 -670  646 -667.36  646 -664  C 646 -660.64  643.36 -658  640 -658  C 636.64 -658  634 -660.64  634 -664  C 634 -667.36  636.64 -670  640 -670  Z " fill-rule="nonzero" fill="#ffffff" stroke="none" />
  <path d="M 640 -669.5  C 643.08 -669.5  645.5 -667.08  645.5 -664  C 645.5 -660.92  643.08 -658.5  640 -658.5  C 636.92 -658.5  634.5 -660.92  634.5 -664  C 634.5 -667.08  636.92 -669.5  640 -669.5  Z " stroke-width="1" stroke="#797979" fill="none" />
  <path d="M 640 -661  C 638.32 -661  637 -662.32  637 -664  C 637 -665.68  638.32 -667  640 -667  C 641.68 -667  643 -665.68  643 -664  C 643 -662.32  641.68 -661  640 -661  " fill-rule="nonzero" fill="#797979" stroke="none" />
</svg>