<?xml version="1.0" encoding="utf-8"?>
<svg version="1.1" xmlns:xlink="http://www.w3.org/1999/xlink" width="12px" height="12px" viewBox="10451 142  12 12" xmlns="http://www.w3.org/2000/svg">
  <path d="M 10457 142  C 10460.36 142  10463 144.64  10463 148  C 10463 151.36  10460.36 154  10457 154  C 10453.64 154  10451 151.36  10451 148  C 10451 144.64  10453.64 142  10457 142  Z " fill-rule="nonzero" fill="#f0f0f0" stroke="none" />
  <path d="M 10457 142.5  C 10460.08 142.5  10462.5 144.92  10462.5 148  C 10462.5 151.08  10460.08 153.5  10457 153.5  C 10453.92 153.5  10451.5 151.08  10451.5 148  C 10451.5 144.92  10453.92 142.5  10457 142.5  Z " stroke-width="1" stroke="#797979" fill="none" />
  <path d="M 10457 151  C 10455.32 151  10454 149.68  10454 148  C 10454 146.32  10455.32 145  10457 145  C 10458.68 145  10460 146.32  10460 148  C 10460 149.68  10458.68 151  10457 151  " fill-rule="nonzero" fill="#797979" stroke="none" />
</svg>