<?xml version="1.0" encoding="utf-8"?>
<svg version="1.1" xmlns:xlink="http://www.w3.org/1999/xlink" width="12px" height="12px" viewBox="10533 142  12 12" xmlns="http://www.w3.org/2000/svg">
  <path d="M 10539 142  C 10542.36 142  10545 144.64  10545 148  C 10545 151.36  10542.36 154  10539 154  C 10535.64 154  10533 151.36  10533 148  C 10533 144.64  10535.64 142  10539 142  Z " fill-rule="nonzero" fill="#ffffff" stroke="none" />
  <path d="M 10539 142.5  C 10542.08 142.5  10544.5 144.92  10544.5 148  C 10544.5 151.08  10542.08 153.5  10539 153.5  C 10535.92 153.5  10533.5 151.08  10533.5 148  C 10533.5 144.92  10535.92 142.5  10539 142.5  Z " stroke-width="1" stroke="#797979" fill="none" />
  <path d="M 10539 151  C 10537.32 151  10536 149.68  10536 148  C 10536 146.32  10537.32 145  10539 145  C 10540.68 145  10542 146.32  10542 148  C 10542 149.68  10540.68 151  10539 151  " fill-rule="nonzero" fill="#797979" stroke="none" />
</svg>