<?xml version="1.0" encoding="utf-8"?>
<svg version="1.1" xmlns:xlink="http://www.w3.org/1999/xlink" width="12px" height="12px" viewBox="11070 145  12 12" xmlns="http://www.w3.org/2000/svg">
  <path d="M 11076 145  C 11079.36 145  11082 147.64  11082 151  C 11082 154.36  11079.36 157  11076 157  C 11072.64 157  11070 154.36  11070 151  C 11070 147.64  11072.64 145  11076 145  Z " fill-rule="nonzero" fill="#f0f0f0" stroke="none" />
  <path d="M 11076 145.5  C 11079.08 145.5  11081.5 147.92  11081.5 151  C 11081.5 154.08  11079.08 156.5  11076 156.5  C 11072.92 156.5  11070.5 154.08  11070.5 151  C 11070.5 147.92  11072.92 145.5  11076 145.5  Z " stroke-width="1" stroke="#797979" fill="none" />
  <path d="M 11076 154  C 11074.32 154  11073 152.68  11073 151  C 11073 149.32  11074.32 148  11076 148  C 11077.68 148  11079 149.32  11079 151  C 11079 152.68  11077.68 154  11076 154  " fill-rule="nonzero" fill="#797979" stroke="none" />
</svg>