<?xml version="1.0" encoding="utf-8"?>
<svg version="1.1" xmlns:xlink="http://www.w3.org/1999/xlink" width="12px" height="12px" viewBox="10533 195  12 12" xmlns="http://www.w3.org/2000/svg">
  <path d="M 10539 195  C 10542.36 195  10545 197.64  10545 201  C 10545 204.36  10542.36 207  10539 207  C 10535.64 207  10533 204.36  10533 201  C 10533 197.64  10535.64 195  10539 195  Z " fill-rule="nonzero" fill="#ffffff" stroke="none" />
  <path d="M 10539 195.5  C 10542.08 195.5  10544.5 197.92  10544.5 201  C 10544.5 204.08  10542.08 206.5  10539 206.5  C 10535.92 206.5  10533.5 204.08  10533.5 201  C 10533.5 197.92  10535.92 195.5  10539 195.5  Z " stroke-width="1" stroke="#797979" fill="none" />
  <path d="M 10539 204  C 10537.32 204  10536 202.68  10536 201  C 10536 199.32  10537.32 198  10539 198  C 10540.68 198  10542 199.32  10542 201  C 10542 202.68  10540.68 204  10539 204  " fill-rule="nonzero" fill="#797979" stroke="none" />
</svg>