<?xml version="1.0" encoding="utf-8"?>
<svg version="1.1" xmlns:xlink="http://www.w3.org/1999/xlink" width="12px" height="12px" viewBox="10451 346  12 12" xmlns="http://www.w3.org/2000/svg">
  <path d="M 10457 346  C 10460.36 346  10463 348.64  10463 352  C 10463 355.36  10460.36 358  10457 358  C 10453.64 358  10451 355.36  10451 352  C 10451 348.64  10453.64 346  10457 346  Z " fill-rule="nonzero" fill="#f0f0f0" stroke="none" />
  <path d="M 10457 346.5  C 10460.08 346.5  10462.5 348.92  10462.5 352  C 10462.5 355.08  10460.08 357.5  10457 357.5  C 10453.92 357.5  10451.5 355.08  10451.5 352  C 10451.5 348.92  10453.92 346.5  10457 346.5  Z " stroke-width="1" stroke="#797979" fill="none" />
  <path d="M 10457 355  C 10455.32 355  10454 353.68  10454 352  C 10454 350.32  10455.32 349  10457 349  C 10458.68 349  10460 350.32  10460 352  C 10460 353.68  10458.68 355  10457 355  " fill-rule="nonzero" fill="#797979" stroke="none" />
</svg>