<?xml version="1.0" encoding="utf-8"?>
<svg version="1.1" xmlns:xlink="http://www.w3.org/1999/xlink" width="12px" height="12px" viewBox="10533 346  12 12" xmlns="http://www.w3.org/2000/svg">
  <path d="M 10539 346  C 10542.36 346  10545 348.64  10545 352  C 10545 355.36  10542.36 358  10539 358  C 10535.64 358  10533 355.36  10533 352  C 10533 348.64  10535.64 346  10539 346  Z " fill-rule="nonzero" fill="#ffffff" stroke="none" />
  <path d="M 10539 346.5  C 10542.08 346.5  10544.5 348.92  10544.5 352  C 10544.5 355.08  10542.08 357.5  10539 357.5  C 10535.92 357.5  10533.5 355.08  10533.5 352  C 10533.5 348.92  10535.92 346.5  10539 346.5  Z " stroke-width="1" stroke="#797979" fill="none" />
  <path d="M 10539 355  C 10537.32 355  10536 353.68  10536 352  C 10536 350.32  10537.32 349  10539 349  C 10540.68 349  10542 350.32  10542 352  C 10542 353.68  10540.68 355  10539 355  " fill-rule="nonzero" fill="#797979" stroke="none" />
</svg>