<?xml version="1.0" encoding="utf-8"?>
<svg version="1.1" xmlns:xlink="http://www.w3.org/1999/xlink" width="12px" height="12px" viewBox="10984 1098  12 12" xmlns="http://www.w3.org/2000/svg">
  <path d="M 10990 1098  C 10993.36 1098  10996 1100.64  10996 1104  C 10996 1107.36  10993.36 1110  10990 1110  C 10986.64 1110  10984 1107.36  10984 1104  C 10984 1100.64  10986.64 1098  10990 1098  Z " fill-rule="nonzero" fill="#f0f0f0" stroke="none" />
  <path d="M 10990 1098.5  C 10993.08 1098.5  10995.5 1100.92  10995.5 1104  C 10995.5 1107.08  10993.08 1109.5  10990 1109.5  C 10986.92 1109.5  10984.5 1107.08  10984.5 1104  C 10984.5 1100.92  10986.92 1098.5  10990 1098.5  Z " stroke-width="1" stroke="#797979" fill="none" />
  <path d="M 10990 1107  C 10988.32 1107  10987 1105.68  10987 1104  C 10987 1102.32  10988.32 1101  10990 1101  C 10991.68 1101  10993 1102.32  10993 1104  C 10993 1105.68  10991.68 1107  10990 1107  " fill-rule="nonzero" fill="#797979" stroke="none" />
</svg>