<?xml version="1.0" encoding="utf-8"?>
<svg version="1.1" xmlns:xlink="http://www.w3.org/1999/xlink" width="12px" height="12px" viewBox="11066 1098  12 12" xmlns="http://www.w3.org/2000/svg">
  <path d="M 11072 1098  C 11075.36 1098  11078 1100.64  11078 1104  C 11078 1107.36  11075.36 1110  11072 1110  C 11068.64 1110  11066 1107.36  11066 1104  C 11066 1100.64  11068.64 1098  11072 1098  Z " fill-rule="nonzero" fill="#f0f0f0" stroke="none" />
  <path d="M 11072 1098.5  C 11075.08 1098.5  11077.5 1100.92  11077.5 1104  C 11077.5 1107.08  11075.08 1109.5  11072 1109.5  C 11068.92 1109.5  11066.5 1107.08  11066.5 1104  C 11066.5 1100.92  11068.92 1098.5  11072 1098.5  Z " stroke-width="1" stroke="#797979" fill="none" />
  <path d="M 11072 1107  C 11070.32 1107  11069 1105.68  11069 1104  C 11069 1102.32  11070.32 1101  11072 1101  C 11073.68 1101  11075 1102.32  11075 1104  C 11075 1105.68  11073.68 1107  11072 1107  " fill-rule="nonzero" fill="#797979" stroke="none" />
</svg>