<?xml version="1.0" encoding="utf-8"?>
<svg version="1.1" xmlns:xlink="http://www.w3.org/1999/xlink" width="12px" height="12px" viewBox="10462 1775  12 12" xmlns="http://www.w3.org/2000/svg">
  <path d="M 10468 1775  C 10471.36 1775  10474 1777.64  10474 1781  C 10474 1784.36  10471.36 1787  10468 1787  C 10464.64 1787  10462 1784.36  10462 1781  C 10462 1777.64  10464.64 1775  10468 1775  Z " fill-rule="nonzero" fill="#ffffff" stroke="none" />
  <path d="M 10468 1775.5  C 10471.08 1775.5  10473.5 1777.92  10473.5 1781  C 10473.5 1784.08  10471.08 1786.5  10468 1786.5  C 10464.92 1786.5  10462.5 1784.08  10462.5 1781  C 10462.5 1777.92  10464.92 1775.5  10468 1775.5  Z " stroke-width="1" stroke="#797979" fill="none" />
  <path d="M 10468 1784  C 10466.32 1784  10465 1782.68  10465 1781  C 10465 1779.32  10466.32 1778  10468 1778  C 10469.68 1778  10471 1779.32  10471 1781  C 10471 1782.68  10469.68 1784  10468 1784  " fill-rule="nonzero" fill="#797979" stroke="none" />
</svg>