<?xml version="1.0" encoding="utf-8"?>
<svg version="1.1" xmlns:xlink="http://www.w3.org/1999/xlink" width="12px" height="12px" viewBox="11860 136  12 12" xmlns="http://www.w3.org/2000/svg">
  <path d="M 11866 136  C 11869.36 136  11872 138.64  11872 142  C 11872 145.36  11869.36 148  11866 148  C 11862.64 148  11860 145.36  11860 142  C 11860 138.64  11862.64 136  11866 136  Z " fill-rule="nonzero" fill="#f0f0f0" stroke="none" />
  <path d="M 11866 136.5  C 11869.08 136.5  11871.5 138.92  11871.5 142  C 11871.5 145.08  11869.08 147.5  11866 147.5  C 11862.92 147.5  11860.5 145.08  11860.5 142  C 11860.5 138.92  11862.92 136.5  11866 136.5  Z " stroke-width="1" stroke="#797979" fill="none" />
  <path d="M 11866 145  C 11864.32 145  11863 143.68  11863 142  C 11863 140.32  11864.32 139  11866 139  C 11867.68 139  11869 140.32  11869 142  C 11869 143.68  11867.68 145  11866 145  " fill-rule="nonzero" fill="#797979" stroke="none" />
</svg>