<?xml version="1.0" encoding="utf-8"?>
<svg version="1.1" xmlns:xlink="http://www.w3.org/1999/xlink" width="12px" height="12px" viewBox="11942 136  12 12" xmlns="http://www.w3.org/2000/svg">
  <path d="M 11948 136  C 11951.36 136  11954 138.64  11954 142  C 11954 145.36  11951.36 148  11948 148  C 11944.64 148  11942 145.36  11942 142  C 11942 138.64  11944.64 136  11948 136  Z " fill-rule="nonzero" fill="#ffffff" stroke="none" />
  <path d="M 11948 136.5  C 11951.08 136.5  11953.5 138.92  11953.5 142  C 11953.5 145.08  11951.08 147.5  11948 147.5  C 11944.92 147.5  11942.5 145.08  11942.5 142  C 11942.5 138.92  11944.92 136.5  11948 136.5  Z " stroke-width="1" stroke="#797979" fill="none" />
  <path d="M 11948 145  C 11946.32 145  11945 143.68  11945 142  C 11945 140.32  11946.32 139  11948 139  C 11949.68 139  11951 140.32  11951 142  C 11951 143.68  11949.68 145  11948 145  " fill-rule="nonzero" fill="#797979" stroke="none" />
</svg>