<?xml version="1.0" encoding="utf-8"?>
<svg version="1.1" xmlns:xlink="http://www.w3.org/1999/xlink" width="12px" height="12px" viewBox="11860 193  12 12" xmlns="http://www.w3.org/2000/svg">
  <path d="M 11866 193  C 11869.36 193  11872 195.64  11872 199  C 11872 202.36  11869.36 205  11866 205  C 11862.64 205  11860 202.36  11860 199  C 11860 195.64  11862.64 193  11866 193  Z " fill-rule="nonzero" fill="#f0f0f0" stroke="none" />
  <path d="M 11866 193.5  C 11869.08 193.5  11871.5 195.92  11871.5 199  C 11871.5 202.08  11869.08 204.5  11866 204.5  C 11862.92 204.5  11860.5 202.08  11860.5 199  C 11860.5 195.92  11862.92 193.5  11866 193.5  Z " stroke-width="1" stroke="#797979" fill="none" />
  <path d="M 11866 202  C 11864.32 202  11863 200.68  11863 199  C 11863 197.32  11864.32 196  11866 196  C 11867.68 196  11869 197.32  11869 199  C 11869 200.68  11867.68 202  11866 202  " fill-rule="nonzero" fill="#797979" stroke="none" />
</svg>