<?xml version="1.0" encoding="utf-8"?>
<svg version="1.1" xmlns:xlink="http://www.w3.org/1999/xlink" width="12px" height="12px" viewBox="11942 193  12 12" xmlns="http://www.w3.org/2000/svg">
  <path d="M 11948 193  C 11951.36 193  11954 195.64  11954 199  C 11954 202.36  11951.36 205  11948 205  C 11944.64 205  11942 202.36  11942 199  C 11942 195.64  11944.64 193  11948 193  Z " fill-rule="nonzero" fill="#ffffff" stroke="none" />
  <path d="M 11948 193.5  C 11951.08 193.5  11953.5 195.92  11953.5 199  C 11953.5 202.08  11951.08 204.5  11948 204.5  C 11944.92 204.5  11942.5 202.08  11942.5 199  C 11942.5 195.92  11944.92 193.5  11948 193.5  Z " stroke-width="1" stroke="#797979" fill="none" />
  <path d="M 11948 202  C 11946.32 202  11945 200.68  11945 199  C 11945 197.32  11946.32 196  11948 196  C 11949.68 196  11951 197.32  11951 199  C 11951 200.68  11949.68 202  11948 202  " fill-rule="nonzero" fill="#797979" stroke="none" />
</svg>