<?xml version="1.0" encoding="utf-8"?>
<svg version="1.1" xmlns:xlink="http://www.w3.org/1999/xlink" width="12px" height="12px" viewBox="12404 193  12 12" xmlns="http://www.w3.org/2000/svg">
  <path d="M 12410 193  C 12413.36 193  12416 195.64  12416 199  C 12416 202.36  12413.36 205  12410 205  C 12406.64 205  12404 202.36  12404 199  C 12404 195.64  12406.64 193  12410 193  Z " fill-rule="nonzero" fill="#ffffff" stroke="none" />
  <path d="M 12410 193.5  C 12413.08 193.5  12415.5 195.92  12415.5 199  C 12415.5 202.08  12413.08 204.5  12410 204.5  C 12406.92 204.5  12404.5 202.08  12404.5 199  C 12404.5 195.92  12406.92 193.5  12410 193.5  Z " stroke-width="1" stroke="#797979" fill="none" />
  <path d="M 12410 202  C 12408.32 202  12407 200.68  12407 199  C 12407 197.32  12408.32 196  12410 196  C 12411.68 196  12413 197.32  12413 199  C 12413 200.68  12411.68 202  12410 202  " fill-rule="nonzero" fill="#797979" stroke="none" />
</svg>