<?xml version="1.0" encoding="utf-8"?>
<svg version="1.1" xmlns:xlink="http://www.w3.org/1999/xlink" width="12px" height="12px" viewBox="12486 193  12 12" xmlns="http://www.w3.org/2000/svg">
  <path d="M 12492 193  C 12495.36 193  12498 195.64  12498 199  C 12498 202.36  12495.36 205  12492 205  C 12488.64 205  12486 202.36  12486 199  C 12486 195.64  12488.64 193  12492 193  Z " fill-rule="nonzero" fill="#ffffff" stroke="none" />
  <path d="M 12492 193.5  C 12495.08 193.5  12497.5 195.92  12497.5 199  C 12497.5 202.08  12495.08 204.5  12492 204.5  C 12488.92 204.5  12486.5 202.08  12486.5 199  C 12486.5 195.92  12488.92 193.5  12492 193.5  Z " stroke-width="1" stroke="#797979" fill="none" />
  <path d="M 12492 202  C 12490.32 202  12489 200.68  12489 199  C 12489 197.32  12490.32 196  12492 196  C 12493.68 196  12495 197.32  12495 199  C 12495 200.68  12493.68 202  12492 202  " fill-rule="nonzero" fill="#797979" stroke="none" />
</svg>