<?xml version="1.0" encoding="utf-8"?>
<svg version="1.1" xmlns:xlink="http://www.w3.org/1999/xlink" width="331px" height="42px" xmlns="http://www.w3.org/2000/svg">
  <g transform="matrix(1 0 0 1 -66 -2680 )">
    <path d="M 67 2684  A 3 3 0 0 1 70 2681 L 393 2681  A 3 3 0 0 1 396 2684 L 396 2718  A 3 3 0 0 1 393 2721 L 70 2721  A 3 3 0 0 1 67 2718 L 67 2684  Z " fill-rule="nonzero" fill="#000000" stroke="none" fill-opacity="0.0196078431372549" />
    <path d="M 66.5 2684  A 3.5 3.5 0 0 1 70 2680.5 L 393 2680.5  A 3.5 3.5 0 0 1 396.5 2684 L 396.5 2718  A 3.5 3.5 0 0 1 393 2721.5 L 70 2721.5  A 3.5 3.5 0 0 1 66.5 2718 L 66.5 2684  Z " stroke-width="1" stroke-dasharray="9,4" stroke="#3498db" fill="none" stroke-dashoffset="0.5" />
  </g>
</svg>