<?xml version="1.0" encoding="utf-8"?>
<svg version="1.1" xmlns:xlink="http://www.w3.org/1999/xlink" width="12px" height="12px" viewBox="218 1654  12 12" xmlns="http://www.w3.org/2000/svg">
  <path d="M 224 1654  C 227.36 1654  230 1656.64  230 1660  C 230 1663.36  227.36 1666  224 1666  C 220.64 1666  218 1663.36  218 1660  C 218 1656.64  220.64 1654  224 1654  Z " fill-rule="nonzero" fill="#f0f0f0" stroke="none" />
  <path d="M 224 1654.5  C 227.08 1654.5  229.5 1656.92  229.5 1660  C 229.5 1663.08  227.08 1665.5  224 1665.5  C 220.92 1665.5  218.5 1663.08  218.5 1660  C 218.5 1656.92  220.92 1654.5  224 1654.5  Z " stroke-width="1" stroke="#797979" fill="none" />
  <path d="M 224 1663  C 222.32 1663  221 1661.68  221 1660  C 221 1658.32  222.32 1657  224 1657  C 225.68 1657  227 1658.32  227 1660  C 227 1661.68  225.68 1663  224 1663  " fill-rule="nonzero" fill="#797979" stroke="none" />
</svg>