<?xml version="1.0" encoding="utf-8"?>
<svg version="1.1" xmlns:xlink="http://www.w3.org/1999/xlink" width="104px" height="104px" xmlns="http://www.w3.org/2000/svg">
  <g transform="matrix(1 0 0 1 -67 -1788 )">
    <path d="M 68 1792  A 3 3 0 0 1 71 1789 L 167 1789  A 3 3 0 0 1 170 1792 L 170 1888  A 3 3 0 0 1 167 1891 L 71 1891  A 3 3 0 0 1 68 1888 L 68 1792  Z " fill-rule="nonzero" fill="#000000" stroke="none" fill-opacity="0.0196078431372549" />
    <path d="M 67.5 1792  A 3.5 3.5 0 0 1 71 1788.5 L 167 1788.5  A 3.5 3.5 0 0 1 170.5 1792 L 170.5 1888  A 3.5 3.5 0 0 1 167 1891.5 L 71 1891.5  A 3.5 3.5 0 0 1 67.5 1888 L 67.5 1792  Z " stroke-width="1" stroke-dasharray="9,4" stroke="#d9d9d9" fill="none" stroke-dashoffset="0.5" />
  </g>
</svg>