<?xml version="1.0" encoding="utf-8"?>
<svg version="1.1" xmlns:xlink="http://www.w3.org/1999/xlink" width="331px" height="42px" xmlns="http://www.w3.org/2000/svg">
  <g transform="matrix(1 0 0 1 -66 -2578 )">
    <path d="M 67 2582  A 3 3 0 0 1 70 2579 L 393 2579  A 3 3 0 0 1 396 2582 L 396 2616  A 3 3 0 0 1 393 2619 L 70 2619  A 3 3 0 0 1 67 2616 L 67 2582  Z " fill-rule="nonzero" fill="#000000" stroke="none" fill-opacity="0.0196078431372549" />
    <path d="M 66.5 2582  A 3.5 3.5 0 0 1 70 2578.5 L 393 2578.5  A 3.5 3.5 0 0 1 396.5 2582 L 396.5 2616  A 3.5 3.5 0 0 1 393 2619.5 L 70 2619.5  A 3.5 3.5 0 0 1 66.5 2616 L 66.5 2582  Z " stroke-width="1" stroke-dasharray="9,4" stroke="#3498db" fill="none" stroke-dashoffset="0.5" />
  </g>
</svg>