<?xml version="1.0" encoding="utf-8"?>
<svg version="1.1" xmlns:xlink="http://www.w3.org/1999/xlink" width="24px" height="21px" xmlns="http://www.w3.org/2000/svg">
  <g transform="matrix(1 0 0 1 -232 -1828 )">
    <path d="M 9.45625 9.54717548076923  C 10.1604166666667 8.83623798076923  11.0083333333333 8.48076923076923  12 8.48076923076923  C 12.9916666666667 8.48076923076923  13.8395833333333 8.83623798076923  14.54375 9.54717548076923  C 15.2479166666667 10.2581129807692  15.6 11.1141826923077  15.6 12.1153846153846  C 15.6 13.1165865384615  15.2479166666667 13.97265625  14.54375 14.68359375  C 13.8395833333333 15.39453125  12.9916666666667 15.75  12 15.75  C 11.0083333333333 15.75  10.1604166666667 15.39453125  9.45625 14.68359375  C 8.75208333333333 13.97265625  8.4 13.1165865384615  8.4 12.1153846153846  C 8.4 11.1141826923077  8.75208333333333 10.2581129807692  9.45625 9.54717548076923  Z M 18 3.23076923076923  L 20.8 3.23076923076923  C 21.6833333333333 3.23076923076923  22.4375 3.54627403846154  23.0625 4.17728365384616  C 23.6875 4.80829326923077  24 5.56971153846154  24 6.46153846153846  L 24 17.7692307692308  C 24 18.6610576923077  23.6875 19.4224759615385  23.0625 20.0534855769231  C 22.4375 20.6844951923077  21.6833333333333 21  20.8 21  L 3.2 21  C 2.31666666666667 21  1.5625 20.6844951923077  0.9375 20.0534855769231  C 0.3125 19.4224759615385  0 18.6610576923077  0 17.7692307692308  L 0 6.46153846153846  C 0 5.56971153846154  0.3125 4.80829326923077  0.9375 4.17728365384616  C 1.5625 3.54627403846154  2.31666666666667 3.23076923076923  3.2 3.23076923076923  L 6 3.23076923076923  L 6.6375 1.51442307692308  C 6.79583333333333 1.10216346153846  7.08541666666667 0.74669471153846  7.50625 0.448016826923076  C 7.92708333333333 0.149338942307694  8.35833333333333 0  8.8 0  L 15.2 0  C 15.6416666666667 0  16.0729166666667 0.149338942307694  16.49375 0.448016826923076  C 16.9145833333333 0.74669471153846  17.2041666666667 1.10216346153846  17.3625 1.51442307692308  L 18 3.23076923076923  Z M 8.04375 16.1096754807692  C 9.13958333333333 17.2160456730769  10.4583333333333 17.7692307692308  12 17.7692307692308  C 13.5416666666667 17.7692307692308  14.8604166666667 17.2160456730769  15.95625 16.1096754807692  C 17.0520833333333 15.0033052884615  17.6 13.671875  17.6 12.1153846153846  C 17.6 10.5588942307692  17.0520833333333 9.22746394230769  15.95625 8.12109375  C 14.8604166666667 7.01472355769231  13.5416666666667 6.46153846153846  12 6.46153846153846  C 10.4583333333333 6.46153846153846  9.13958333333333 7.01472355769231  8.04375 8.12109375  C 6.94791666666667 9.22746394230769  6.4 10.5588942307692  6.4 12.1153846153846  C 6.4 13.671875  6.94791666666667 15.0033052884615  8.04375 16.1096754807692  Z " fill-rule="nonzero" fill="#bababa" stroke="none" transform="matrix(1 0 0 1 232 1828 )" />
  </g>
</svg>