<?xml version="1.0" encoding="utf-8"?>
<svg version="1.1" xmlns:xlink="http://www.w3.org/1999/xlink" width="80px" height="35px" xmlns="http://www.w3.org/2000/svg">
  <g transform="matrix(1 0 0 1 -951 -333 )">
    <path d="M 951.5 338  A 4.5 4.5 0 0 1 956 333.5 L 1026 333.5  A 4.5 4.5 0 0 1 1030.5 338 L 1030.5 363  A 4.5 4.5 0 0 1 1026 367.5 L 956 367.5  A 4.5 4.5 0 0 1 951.5 363 L 951.5 338  Z " fill-rule="nonzero" fill="#f0f7ff" stroke="none" />
    <path d="M 951.5 338  A 4.5 4.5 0 0 1 956 333.5 L 1026 333.5  A 4.5 4.5 0 0 1 1030.5 338 L 1030.5 363  A 4.5 4.5 0 0 1 1026 367.5 L 956 367.5  A 4.5 4.5 0 0 1 951.5 363 L 951.5 338  Z " stroke-width="1" stroke="#409eff" fill="none" />
  </g>
</svg>