<?xml version="1.0" encoding="utf-8"?>
<svg version="1.1" xmlns:xlink="http://www.w3.org/1999/xlink" width="575px" height="570px" xmlns="http://www.w3.org/2000/svg">
  <g>
    <path d="M 0.5 505.0697292863  C 0.5 505.0697292863  0.5 5  0.5 5  C 0.5 2.51471862576143  2.51471862576143 0.5  5 0.5  C 5 0.5  570 0.5  570 0.5  C 572.485281374239 0.5  574.5 2.51471862576143  574.5 5  C 574.5 5  574.5 505.0697292863  574.5 505.0697292863  C 574.5 507.555010660539  572.485281374239 509.5697292863  570 509.5697292863  C 570 509.5697292863  477.48847079718 509.5697292863  477.48847079718 509.5697292863  C 477.48847079718 509.5697292863  468.226525351824 562.028270759454  468.226525351824 562.028270759454  C 468.226525351824 562.028270759454  458.322358787255 509.5697292863  458.322358787255 509.5697292863  C 458.322358787255 509.5697292863  5 509.5697292863  5 509.5697292863  C 2.51471862576143 509.5697292863  0.5 507.555010660539  0.5 505.0697292863  Z " fill-rule="nonzero" fill="#ffffff" stroke="none" />
    <path d="M 0 505.0697292863  C 0 505.0697292863  0 5  0 5  C 0 2.23857625084603  2.23857625084603 0  5 0  C 5 0  570 0  570 0  C 572.761423749154 0  575 2.23857625084603  575 5  C 575 5  575 505.0697292863  575 505.0697292863  C 575 507.831153035454  572.761423749154 510.0697292863  570 510.0697292863  C 570 510.0697292863  477.907925407925 510.0697292863  477.907925407925 510.0697292863  C 477.907925407925 510.0697292863  468.243006993007 564.810661037076  468.243006993007 564.810661037076  C 468.243006993007 564.810661037076  457.907925407925 510.0697292863  457.907925407925 510.0697292863  C 457.907925407925 510.0697292863  5 510.0697292863  5 510.0697292863  C 2.23857625084603 510.0697292863  0 507.831153035454  0 505.0697292863  Z M 1 505.0697292863  C 1 507.278868285624  2.79086100067683 509.0697292863  5 509.0697292863  C 5 509.0697292863  458.736792166583 509.0697292863  458.736792166583 509.0697292863  C 458.736792166583 509.0697292863  468.210043710641 559.245880481833  468.210043710641 559.245880481833  C 468.210043710641 559.245880481833  477.069016186435 509.0697292863  477.069016186435 509.0697292863  C 477.069016186435 509.0697292863  570 509.0697292863  570 509.0697292863  C 572.209138999323 509.0697292863  574 507.278868285624  574 505.0697292863  C 574 505.0697292863  574 5  574 5  C 574 2.79086100067683  572.209138999323 1  570 1  C 570 1  5 1  5 1  C 2.79086100067683 1  1 2.79086100067683  1 5  C 1 5  1 505.0697292863  1 505.0697292863  Z " fill-rule="nonzero" fill="#d7d7d7" stroke="none" />
  </g>
</svg>