<?xml version="1.0" encoding="utf-8"?>
<svg version="1.1" xmlns:xlink="http://www.w3.org/1999/xlink" width="14px" height="14px" xmlns="http://www.w3.org/2000/svg">
  <g transform="matrix(1 0 0 1 -439 -32 )">
    <path d="M 446 33  C 449.36 33  452 35.64  452 39  C 452 42.36  449.36 45  446 45  C 442.64 45  440 42.36  440 39  C 440 35.64  442.64 33  446 33  Z " fill-rule="nonzero" fill="#0d0d51" stroke="none" />
    <path d="M 446 33  C 449.36 33  452 35.64  452 39  C 452 42.36  449.36 45  446 45  C 442.64 45  440 42.36  440 39  C 440 35.64  442.64 33  446 33  Z " stroke-width="2" stroke="#ffffff" fill="none" />
  </g>
</svg>