<?xml version="1.0" encoding="utf-8"?>
<svg version="1.1" xmlns:xlink="http://www.w3.org/1999/xlink" width="331px" height="104px" xmlns="http://www.w3.org/2000/svg">
  <g transform="matrix(1 0 0 1 -122 -573 )">
    <path d="M 123 577  A 3 3 0 0 1 126 574 L 449 574  A 3 3 0 0 1 452 577 L 452 673  A 3 3 0 0 1 449 676 L 126 676  A 3 3 0 0 1 123 673 L 123 577  Z " fill-rule="nonzero" fill="#000000" stroke="none" fill-opacity="0.0196078431372549" />
    <path d="M 122.5 577  A 3.5 3.5 0 0 1 126 573.5 L 449 573.5  A 3.5 3.5 0 0 1 452.5 577 L 452.5 673  A 3.5 3.5 0 0 1 449 676.5 L 126 676.5  A 3.5 3.5 0 0 1 122.5 673 L 122.5 577  Z " stroke-width="1" stroke-dasharray="9,4" stroke="#d9d9d9" fill="none" stroke-dashoffset="0.5" />
  </g>
</svg>