<?xml version="1.0" encoding="utf-8"?>
<svg version="1.1" xmlns:xlink="http://www.w3.org/1999/xlink" width="969px" height="142px" xmlns="http://www.w3.org/2000/svg">
  <g transform="matrix(1 0 0 1 -2176 -1723 )">
    <path d="M 2177 1727  A 3 3 0 0 1 2180 1724 L 3141 1724  A 3 3 0 0 1 3144 1727 L 3144 1861  A 3 3 0 0 1 3141 1864 L 2180 1864  A 3 3 0 0 1 2177 1861 L 2177 1727  Z " fill-rule="nonzero" fill="#000000" stroke="none" fill-opacity="0.0196078431372549" />
    <path d="M 2176.5 1727  A 3.5 3.5 0 0 1 2180 1723.5 L 3141 1723.5  A 3.5 3.5 0 0 1 3144.5 1727 L 3144.5 1861  A 3.5 3.5 0 0 1 3141 1864.5 L 2180 1864.5  A 3.5 3.5 0 0 1 2176.5 1861 L 2176.5 1727  Z " stroke-width="1" stroke-dasharray="9,4" stroke="#d9d9d9" fill="none" stroke-dashoffset="0.5" />
  </g>
</svg>