<?xml version="1.0" encoding="utf-8"?>
<svg version="1.1" xmlns:xlink="http://www.w3.org/1999/xlink" width="519px" height="42px" xmlns="http://www.w3.org/2000/svg">
  <g transform="matrix(1 0 0 1 -63 -1579 )">
    <path d="M 64 1583  A 3 3 0 0 1 67 1580 L 578 1580  A 3 3 0 0 1 581 1583 L 581 1617  A 3 3 0 0 1 578 1620 L 67 1620  A 3 3 0 0 1 64 1617 L 64 1583  Z " fill-rule="nonzero" fill="#000000" stroke="none" fill-opacity="0.0196078431372549" />
    <path d="M 63.5 1583  A 3.5 3.5 0 0 1 67 1579.5 L 578 1579.5  A 3.5 3.5 0 0 1 581.5 1583 L 581.5 1617  A 3.5 3.5 0 0 1 578 1620.5 L 67 1620.5  A 3.5 3.5 0 0 1 63.5 1617 L 63.5 1583  Z " stroke-width="1" stroke-dasharray="9,4" stroke="#3498db" fill="none" stroke-dashoffset="0.5" />
  </g>
</svg>