<?xml version="1.0" encoding="utf-8"?>
<svg version="1.1" xmlns:xlink="http://www.w3.org/1999/xlink" width="100px" height="57px" xmlns="http://www.w3.org/2000/svg">
  <g transform="matrix(1 0 0 1 -2296 -1518 )">
    <path d="M 2296 1518  L 2396 1518  L 2396 1575  L 2296 1575  L 2296 1518  " fill-rule="nonzero" fill="#cccccc" stroke="none" />
    <path d="M 2300 1522  L 2392 1522  L 2392 1571  L 2300 1571  L 2300 1522  " fill-rule="nonzero" fill="#ffffff" stroke="none" />
    <path d="M 2352.275 1535.1  C 2349.881 1535.1  2348 1533.219  2348 1530.825  C 2348 1528.431  2349.881 1526.55  2352.275 1526.55  C 2354.669 1526.55  2356.55 1528.431  2356.55 1530.825  C 2356.55 1533.219  2354.669 1535.1  2352.275 1535.1  " fill-rule="nonzero" fill="#cccccc" stroke="none" />
    <path d="M 2302 1570  L 2302 1544.7  L 2324.25 1533.2  L 2355.4 1554.268  L 2373.2 1540.1  L 2391 1554.268  L 2391 1570  L 2302 1570  " fill-rule="nonzero" fill="#169bd5" stroke="none" />
  </g>
</svg>