<?xml version="1.0" encoding="utf-8"?>
<svg version="1.1" xmlns:xlink="http://www.w3.org/1999/xlink" width="12px" height="12px" viewBox="274 202  12 12" xmlns="http://www.w3.org/2000/svg">
  <path d="M 280 202  C 283.36 202  286 204.64  286 208  C 286 211.36  283.36 214  280 214  C 276.64 214  274 211.36  274 208  C 274 204.64  276.64 202  280 202  Z " fill-rule="nonzero" fill="#f0f0f0" stroke="none" />
  <path d="M 280 202.5  C 283.08 202.5  285.5 204.92  285.5 208  C 285.5 211.08  283.08 213.5  280 213.5  C 276.92 213.5  274.5 211.08  274.5 208  C 274.5 204.92  276.92 202.5  280 202.5  Z " stroke-width="1" stroke="#797979" fill="none" />
  <path d="M 280 211  C 278.32 211  277 209.68  277 208  C 277 206.32  278.32 205  280 205  C 281.68 205  283 206.32  283 208  C 283 209.68  281.68 211  280 211  " fill-rule="nonzero" fill="#797979" stroke="none" />
</svg>