<?xml version="1.0" encoding="utf-8"?>
<svg version="1.1" xmlns:xlink="http://www.w3.org/1999/xlink" width="793px" height="135px" xmlns="http://www.w3.org/2000/svg">
  <g transform="matrix(1 0 0 1 -3434 -1215 )">
    <path d="M 3435 1219  A 3 3 0 0 1 3438 1216 L 4223 1216  A 3 3 0 0 1 4226 1219 L 4226 1346  A 3 3 0 0 1 4223 1349 L 3438 1349  A 3 3 0 0 1 3435 1346 L 3435 1219  Z " fill-rule="nonzero" fill="#000000" stroke="none" fill-opacity="0.0196078431372549" />
    <path d="M 3434.5 1219  A 3.5 3.5 0 0 1 3438 1215.5 L 4223 1215.5  A 3.5 3.5 0 0 1 4226.5 1219 L 4226.5 1346  A 3.5 3.5 0 0 1 4223 1349.5 L 3438 1349.5  A 3.5 3.5 0 0 1 3434.5 1346 L 3434.5 1219  Z " stroke-width="1" stroke-dasharray="9,4" stroke="#d9d9d9" fill="none" stroke-dashoffset="0.5" />
  </g>
</svg>