<?xml version="1.0" encoding="utf-8"?>
<svg version="1.1" xmlns:xlink="http://www.w3.org/1999/xlink" width="14px" height="14px" xmlns="http://www.w3.org/2000/svg">
  <g transform="matrix(1 0 0 1 -412 -128 )">
    <path d="M 419 129  C 422.36 129  425 131.64  425 135  C 425 138.36  422.36 141  419 141  C 415.64 141  413 138.36  413 135  C 413 131.64  415.64 129  419 129  Z " fill-rule="nonzero" fill="#0d0d51" stroke="none" />
    <path d="M 419 129  C 422.36 129  425 131.64  425 135  C 425 138.36  422.36 141  419 141  C 415.64 141  413 138.36  413 135  C 413 131.64  415.64 129  419 129  Z " stroke-width="2" stroke="#ffffff" fill="none" />
  </g>
</svg>