<?xml version="1.0" encoding="utf-8"?>
<svg version="1.1" xmlns:xlink="http://www.w3.org/1999/xlink" width="12px" height="12px" viewBox="28 554  12 12" xmlns="http://www.w3.org/2000/svg">
  <path d="M 34 554  C 37.36 554  40 556.64  40 560  C 40 563.36  37.36 566  34 566  C 30.64 566  28 563.36  28 560  C 28 556.64  30.64 554  34 554  Z " fill-rule="nonzero" fill="#ffffff" stroke="none" />
  <path d="M 34 554.5  C 37.08 554.5  39.5 556.92  39.5 560  C 39.5 563.08  37.08 565.5  34 565.5  C 30.92 565.5  28.5 563.08  28.5 560  C 28.5 556.92  30.92 554.5  34 554.5  Z " stroke-width="1" stroke="#797979" fill="none" />
  <path d="M 34 563  C 32.32 563  31 561.68  31 560  C 31 558.32  32.32 557  34 557  C 35.68 557  37 558.32  37 560  C 37 561.68  35.68 563  34 563  " fill-rule="nonzero" fill="#797979" stroke="none" />
</svg>