<?xml version="1.0" encoding="utf-8"?>
<svg version="1.1" xmlns:xlink="http://www.w3.org/1999/xlink" width="12px" height="12px" viewBox="28 512  12 12" xmlns="http://www.w3.org/2000/svg">
  <path d="M 34 512  C 37.36 512  40 514.64  40 518  C 40 521.36  37.36 524  34 524  C 30.64 524  28 521.36  28 518  C 28 514.64  30.64 512  34 512  Z " fill-rule="nonzero" fill="#ffffff" stroke="none" />
  <path d="M 34 512.5  C 37.08 512.5  39.5 514.92  39.5 518  C 39.5 521.08  37.08 523.5  34 523.5  C 30.92 523.5  28.5 521.08  28.5 518  C 28.5 514.92  30.92 512.5  34 512.5  Z " stroke-width="1" stroke="#797979" fill="none" />
  <path d="M 34 521  C 32.32 521  31 519.68  31 518  C 31 516.32  32.32 515  34 515  C 35.68 515  37 516.32  37 518  C 37 519.68  35.68 521  34 521  " fill-rule="nonzero" fill="#797979" stroke="none" />
</svg>