<?xml version="1.0" encoding="utf-8"?>
<svg version="1.1" xmlns:xlink="http://www.w3.org/1999/xlink" width="12px" height="12px" viewBox="28 460  12 12" xmlns="http://www.w3.org/2000/svg">
  <path d="M 34 460  C 37.36 460  40 462.64  40 466  C 40 469.36  37.36 472  34 472  C 30.64 472  28 469.36  28 466  C 28 462.64  30.64 460  34 460  Z " fill-rule="nonzero" fill="#ffffff" stroke="none" />
  <path d="M 34 460.5  C 37.08 460.5  39.5 462.92  39.5 466  C 39.5 469.08  37.08 471.5  34 471.5  C 30.92 471.5  28.5 469.08  28.5 466  C 28.5 462.92  30.92 460.5  34 460.5  Z " stroke-width="1" stroke="#797979" fill="none" />
  <path d="M 34 469  C 32.32 469  31 467.68  31 466  C 31 464.32  32.32 463  34 463  C 35.68 463  37 464.32  37 466  C 37 467.68  35.68 469  34 469  " fill-rule="nonzero" fill="#797979" stroke="none" />
</svg>