<?xml version="1.0" encoding="utf-8"?>
<svg version="1.1" xmlns:xlink="http://www.w3.org/1999/xlink" width="12px" height="12px" viewBox="28 515.5  12 12" xmlns="http://www.w3.org/2000/svg">
  <path d="M 34 515.5  C 37.36 515.5  40 518.14  40 521.5  C 40 524.86  37.36 527.5  34 527.5  C 30.64 527.5  28 524.86  28 521.5  C 28 518.14  30.64 515.5  34 515.5  Z " fill-rule="nonzero" fill="#f0f0f0" stroke="none" />
  <path d="M 34 516  C 37.08 516  39.5 518.42  39.5 521.5  C 39.5 524.58  37.08 527  34 527  C 30.92 527  28.5 524.58  28.5 521.5  C 28.5 518.42  30.92 516  34 516  Z " stroke-width="1" stroke="#797979" fill="none" />
  <path d="M 34 524.5  C 32.32 524.5  31 523.18  31 521.5  C 31 519.82  32.32 518.5  34 518.5  C 35.68 518.5  37 519.82  37 521.5  C 37 523.18  35.68 524.5  34 524.5  " fill-rule="nonzero" fill="#797979" stroke="none" />
</svg>