<?xml version="1.0" encoding="utf-8"?>
<svg version="1.1" xmlns:xlink="http://www.w3.org/1999/xlink" width="12px" height="12px" viewBox="207 673.5  12 12" xmlns="http://www.w3.org/2000/svg">
  <path d="M 213 673.5  C 216.36 673.5  219 676.14  219 679.5  C 219 682.86  216.36 685.5  213 685.5  C 209.64 685.5  207 682.86  207 679.5  C 207 676.14  209.64 673.5  213 673.5  Z " fill-rule="nonzero" fill="#ffffff" stroke="none" />
  <path d="M 213 674  C 216.08 674  218.5 676.42  218.5 679.5  C 218.5 682.58  216.08 685  213 685  C 209.92 685  207.5 682.58  207.5 679.5  C 207.5 676.42  209.92 674  213 674  Z " stroke-width="1" stroke="#797979" fill="none" />
  <path d="M 213 682.5  C 211.32 682.5  210 681.18  210 679.5  C 210 677.82  211.32 676.5  213 676.5  C 214.68 676.5  216 677.82  216 679.5  C 216 681.18  214.68 682.5  213 682.5  " fill-rule="nonzero" fill="#797979" stroke="none" />
</svg>