<?xml version="1.0" encoding="utf-8"?>
<svg version="1.1" xmlns:xlink="http://www.w3.org/1999/xlink" width="12px" height="12px" viewBox="270 673.5  12 12" xmlns="http://www.w3.org/2000/svg">
  <path d="M 276 673.5  C 279.36 673.5  282 676.14  282 679.5  C 282 682.86  279.36 685.5  276 685.5  C 272.64 685.5  270 682.86  270 679.5  C 270 676.14  272.64 673.5  276 673.5  Z " fill-rule="nonzero" fill="#ffffff" stroke="none" />
  <path d="M 276 674  C 279.08 674  281.5 676.42  281.5 679.5  C 281.5 682.58  279.08 685  276 685  C 272.92 685  270.5 682.58  270.5 679.5  C 270.5 676.42  272.92 674  276 674  Z " stroke-width="1" stroke="#797979" fill="none" />
  <path d="M 276 682.5  C 274.32 682.5  273 681.18  273 679.5  C 273 677.82  274.32 676.5  276 676.5  C 277.68 676.5  279 677.82  279 679.5  C 279 681.18  277.68 682.5  276 682.5  " fill-rule="nonzero" fill="#797979" stroke="none" />
</svg>