<?xml version="1.0" encoding="utf-8"?>
<svg version="1.1" xmlns:xlink="http://www.w3.org/1999/xlink" width="70px" height="25px" xmlns="http://www.w3.org/2000/svg">
  <g transform="matrix(1 0 0 1 -140 -419 )">
    <path d="M 141 427  A 7 7 0 0 1 148 420 L 202 420  A 7 7 0 0 1 209 427 L 209 436  A 7 7 0 0 1 202 443 L 148 443  A 7 7 0 0 1 141 436 L 141 427  Z " fill-rule="nonzero" fill="#81d3f8" stroke="none" fill-opacity="0.168627450980392" />
    <path d="M 140.5 427  A 7.5 7.5 0 0 1 148 419.5 L 202 419.5  A 7.5 7.5 0 0 1 209.5 427 L 209.5 436  A 7.5 7.5 0 0 1 202 443.5 L 148 443.5  A 7.5 7.5 0 0 1 140.5 436 L 140.5 427  Z " stroke-width="1" stroke="#0079fe" fill="none" stroke-opacity="0.654901960784314" />
  </g>
</svg>