<?xml version="1.0" encoding="utf-8"?>
<svg version="1.1" xmlns:xlink="http://www.w3.org/1999/xlink" width="50px" height="50px" xmlns="http://www.w3.org/2000/svg">
  <g transform="matrix(1 0 0 1 -134 -76 )">
    <path d="M 134 76  L 184 76  L 184 126  L 134 126  L 134 76  " fill-rule="nonzero" fill="#cccccc" stroke="none" />
    <path d="M 138 80  L 180 80  L 180 122  L 138 122  L 138 80  " fill-rule="nonzero" fill="#ffffff" stroke="none" />
    <path d="M 163.75 91  C 161.65 91  160 89.35  160 87.25  C 160 85.15  161.65 83.5  163.75 83.5  C 165.85 83.5  167.5 85.15  167.5 87.25  C 167.5 89.35  165.85 91  163.75 91  " fill-rule="nonzero" fill="#cccccc" stroke="none" />
    <path d="M 140 121  L 140 99.55  L 149.75 89.8  L 163.4 97.6  L 171.2 95.65  L 179 97.6  L 179 121  L 140 121  " fill-rule="nonzero" fill="#169bd5" stroke="none" />
  </g>
</svg>