<?xml version="1.0" encoding="utf-8"?>
<svg version="1.1" xmlns:xlink="http://www.w3.org/1999/xlink" width="12px" height="12px" viewBox="243 118  12 12" xmlns="http://www.w3.org/2000/svg">
  <path d="M 249 118  C 252.36 118  255 120.64  255 124  C 255 127.36  252.36 130  249 130  C 245.64 130  243 127.36  243 124  C 243 120.64  245.64 118  249 118  Z " fill-rule="nonzero" fill="#f0f0f0" stroke="none" />
  <path d="M 249 118.5  C 252.08 118.5  254.5 120.92  254.5 124  C 254.5 127.08  252.08 129.5  249 129.5  C 245.92 129.5  243.5 127.08  243.5 124  C 243.5 120.92  245.92 118.5  249 118.5  Z " stroke-width="1" stroke="#797979" fill="none" />
  <path d="M 249 127  C 247.32 127  246 125.68  246 124  C 246 122.32  247.32 121  249 121  C 250.68 121  252 122.32  252 124  C 252 125.68  250.68 127  249 127  " fill-rule="nonzero" fill="#797979" stroke="none" />
</svg>