<?xml version="1.0" encoding="utf-8"?>
<svg version="1.1" xmlns:xlink="http://www.w3.org/1999/xlink" width="12px" height="12px" viewBox="188 539  12 12" xmlns="http://www.w3.org/2000/svg">
  <path d="M 194 539  C 197.36 539  200 541.64  200 545  C 200 548.36  197.36 551  194 551  C 190.64 551  188 548.36  188 545  C 188 541.64  190.64 539  194 539  Z " fill-rule="nonzero" fill="#f0f0f0" stroke="none" />
  <path d="M 194 539.5  C 197.08 539.5  199.5 541.92  199.5 545  C 199.5 548.08  197.08 550.5  194 550.5  C 190.92 550.5  188.5 548.08  188.5 545  C 188.5 541.92  190.92 539.5  194 539.5  Z " stroke-width="1" stroke="#797979" fill="none" />
  <path d="M 194 548  C 192.32 548  191 546.68  191 545  C 191 543.32  192.32 542  194 542  C 195.68 542  197 543.32  197 545  C 197 546.68  195.68 548  194 548  " fill-rule="nonzero" fill="#797979" stroke="none" />
</svg>