<?xml version="1.0" encoding="utf-8"?>
<svg version="1.1" xmlns:xlink="http://www.w3.org/1999/xlink" width="12px" height="12px" viewBox="264 539  12 12" xmlns="http://www.w3.org/2000/svg">
  <path d="M 270 539  C 273.36 539  276 541.64  276 545  C 276 548.36  273.36 551  270 551  C 266.64 551  264 548.36  264 545  C 264 541.64  266.64 539  270 539  Z " fill-rule="nonzero" fill="#f0f0f0" stroke="none" />
  <path d="M 270 539.5  C 273.08 539.5  275.5 541.92  275.5 545  C 275.5 548.08  273.08 550.5  270 550.5  C 266.92 550.5  264.5 548.08  264.5 545  C 264.5 541.92  266.92 539.5  270 539.5  Z " stroke-width="1" stroke="#797979" fill="none" />
  <path d="M 270 548  C 268.32 548  267 546.68  267 545  C 267 543.32  268.32 542  270 542  C 271.68 542  273 543.32  273 545  C 273 546.68  271.68 548  270 548  " fill-rule="nonzero" fill="#797979" stroke="none" />
</svg>