<?xml version="1.0" encoding="utf-8"?>
<svg version="1.1" xmlns:xlink="http://www.w3.org/1999/xlink" width="12px" height="12px" viewBox="167 118  12 12" xmlns="http://www.w3.org/2000/svg">
  <path d="M 173 118  C 176.36 118  179 120.64  179 124  C 179 127.36  176.36 130  173 130  C 169.64 130  167 127.36  167 124  C 167 120.64  169.64 118  173 118  Z " fill-rule="nonzero" fill="#ffffff" stroke="none" />
  <path d="M 173 118.5  C 176.08 118.5  178.5 120.92  178.5 124  C 178.5 127.08  176.08 129.5  173 129.5  C 169.92 129.5  167.5 127.08  167.5 124  C 167.5 120.92  169.92 118.5  173 118.5  Z " stroke-width="1" stroke="#797979" fill="none" />
  <path d="M 173 127  C 171.32 127  170 125.68  170 124  C 170 122.32  171.32 121  173 121  C 174.68 121  176 122.32  176 124  C 176 125.68  174.68 127  173 127  " fill-rule="nonzero" fill="#797979" stroke="none" />
</svg>