<?xml version="1.0" encoding="utf-8"?>
<svg version="1.1" xmlns:xlink="http://www.w3.org/1999/xlink" width="12px" height="12px" viewBox="105 108  12 12" xmlns="http://www.w3.org/2000/svg">
  <path d="M 111 108  C 114.36 108  117 110.64  117 114  C 117 117.36  114.36 120  111 120  C 107.64 120  105 117.36  105 114  C 105 110.64  107.64 108  111 108  Z " fill-rule="nonzero" fill="#f0f0f0" stroke="none" />
  <path d="M 111 108.5  C 114.08 108.5  116.5 110.92  116.5 114  C 116.5 117.08  114.08 119.5  111 119.5  C 107.92 119.5  105.5 117.08  105.5 114  C 105.5 110.92  107.92 108.5  111 108.5  Z " stroke-width="1" stroke="#797979" fill="none" />
  <path d="M 111 117  C 109.32 117  108 115.68  108 114  C 108 112.32  109.32 111  111 111  C 112.68 111  114 112.32  114 114  C 114 115.68  112.68 117  111 117  " fill-rule="nonzero" fill="#797979" stroke="none" />
</svg>