<?xml version="1.0" encoding="utf-8"?>
<svg version="1.1" xmlns:xlink="http://www.w3.org/1999/xlink" width="12px" height="12px" viewBox="35 108  12 12" xmlns="http://www.w3.org/2000/svg">
  <path d="M 41 108  C 44.36 108  47 110.64  47 114  C 47 117.36  44.36 120  41 120  C 37.64 120  35 117.36  35 114  C 35 110.64  37.64 108  41 108  Z " fill-rule="nonzero" fill="#ffffff" stroke="none" />
  <path d="M 41 108.5  C 44.08 108.5  46.5 110.92  46.5 114  C 46.5 117.08  44.08 119.5  41 119.5  C 37.92 119.5  35.5 117.08  35.5 114  C 35.5 110.92  37.92 108.5  41 108.5  Z " stroke-width="1" stroke="#797979" fill="none" />
  <path d="M 41 117  C 39.32 117  38 115.68  38 114  C 38 112.32  39.32 111  41 111  C 42.68 111  44 112.32  44 114  C 44 115.68  42.68 117  41 117  " fill-rule="nonzero" fill="#797979" stroke="none" />
</svg>