<?xml version="1.0" encoding="utf-8"?>
<svg version="1.1" xmlns:xlink="http://www.w3.org/1999/xlink" width="80px" height="35px" xmlns="http://www.w3.org/2000/svg">
  <g transform="matrix(1 0 0 1 -952 -237 )">
    <path d="M 953 242  A 4 4 0 0 1 957 238 L 1027 238  A 4 4 0 0 1 1031 242 L 1031 267  A 4 4 0 0 1 1027 271 L 957 271  A 4 4 0 0 1 953 267 L 953 242  Z " fill-rule="nonzero" fill="#f0f7ff" stroke="none" />
    <path d="M 952.5 242  A 4.5 4.5 0 0 1 957 237.5 L 1027 237.5  A 4.5 4.5 0 0 1 1031.5 242 L 1031.5 267  A 4.5 4.5 0 0 1 1027 271.5 L 957 271.5  A 4.5 4.5 0 0 1 952.5 267 L 952.5 242  Z " stroke-width="1" stroke="#7abbff" fill="none" stroke-opacity="0.996078431372549" />
  </g>
</svg>