<?xml version="1.0" encoding="utf-8"?>
<svg version="1.1" xmlns:xlink="http://www.w3.org/1999/xlink" width="12px" height="12px" viewBox="273 644.5  12 12" xmlns="http://www.w3.org/2000/svg">
  <path d="M 279 644.5  C 282.36 644.5  285 647.14  285 650.5  C 285 653.86  282.36 656.5  279 656.5  C 275.64 656.5  273 653.86  273 650.5  C 273 647.14  275.64 644.5  279 644.5  Z " fill-rule="nonzero" fill="#ffffff" stroke="none" />
  <path d="M 279 645  C 282.08 645  284.5 647.42  284.5 650.5  C 284.5 653.58  282.08 656  279 656  C 275.92 656  273.5 653.58  273.5 650.5  C 273.5 647.42  275.92 645  279 645  Z " stroke-width="1" stroke="#797979" fill="none" />
  <path d="M 279 653.5  C 277.32 653.5  276 652.18  276 650.5  C 276 648.82  277.32 647.5  279 647.5  C 280.68 647.5  282 648.82  282 650.5  C 282 652.18  280.68 653.5  279 653.5  " fill-rule="nonzero" fill="#797979" stroke="none" />
</svg>