<?xml version="1.0" encoding="utf-8"?>
<svg version="1.1" xmlns:xlink="http://www.w3.org/1999/xlink" width="14px" height="14px" xmlns="http://www.w3.org/2000/svg">
  <g transform="matrix(1 0 0 1 -482 -110 )">
    <path d="M 489 111  C 492.36 111  495 113.64  495 117  C 495 120.36  492.36 123  489 123  C 485.64 123  483 120.36  483 117  C 483 113.64  485.64 111  489 111  Z " fill-rule="nonzero" fill="#0d0d51" stroke="none" />
    <path d="M 489 111  C 492.36 111  495 113.64  495 117  C 495 120.36  492.36 123  489 123  C 485.64 123  483 120.36  483 117  C 483 113.64  485.64 111  489 111  Z " stroke-width="2" stroke="#ffffff" fill="none" />
  </g>
</svg>