<?xml version="1.0" encoding="utf-8"?>
<svg version="1.1" xmlns:xlink="http://www.w3.org/1999/xlink" width="331px" height="104px" xmlns="http://www.w3.org/2000/svg">
  <g transform="matrix(1 0 0 1 -162 -1898 )">
    <path d="M 163 1902  A 3 3 0 0 1 166 1899 L 489 1899  A 3 3 0 0 1 492 1902 L 492 1998  A 3 3 0 0 1 489 2001 L 166 2001  A 3 3 0 0 1 163 1998 L 163 1902  Z " fill-rule="nonzero" fill="#000000" stroke="none" fill-opacity="0.0196078431372549" />
    <path d="M 162.5 1902  A 3.5 3.5 0 0 1 166 1898.5 L 489 1898.5  A 3.5 3.5 0 0 1 492.5 1902 L 492.5 1998  A 3.5 3.5 0 0 1 489 2001.5 L 166 2001.5  A 3.5 3.5 0 0 1 162.5 1998 L 162.5 1902  Z " stroke-width="1" stroke-dasharray="9,4" stroke="#d9d9d9" fill="none" stroke-dashoffset="0.5" />
  </g>
</svg>