<?xml version="1.0" encoding="utf-8"?>
<svg version="1.1" xmlns:xlink="http://www.w3.org/1999/xlink" width="331px" height="104px" xmlns="http://www.w3.org/2000/svg">
  <g transform="matrix(1 0 0 1 -162 -3076 )">
    <path d="M 163 3080  A 3 3 0 0 1 166 3077 L 489 3077  A 3 3 0 0 1 492 3080 L 492 3176  A 3 3 0 0 1 489 3179 L 166 3179  A 3 3 0 0 1 163 3176 L 163 3080  Z " fill-rule="nonzero" fill="#000000" stroke="none" fill-opacity="0.0196078431372549" />
    <path d="M 162.5 3080  A 3.5 3.5 0 0 1 166 3076.5 L 489 3076.5  A 3.5 3.5 0 0 1 492.5 3080 L 492.5 3176  A 3.5 3.5 0 0 1 489 3179.5 L 166 3179.5  A 3.5 3.5 0 0 1 162.5 3176 L 162.5 3080  Z " stroke-width="1" stroke-dasharray="9,4" stroke="#d9d9d9" fill="none" stroke-dashoffset="0.5" />
  </g>
</svg>