<?xml version="1.0" encoding="utf-8"?>
<svg version="1.1" xmlns:xlink="http://www.w3.org/1999/xlink" width="12px" height="12px" viewBox="66 376  12 12" xmlns="http://www.w3.org/2000/svg">
  <path d="M 72 376  C 75.36 376  78 378.64  78 382  C 78 385.36  75.36 388  72 388  C 68.64 388  66 385.36  66 382  C 66 378.64  68.64 376  72 376  Z " fill-rule="nonzero" fill="#ffffff" stroke="none" />
  <path d="M 72 376.5  C 75.08 376.5  77.5 378.92  77.5 382  C 77.5 385.08  75.08 387.5  72 387.5  C 68.92 387.5  66.5 385.08  66.5 382  C 66.5 378.92  68.92 376.5  72 376.5  Z " stroke-width="1" stroke="#797979" fill="none" />
  <path d="M 72 385  C 70.32 385  69 383.68  69 382  C 69 380.32  70.32 379  72 379  C 73.68 379  75 380.32  75 382  C 75 383.68  73.68 385  72 385  " fill-rule="nonzero" fill="#797979" stroke="none" />
</svg>