<?xml version="1.0" encoding="utf-8"?>
<svg version="1.1" xmlns:xlink="http://www.w3.org/1999/xlink" width="12px" height="12px" viewBox="513 1789  12 12" xmlns="http://www.w3.org/2000/svg">
  <path d="M 519 1789  C 522.36 1789  525 1791.64  525 1795  C 525 1798.36  522.36 1801  519 1801  C 515.64 1801  513 1798.36  513 1795  C 513 1791.64  515.64 1789  519 1789  Z " fill-rule="nonzero" fill="#f0f0f0" stroke="none" />
  <path d="M 519 1789.5  C 522.08 1789.5  524.5 1791.92  524.5 1795  C 524.5 1798.08  522.08 1800.5  519 1800.5  C 515.92 1800.5  513.5 1798.08  513.5 1795  C 513.5 1791.92  515.92 1789.5  519 1789.5  Z " stroke-width="1" stroke="#797979" fill="none" />
  <path d="M 519 1798  C 517.32 1798  516 1796.68  516 1795  C 516 1793.32  517.32 1792  519 1792  C 520.68 1792  522 1793.32  522 1795  C 522 1796.68  520.68 1798  519 1798  " fill-rule="nonzero" fill="#797979" stroke="none" />
</svg>