<?xml version="1.0" encoding="utf-8"?>
<svg version="1.1" xmlns:xlink="http://www.w3.org/1999/xlink" width="519px" height="142px" xmlns="http://www.w3.org/2000/svg">
  <g transform="matrix(1 0 0 1 -48 -180 )">
    <path d="M 49 184  A 3 3 0 0 1 52 181 L 563 181  A 3 3 0 0 1 566 184 L 566 318  A 3 3 0 0 1 563 321 L 52 321  A 3 3 0 0 1 49 318 L 49 184  Z " fill-rule="nonzero" fill="#000000" stroke="none" fill-opacity="0.0196078431372549" />
    <path d="M 48.5 184  A 3.5 3.5 0 0 1 52 180.5 L 563 180.5  A 3.5 3.5 0 0 1 566.5 184 L 566.5 318  A 3.5 3.5 0 0 1 563 321.5 L 52 321.5  A 3.5 3.5 0 0 1 48.5 318 L 48.5 184  Z " stroke-width="1" stroke-dasharray="9,4" stroke="#d9d9d9" fill="none" stroke-dashoffset="0.5" />
  </g>
</svg>