<?xml version="1.0" encoding="utf-8"?>
<svg version="1.1" xmlns:xlink="http://www.w3.org/1999/xlink" width="12px" height="12px" viewBox="2130 1304  12 12" xmlns="http://www.w3.org/2000/svg">
  <path d="M 2136 1304  C 2139.36 1304  2142 1306.64  2142 1310  C 2142 1313.36  2139.36 1316  2136 1316  C 2132.64 1316  2130 1313.36  2130 1310  C 2130 1306.64  2132.64 1304  2136 1304  Z " fill-rule="nonzero" fill="#f0f0f0" stroke="none" />
  <path d="M 2136 1304.5  C 2139.08 1304.5  2141.5 1306.92  2141.5 1310  C 2141.5 1313.08  2139.08 1315.5  2136 1315.5  C 2132.92 1315.5  2130.5 1313.08  2130.5 1310  C 2130.5 1306.92  2132.92 1304.5  2136 1304.5  Z " stroke-width="1" stroke="#797979" fill="none" />
  <path d="M 2136 1313  C 2134.32 1313  2133 1311.68  2133 1310  C 2133 1308.32  2134.32 1307  2136 1307  C 2137.68 1307  2139 1308.32  2139 1310  C 2139 1311.68  2137.68 1313  2136 1313  " fill-rule="nonzero" fill="#797979" stroke="none" />
</svg>