<?xml version="1.0" encoding="utf-8"?>
<svg version="1.1" xmlns:xlink="http://www.w3.org/1999/xlink" width="969px" height="142px" xmlns="http://www.w3.org/2000/svg">
  <g transform="matrix(1 0 0 1 -2013 -1618 )">
    <path d="M 2014 1622  A 3 3 0 0 1 2017 1619 L 2978 1619  A 3 3 0 0 1 2981 1622 L 2981 1756  A 3 3 0 0 1 2978 1759 L 2017 1759  A 3 3 0 0 1 2014 1756 L 2014 1622  Z " fill-rule="nonzero" fill="#000000" stroke="none" fill-opacity="0.0196078431372549" />
    <path d="M 2013.5 1622  A 3.5 3.5 0 0 1 2017 1618.5 L 2978 1618.5  A 3.5 3.5 0 0 1 2981.5 1622 L 2981.5 1756  A 3.5 3.5 0 0 1 2978 1759.5 L 2017 1759.5  A 3.5 3.5 0 0 1 2013.5 1756 L 2013.5 1622  Z " stroke-width="1" stroke-dasharray="9,4" stroke="#d9d9d9" fill="none" stroke-dashoffset="0.5" />
  </g>
</svg>