<?xml version="1.0" encoding="utf-8"?>
<svg version="1.1" xmlns:xlink="http://www.w3.org/1999/xlink" width="100px" height="57px" xmlns="http://www.w3.org/2000/svg">
  <g transform="matrix(1 0 0 1 -2406 -1486 )">
    <path d="M 2406 1486  L 2506 1486  L 2506 1543  L 2406 1543  L 2406 1486  " fill-rule="nonzero" fill="#cccccc" stroke="none" />
    <path d="M 2410 1490  L 2502 1490  L 2502 1539  L 2410 1539  L 2410 1490  " fill-rule="nonzero" fill="#ffffff" stroke="none" />
    <path d="M 2462.275 1503.1  C 2459.881 1503.1  2458 1501.219  2458 1498.825  C 2458 1496.431  2459.881 1494.55  2462.275 1494.55  C 2464.669 1494.55  2466.55 1496.431  2466.55 1498.825  C 2466.55 1501.219  2464.669 1503.1  2462.275 1503.1  " fill-rule="nonzero" fill="#cccccc" stroke="none" />
    <path d="M 2412 1538  L 2412 1512.7  L 2434.25 1501.2  L 2465.4 1522.268  L 2483.2 1508.1  L 2501 1522.268  L 2501 1538  L 2412 1538  " fill-rule="nonzero" fill="#169bd5" stroke="none" />
  </g>
</svg>