<?xml version="1.0" encoding="utf-8"?>
<svg version="1.1" xmlns:xlink="http://www.w3.org/1999/xlink" width="12px" height="12px" viewBox="444 710  12 12" xmlns="http://www.w3.org/2000/svg">
  <path d="M 450 710  C 453.36 710  456 712.64  456 716  C 456 719.36  453.36 722  450 722  C 446.64 722  444 719.36  444 716  C 444 712.64  446.64 710  450 710  Z " fill-rule="nonzero" fill="#f0f0f0" stroke="none" />
  <path d="M 450 710.5  C 453.08 710.5  455.5 712.92  455.5 716  C 455.5 719.08  453.08 721.5  450 721.5  C 446.92 721.5  444.5 719.08  444.5 716  C 444.5 712.92  446.92 710.5  450 710.5  Z " stroke-width="1" stroke="#797979" fill="none" />
  <path d="M 450 719  C 448.32 719  447 717.68  447 716  C 447 714.32  448.32 713  450 713  C 451.68 713  453 714.32  453 716  C 453 717.68  451.68 719  450 719  " fill-rule="nonzero" fill="#797979" stroke="none" />
</svg>