<?xml version="1.0" encoding="utf-8"?>
<svg version="1.1" xmlns:xlink="http://www.w3.org/1999/xlink" width="12px" height="12px" viewBox="526 755  12 12" xmlns="http://www.w3.org/2000/svg">
  <path d="M 532 755  C 535.36 755  538 757.64  538 761  C 538 764.36  535.36 767  532 767  C 528.64 767  526 764.36  526 761  C 526 757.64  528.64 755  532 755  Z " fill-rule="nonzero" fill="#f0f0f0" stroke="none" />
  <path d="M 532 755.5  C 535.08 755.5  537.5 757.92  537.5 761  C 537.5 764.08  535.08 766.5  532 766.5  C 528.92 766.5  526.5 764.08  526.5 761  C 526.5 757.92  528.92 755.5  532 755.5  Z " stroke-width="1" stroke="#797979" fill="none" />
  <path d="M 532 764  C 530.32 764  529 762.68  529 761  C 529 759.32  530.32 758  532 758  C 533.68 758  535 759.32  535 761  C 535 762.68  533.68 764  532 764  " fill-rule="nonzero" fill="#797979" stroke="none" />
</svg>