<?xml version="1.0" encoding="utf-8"?>
<svg version="1.1" xmlns:xlink="http://www.w3.org/1999/xlink" width="12px" height="12px" viewBox="444 867  12 12" xmlns="http://www.w3.org/2000/svg">
  <path d="M 450 867  C 453.36 867  456 869.64  456 873  C 456 876.36  453.36 879  450 879  C 446.64 879  444 876.36  444 873  C 444 869.64  446.64 867  450 867  Z " fill-rule="nonzero" fill="#f0f0f0" stroke="none" />
  <path d="M 450 867.5  C 453.08 867.5  455.5 869.92  455.5 873  C 455.5 876.08  453.08 878.5  450 878.5  C 446.92 878.5  444.5 876.08  444.5 873  C 444.5 869.92  446.92 867.5  450 867.5  Z " stroke-width="1" stroke="#797979" fill="none" />
  <path d="M 450 876  C 448.32 876  447 874.68  447 873  C 447 871.32  448.32 870  450 870  C 451.68 870  453 871.32  453 873  C 453 874.68  451.68 876  450 876  " fill-rule="nonzero" fill="#797979" stroke="none" />
</svg>