<?xml version="1.0" encoding="utf-8"?>
<svg version="1.1" xmlns:xlink="http://www.w3.org/1999/xlink" width="12px" height="12px" viewBox="526 867  12 12" xmlns="http://www.w3.org/2000/svg">
  <path d="M 532 867  C 535.36 867  538 869.64  538 873  C 538 876.36  535.36 879  532 879  C 528.64 879  526 876.36  526 873  C 526 869.64  528.64 867  532 867  Z " fill-rule="nonzero" fill="#ffffff" stroke="none" />
  <path d="M 532 867.5  C 535.08 867.5  537.5 869.92  537.5 873  C 537.5 876.08  535.08 878.5  532 878.5  C 528.92 878.5  526.5 876.08  526.5 873  C 526.5 869.92  528.92 867.5  532 867.5  Z " stroke-width="1" stroke="#797979" fill="none" />
  <path d="M 532 876  C 530.32 876  529 874.68  529 873  C 529 871.32  530.32 870  532 870  C 533.68 870  535 871.32  535 873  C 535 874.68  533.68 876  532 876  " fill-rule="nonzero" fill="#797979" stroke="none" />
</svg>