<?xml version="1.0" encoding="utf-8"?>
<svg version="1.1" xmlns:xlink="http://www.w3.org/1999/xlink" width="12px" height="12px" viewBox="526 1152  12 12" xmlns="http://www.w3.org/2000/svg">
  <path d="M 532 1152  C 535.36 1152  538 1154.64  538 1158  C 538 1161.36  535.36 1164  532 1164  C 528.64 1164  526 1161.36  526 1158  C 526 1154.64  528.64 1152  532 1152  Z " fill-rule="nonzero" fill="#ffffff" stroke="none" />
  <path d="M 532 1152.5  C 535.08 1152.5  537.5 1154.92  537.5 1158  C 537.5 1161.08  535.08 1163.5  532 1163.5  C 528.92 1163.5  526.5 1161.08  526.5 1158  C 526.5 1154.92  528.92 1152.5  532 1152.5  Z " stroke-width="1" stroke="#797979" fill="none" />
  <path d="M 532 1161  C 530.32 1161  529 1159.68  529 1158  C 529 1156.32  530.32 1155  532 1155  C 533.68 1155  535 1156.32  535 1158  C 535 1159.68  533.68 1161  532 1161  " fill-rule="nonzero" fill="#797979" stroke="none" />
</svg>