<?xml version="1.0" encoding="utf-8"?>
<svg version="1.1" xmlns:xlink="http://www.w3.org/1999/xlink" width="12px" height="12px" viewBox="444 1197  12 12" xmlns="http://www.w3.org/2000/svg">
  <path d="M 450 1197  C 453.36 1197  456 1199.64  456 1203  C 456 1206.36  453.36 1209  450 1209  C 446.64 1209  444 1206.36  444 1203  C 444 1199.64  446.64 1197  450 1197  Z " fill-rule="nonzero" fill="#f0f0f0" stroke="none" />
  <path d="M 450 1197.5  C 453.08 1197.5  455.5 1199.92  455.5 1203  C 455.5 1206.08  453.08 1208.5  450 1208.5  C 446.92 1208.5  444.5 1206.08  444.5 1203  C 444.5 1199.92  446.92 1197.5  450 1197.5  Z " stroke-width="1" stroke="#797979" fill="none" />
  <path d="M 450 1206  C 448.32 1206  447 1204.68  447 1203  C 447 1201.32  448.32 1200  450 1200  C 451.68 1200  453 1201.32  453 1203  C 453 1204.68  451.68 1206  450 1206  " fill-rule="nonzero" fill="#797979" stroke="none" />
</svg>