<?xml version="1.0" encoding="utf-8"?>
<svg version="1.1" xmlns:xlink="http://www.w3.org/1999/xlink" width="12px" height="12px" viewBox="526 1197  12 12" xmlns="http://www.w3.org/2000/svg">
  <path d="M 532 1197  C 535.36 1197  538 1199.64  538 1203  C 538 1206.36  535.36 1209  532 1209  C 528.64 1209  526 1206.36  526 1203  C 526 1199.64  528.64 1197  532 1197  Z " fill-rule="nonzero" fill="#ffffff" stroke="none" />
  <path d="M 532 1197.5  C 535.08 1197.5  537.5 1199.92  537.5 1203  C 537.5 1206.08  535.08 1208.5  532 1208.5  C 528.92 1208.5  526.5 1206.08  526.5 1203  C 526.5 1199.92  528.92 1197.5  532 1197.5  Z " stroke-width="1" stroke="#797979" fill="none" />
  <path d="M 532 1206  C 530.32 1206  529 1204.68  529 1203  C 529 1201.32  530.32 1200  532 1200  C 533.68 1200  535 1201.32  535 1203  C 535 1204.68  533.68 1206  532 1206  " fill-rule="nonzero" fill="#797979" stroke="none" />
</svg>