<?xml version="1.0" encoding="utf-8"?>
<svg version="1.1" xmlns:xlink="http://www.w3.org/1999/xlink" width="12px" height="12px" viewBox="444 1309  12 12" xmlns="http://www.w3.org/2000/svg">
  <path d="M 450 1309  C 453.36 1309  456 1311.64  456 1315  C 456 1318.36  453.36 1321  450 1321  C 446.64 1321  444 1318.36  444 1315  C 444 1311.64  446.64 1309  450 1309  Z " fill-rule="nonzero" fill="#ffffff" stroke="none" />
  <path d="M 450 1309.5  C 453.08 1309.5  455.5 1311.92  455.5 1315  C 455.5 1318.08  453.08 1320.5  450 1320.5  C 446.92 1320.5  444.5 1318.08  444.5 1315  C 444.5 1311.92  446.92 1309.5  450 1309.5  Z " stroke-width="1" stroke="#797979" fill="none" />
  <path d="M 450 1318  C 448.32 1318  447 1316.68  447 1315  C 447 1313.32  448.32 1312  450 1312  C 451.68 1312  453 1313.32  453 1315  C 453 1316.68  451.68 1318  450 1318  " fill-rule="nonzero" fill="#797979" stroke="none" />
</svg>