<?xml version="1.0" encoding="utf-8"?>
<svg version="1.1" xmlns:xlink="http://www.w3.org/1999/xlink" width="12px" height="12px" viewBox="526 1309  12 12" xmlns="http://www.w3.org/2000/svg">
  <path d="M 532 1309  C 535.36 1309  538 1311.64  538 1315  C 538 1318.36  535.36 1321  532 1321  C 528.64 1321  526 1318.36  526 1315  C 526 1311.64  528.64 1309  532 1309  Z " fill-rule="nonzero" fill="#f0f0f0" stroke="none" />
  <path d="M 532 1309.5  C 535.08 1309.5  537.5 1311.92  537.5 1315  C 537.5 1318.08  535.08 1320.5  532 1320.5  C 528.92 1320.5  526.5 1318.08  526.5 1315  C 526.5 1311.92  528.92 1309.5  532 1309.5  Z " stroke-width="1" stroke="#797979" fill="none" />
  <path d="M 532 1318  C 530.32 1318  529 1316.68  529 1315  C 529 1313.32  530.32 1312  532 1312  C 533.68 1312  535 1313.32  535 1315  C 535 1316.68  533.68 1318  532 1318  " fill-rule="nonzero" fill="#797979" stroke="none" />
</svg>