<?xml version="1.0" encoding="utf-8"?>
<svg version="1.1" xmlns:xlink="http://www.w3.org/1999/xlink" width="14px" height="14px" xmlns="http://www.w3.org/2000/svg">
  <g transform="matrix(1 0 0 1 -756 -99 )">
    <path d="M 763 100  C 766.36 100  769 102.64  769 106  C 769 109.36  766.36 112  763 112  C 759.64 112  757 109.36  757 106  C 757 102.64  759.64 100  763 100  Z " fill-rule="nonzero" fill="#0d0d51" stroke="none" />
    <path d="M 763 100  C 766.36 100  769 102.64  769 106  C 769 109.36  766.36 112  763 112  C 759.64 112  757 109.36  757 106  C 757 102.64  759.64 100  763 100  Z " stroke-width="2" stroke="#ffffff" fill="none" />
  </g>
</svg>