<?xml version="1.0" encoding="utf-8"?>
<svg version="1.1" xmlns:xlink="http://www.w3.org/1999/xlink" width="309px" height="40px" xmlns="http://www.w3.org/2000/svg">
  <g transform="matrix(1 0 0 1 -447 -456 )">
    <path d="M 449 461  A 3 3 0 0 1 452 458 L 751 458  A 3 3 0 0 1 754 461 L 754 491  A 3 3 0 0 1 751 494 L 452 494  A 3 3 0 0 1 449 491 L 449 461  Z " fill-rule="nonzero" fill="#ffffff" stroke="none" fill-opacity="0" />
    <path d="M 448 461  A 4 4 0 0 1 452 457 L 751 457  A 4 4 0 0 1 755 461 L 755 491  A 4 4 0 0 1 751 495 L 452 495  A 4 4 0 0 1 448 491 L 448 461  Z " stroke-width="2" stroke-dasharray="18,8" stroke="#0079fe" fill="none" />
  </g>
</svg>