<?xml version="1.0" encoding="utf-8"?>
<svg version="1.1" xmlns:xlink="http://www.w3.org/1999/xlink" width="12px" height="12px" viewBox="167 269  12 12" xmlns="http://www.w3.org/2000/svg">
  <path d="M 173 269  C 176.36 269  179 271.64  179 275  C 179 278.36  176.36 281  173 281  C 169.64 281  167 278.36  167 275  C 167 271.64  169.64 269  173 269  Z " fill-rule="nonzero" fill="#ffffff" stroke="none" />
  <path d="M 173 269.5  C 176.08 269.5  178.5 271.92  178.5 275  C 178.5 278.08  176.08 280.5  173 280.5  C 169.92 280.5  167.5 278.08  167.5 275  C 167.5 271.92  169.92 269.5  173 269.5  Z " stroke-width="1" stroke="#797979" fill="none" />
  <path d="M 173 278  C 171.32 278  170 276.68  170 275  C 170 273.32  171.32 272  173 272  C 174.68 272  176 273.32  176 275  C 176 276.68  174.68 278  173 278  " fill-rule="nonzero" fill="#797979" stroke="none" />
</svg>