<?xml version="1.0" encoding="utf-8"?>
<svg version="1.1" xmlns:xlink="http://www.w3.org/1999/xlink" width="40px" height="46px" xmlns="http://www.w3.org/2000/svg">
  <g transform="matrix(1 0 0 1 -24 -131 )">
    <path d="M 38.9583333333333 14  L 26 14  L 26 1.02678571428572  C 27.0486111111111 1.26636904761905  27.3611111111111 1.50595238095238  27.6041666666667 1.74553571428572  L 38.2291666666667 12.21875  C 38.4722222222222 12.4583333333333  38.7152777777778 12.766369047619  38.9583333333333 14  Z M 23 0  L 23 13.9642857142857  C 23.3333333333333 14.6488095238095  23.5763888888889 15.2306547619048  24.0625 15.7098214285714  C 24.5486111111111 16.1889880952381  25.1388888888889 16.4285714285714  25.8333333333333 17  L 40 17  L 40 43.5357142857143  C 40 44.2202380952381  39.7569444444444 44.8020833333333  39.2708333333333 45.28125  C 38.7847222222222 45.7604166666667  38.1944444444444 46  37.5 46  L 2.5 46  C 1.80555555555556 46  1.21527777777778 45.7604166666667  0.729166666666667 45.28125  C 0.243055555555556 44.8020833333333  0 44.2202380952381  0 43.5357142857143  L 0 2.46428571428572  C 0 1.7797619047619  0.243055555555556 1.19791666666666  0.729166666666667 0.71875  C 1.21527777777778 0.239583333333335  1.80555555555556 0  2.5 0  L 23 0  Z " fill-rule="nonzero" fill="#0079fe" stroke="none" transform="matrix(1 0 0 1 24 131 )" />
  </g>
</svg>