<?xml version="1.0" encoding="utf-8"?>
<svg version="1.1" xmlns:xlink="http://www.w3.org/1999/xlink" width="24px" height="12px" xmlns="http://www.w3.org/2000/svg">
  <g transform="matrix(1 0 0 1 -366 -396 )">
    <path d="M 23.7595190380762 9.81443298969072  C 23.9198396793587 9.95189003436426  24 10.1099656357388  24 10.2886597938144  C 24 10.46735395189  23.9198396793587 10.6254295532646  23.7595190380762 10.7628865979381  L 22.5571142284569 11.7938144329897  C 22.3967935871744 11.9312714776632  22.2124248496994 12  22.0040080160321 12  C 21.7955911823647 12  21.6112224448898 11.9312714776632  21.4509018036072 11.7938144329897  L 12 3.69072164948454  L 2.54909819639279 11.7938144329897  C 2.38877755511022 11.9312714776632  2.20440881763527 12  1.99599198396794 12  C 1.7875751503006 12  1.60320641282565 11.9312714776632  1.44288577154309 11.7938144329897  L 0.240480961923848 10.7628865979381  C 0.0801603206412828 10.6254295532646  0 10.46735395189  0 10.2886597938144  C 0 10.1099656357388  0.0801603206412828 9.95189003436426  0.240480961923848 9.81443298969072  L 11.4468937875751 0.20618556701031  C 11.6072144288577 0.0687285223367682  11.7915831663327 0  12 0  C 12.2084168336673 0  12.3927855711423 0.0687285223367682  12.5531062124248 0.20618556701031  L 23.7595190380762 9.81443298969072  Z " fill-rule="nonzero" fill="#000000" stroke="none" transform="matrix(1 0 0 1 366 396 )" />
  </g>
</svg>