<?xml version="1.0" encoding="utf-8"?>
<svg version="1.1" xmlns:xlink="http://www.w3.org/1999/xlink" width="12px" height="12px" viewBox="67 281  12 12" xmlns="http://www.w3.org/2000/svg">
  <path d="M 73 281  C 76.36 281  79 283.64  79 287  C 79 290.36  76.36 293  73 293  C 69.64 293  67 290.36  67 287  C 67 283.64  69.64 281  73 281  Z " fill-rule="nonzero" fill="#ffffff" stroke="none" />
  <path d="M 73 281.5  C 76.08 281.5  78.5 283.92  78.5 287  C 78.5 290.08  76.08 292.5  73 292.5  C 69.92 292.5  67.5 290.08  67.5 287  C 67.5 283.92  69.92 281.5  73 281.5  Z " stroke-width="1" stroke="#797979" fill="none" />
  <path d="M 73 290  C 71.32 290  70 288.68  70 287  C 70 285.32  71.32 284  73 284  C 74.68 284  76 285.32  76 287  C 76 288.68  74.68 290  73 290  " fill-rule="nonzero" fill="#797979" stroke="none" />
</svg>