<?xml version="1.0" encoding="utf-8"?>
<svg version="1.1" xmlns:xlink="http://www.w3.org/1999/xlink" width="12px" height="12px" viewBox="307 888  12 12" xmlns="http://www.w3.org/2000/svg">
  <path d="M 313 888  C 316.36 888  319 890.64  319 894  C 319 897.36  316.36 900  313 900  C 309.64 900  307 897.36  307 894  C 307 890.64  309.64 888  313 888  Z " fill-rule="nonzero" fill="#f0f0f0" stroke="none" />
  <path d="M 313 888.5  C 316.08 888.5  318.5 890.92  318.5 894  C 318.5 897.08  316.08 899.5  313 899.5  C 309.92 899.5  307.5 897.08  307.5 894  C 307.5 890.92  309.92 888.5  313 888.5  Z " stroke-width="1" stroke="#797979" fill="none" />
  <path d="M 313 897  C 311.32 897  310 895.68  310 894  C 310 892.32  311.32 891  313 891  C 314.68 891  316 892.32  316 894  C 316 895.68  314.68 897  313 897  " fill-rule="nonzero" fill="#797979" stroke="none" />
</svg>