<?xml version="1.0" encoding="utf-8"?>
<svg version="1.1" xmlns:xlink="http://www.w3.org/1999/xlink" width="12px" height="12px" viewBox="243 69  12 12" xmlns="http://www.w3.org/2000/svg">
  <path d="M 249 69  C 252.36 69  255 71.64  255 75  C 255 78.36  252.36 81  249 81  C 245.64 81  243 78.36  243 75  C 243 71.64  245.64 69  249 69  Z " fill-rule="nonzero" fill="#f0f0f0" stroke="none" />
  <path d="M 249 69.5  C 252.08 69.5  254.5 71.92  254.5 75  C 254.5 78.08  252.08 80.5  249 80.5  C 245.92 80.5  243.5 78.08  243.5 75  C 243.5 71.92  245.92 69.5  249 69.5  Z " stroke-width="1" stroke="#797979" fill="none" />
  <path d="M 249 78  C 247.32 78  246 76.68  246 75  C 246 73.32  247.32 72  249 72  C 250.68 72  252 73.32  252 75  C 252 76.68  250.68 78  249 78  " fill-rule="nonzero" fill="#797979" stroke="none" />
</svg>