<?xml version="1.0" encoding="utf-8"?>
<svg version="1.1" xmlns:xlink="http://www.w3.org/1999/xlink" width="12px" height="12px" viewBox="243 169  12 12" xmlns="http://www.w3.org/2000/svg">
  <path d="M 249 169  C 252.36 169  255 171.64  255 175  C 255 178.36  252.36 181  249 181  C 245.64 181  243 178.36  243 175  C 243 171.64  245.64 169  249 169  Z " fill-rule="nonzero" fill="#ffffff" stroke="none" />
  <path d="M 249 169.5  C 252.08 169.5  254.5 171.92  254.5 175  C 254.5 178.08  252.08 180.5  249 180.5  C 245.92 180.5  243.5 178.08  243.5 175  C 243.5 171.92  245.92 169.5  249 169.5  Z " stroke-width="1" stroke="#797979" fill="none" />
  <path d="M 249 178  C 247.32 178  246 176.68  246 175  C 246 173.32  247.32 172  249 172  C 250.68 172  252 173.32  252 175  C 252 176.68  250.68 178  249 178  " fill-rule="nonzero" fill="#797979" stroke="none" />
</svg>