<?xml version="1.0" encoding="utf-8"?>
<svg version="1.1" xmlns:xlink="http://www.w3.org/1999/xlink" width="80px" height="30px" xmlns="http://www.w3.org/2000/svg">
  <g transform="matrix(1 0 0 1 -1716 -441 )">
    <path d="M 1716.5 444  A 2.5 2.5 0 0 1 1719 441.5 L 1793 441.5  A 2.5 2.5 0 0 1 1795.5 444 L 1795.5 468  A 2.5 2.5 0 0 1 1793 470.5 L 1719 470.5  A 2.5 2.5 0 0 1 1716.5 468 L 1716.5 444  Z " fill-rule="nonzero" fill="#f9f9f9" stroke="none" />
    <path d="M 1716.5 444  A 2.5 2.5 0 0 1 1719 441.5 L 1793 441.5  A 2.5 2.5 0 0 1 1795.5 444 L 1795.5 468  A 2.5 2.5 0 0 1 1793 470.5 L 1719 470.5  A 2.5 2.5 0 0 1 1716.5 468 L 1716.5 444  Z " stroke-width="1" stroke="#e4e4e4" fill="none" />
  </g>
</svg>