<?xml version="1.0" encoding="utf-8"?>
<svg version="1.1" xmlns:xlink="http://www.w3.org/1999/xlink" width="12px" height="12px" viewBox="199 1634  12 12" xmlns="http://www.w3.org/2000/svg">
  <path d="M 205 1634  C 208.36 1634  211 1636.64  211 1640  C 211 1643.36  208.36 1646  205 1646  C 201.64 1646  199 1643.36  199 1640  C 199 1636.64  201.64 1634  205 1634  Z " fill-rule="nonzero" fill="#ffffff" stroke="none" />
  <path d="M 205 1634.5  C 208.08 1634.5  210.5 1636.92  210.5 1640  C 210.5 1643.08  208.08 1645.5  205 1645.5  C 201.92 1645.5  199.5 1643.08  199.5 1640  C 199.5 1636.92  201.92 1634.5  205 1634.5  Z " stroke-width="1" stroke="#797979" fill="none" />
  <path d="M 205 1643  C 203.32 1643  202 1641.68  202 1640  C 202 1638.32  203.32 1637  205 1637  C 206.68 1637  208 1638.32  208 1640  C 208 1641.68  206.68 1643  205 1643  " fill-rule="nonzero" fill="#797979" stroke="none" />
</svg>