<?xml version="1.0" encoding="utf-8"?>
<svg version="1.1" xmlns:xlink="http://www.w3.org/1999/xlink" width="14px" height="14px" xmlns="http://www.w3.org/2000/svg">
  <g transform="matrix(1 0 0 1 -490 -77 )">
    <path d="M 497 78  C 500.36 78  503 80.64  503 84  C 503 87.36  500.36 90  497 90  C 493.64 90  491 87.36  491 84  C 491 80.64  493.64 78  497 78  Z " fill-rule="nonzero" fill="#0d0d51" stroke="none" />
    <path d="M 497 78  C 500.36 78  503 80.64  503 84  C 503 87.36  500.36 90  497 90  C 493.64 90  491 87.36  491 84  C 491 80.64  493.64 78  497 78  Z " stroke-width="2" stroke="#ffffff" fill="none" />
  </g>
</svg>