<?xml version="1.0" encoding="utf-8"?>
<svg version="1.1" xmlns:xlink="http://www.w3.org/1999/xlink" width="478px" height="72px" xmlns="http://www.w3.org/2000/svg">
  <g transform="matrix(1 0 0 1 -89 -150 )">
    <path d="M 90 154  A 3 3 0 0 1 93 151 L 563 151  A 3 3 0 0 1 566 154 L 566 218  A 3 3 0 0 1 563 221 L 93 221  A 3 3 0 0 1 90 218 L 90 154  Z " fill-rule="nonzero" fill="#000000" stroke="none" fill-opacity="0.0196078431372549" />
    <path d="M 89.5 154  A 3.5 3.5 0 0 1 93 150.5 L 563 150.5  A 3.5 3.5 0 0 1 566.5 154 L 566.5 218  A 3.5 3.5 0 0 1 563 221.5 L 93 221.5  A 3.5 3.5 0 0 1 89.5 218 L 89.5 154  Z " stroke-width="1" stroke-dasharray="9,4" stroke="#d9d9d9" fill="none" stroke-dashoffset="0.5" />
  </g>
</svg>