<?xml version="1.0" encoding="utf-8"?>
<svg version="1.1" xmlns:xlink="http://www.w3.org/1999/xlink" width="12px" height="12px" viewBox="243 167  12 12" xmlns="http://www.w3.org/2000/svg">
  <path d="M 249 167  C 252.36 167  255 169.64  255 173  C 255 176.36  252.36 179  249 179  C 245.64 179  243 176.36  243 173  C 243 169.64  245.64 167  249 167  Z " fill-rule="nonzero" fill="#f0f0f0" stroke="none" />
  <path d="M 249 167.5  C 252.08 167.5  254.5 169.92  254.5 173  C 254.5 176.08  252.08 178.5  249 178.5  C 245.92 178.5  243.5 176.08  243.5 173  C 243.5 169.92  245.92 167.5  249 167.5  Z " stroke-width="1" stroke="#797979" fill="none" />
  <path d="M 249 176  C 247.32 176  246 174.68  246 173  C 246 171.32  247.32 170  249 170  C 250.68 170  252 171.32  252 173  C 252 174.68  250.68 176  249 176  " fill-rule="nonzero" fill="#797979" stroke="none" />
</svg>