<?xml version="1.0" encoding="utf-8"?>
<svg version="1.1" xmlns:xlink="http://www.w3.org/1999/xlink" width="70px" height="25px" xmlns="http://www.w3.org/2000/svg">
  <g transform="matrix(1 0 0 1 -54 -666 )">
    <path d="M 55 674  A 7 7 0 0 1 62 667 L 116 667  A 7 7 0 0 1 123 674 L 123 683  A 7 7 0 0 1 116 690 L 62 690  A 7 7 0 0 1 55 683 L 55 674  Z " fill-rule="nonzero" fill="#81d3f8" stroke="none" fill-opacity="0.168627450980392" />
    <path d="M 54.5 674  A 7.5 7.5 0 0 1 62 666.5 L 116 666.5  A 7.5 7.5 0 0 1 123.5 674 L 123.5 683  A 7.5 7.5 0 0 1 116 690.5 L 62 690.5  A 7.5 7.5 0 0 1 54.5 683 L 54.5 674  Z " stroke-width="1" stroke="#0079fe" fill="none" stroke-opacity="0.654901960784314" />
  </g>
</svg>