<?xml version="1.0" encoding="utf-8"?>
<svg version="1.1" xmlns:xlink="http://www.w3.org/1999/xlink" width="12px" height="12px" viewBox="4706 1276  12 12" xmlns="http://www.w3.org/2000/svg">
  <path d="M 4712 1276  C 4715.36 1276  4718 1278.64  4718 1282  C 4718 1285.36  4715.36 1288  4712 1288  C 4708.64 1288  4706 1285.36  4706 1282  C 4706 1278.64  4708.64 1276  4712 1276  Z " fill-rule="nonzero" fill="#f0f0f0" stroke="none" />
  <path d="M 4712 1276.5  C 4715.08 1276.5  4717.5 1278.92  4717.5 1282  C 4717.5 1285.08  4715.08 1287.5  4712 1287.5  C 4708.92 1287.5  4706.5 1285.08  4706.5 1282  C 4706.5 1278.92  4708.92 1276.5  4712 1276.5  Z " stroke-width="1" stroke="#797979" fill="none" />
  <path d="M 4712 1285  C 4710.32 1285  4709 1283.68  4709 1282  C 4709 1280.32  4710.32 1279  4712 1279  C 4713.68 1279  4715 1280.32  4715 1282  C 4715 1283.68  4713.68 1285  4712 1285  " fill-rule="nonzero" fill="#797979" stroke="none" />
</svg>