<?xml version="1.0" encoding="utf-8"?>
<svg version="1.1" xmlns:xlink="http://www.w3.org/1999/xlink" width="12px" height="12px" viewBox="4781 1276  12 12" xmlns="http://www.w3.org/2000/svg">
  <path d="M 4787 1276  C 4790.36 1276  4793 1278.64  4793 1282  C 4793 1285.36  4790.36 1288  4787 1288  C 4783.64 1288  4781 1285.36  4781 1282  C 4781 1278.64  4783.64 1276  4787 1276  Z " fill-rule="nonzero" fill="#ffffff" stroke="none" />
  <path d="M 4787 1276.5  C 4790.08 1276.5  4792.5 1278.92  4792.5 1282  C 4792.5 1285.08  4790.08 1287.5  4787 1287.5  C 4783.92 1287.5  4781.5 1285.08  4781.5 1282  C 4781.5 1278.92  4783.92 1276.5  4787 1276.5  Z " stroke-width="1" stroke="#797979" fill="none" />
  <path d="M 4787 1285  C 4785.32 1285  4784 1283.68  4784 1282  C 4784 1280.32  4785.32 1279  4787 1279  C 4788.68 1279  4790 1280.32  4790 1282  C 4790 1283.68  4788.68 1285  4787 1285  " fill-rule="nonzero" fill="#797979" stroke="none" />
</svg>