<?xml version="1.0" encoding="utf-8"?>
<svg version="1.1" xmlns:xlink="http://www.w3.org/1999/xlink" width="839px" height="142px" xmlns="http://www.w3.org/2000/svg">
  <g transform="matrix(1 0 0 1 -2088 -1280 )">
    <path d="M 2089 1284  A 3 3 0 0 1 2092 1281 L 2923 1281  A 3 3 0 0 1 2926 1284 L 2926 1418  A 3 3 0 0 1 2923 1421 L 2092 1421  A 3 3 0 0 1 2089 1418 L 2089 1284  Z " fill-rule="nonzero" fill="#000000" stroke="none" fill-opacity="0.0196078431372549" />
    <path d="M 2088.5 1284  A 3.5 3.5 0 0 1 2092 1280.5 L 2923 1280.5  A 3.5 3.5 0 0 1 2926.5 1284 L 2926.5 1418  A 3.5 3.5 0 0 1 2923 1421.5 L 2092 1421.5  A 3.5 3.5 0 0 1 2088.5 1418 L 2088.5 1284  Z " stroke-width="1" stroke-dasharray="9,4" stroke="#d9d9d9" fill="none" stroke-dashoffset="0.5" />
  </g>
</svg>