<?xml version="1.0" encoding="utf-8"?>
<svg version="1.1" xmlns:xlink="http://www.w3.org/1999/xlink" width="12px" height="12px" viewBox="198 202  12 12" xmlns="http://www.w3.org/2000/svg">
  <path d="M 204 202  C 207.36 202  210 204.64  210 208  C 210 211.36  207.36 214  204 214  C 200.64 214  198 211.36  198 208  C 198 204.64  200.64 202  204 202  Z " fill-rule="nonzero" fill="#ffffff" stroke="none" />
  <path d="M 204 202.5  C 207.08 202.5  209.5 204.92  209.5 208  C 209.5 211.08  207.08 213.5  204 213.5  C 200.92 213.5  198.5 211.08  198.5 208  C 198.5 204.92  200.92 202.5  204 202.5  Z " stroke-width="1" stroke="#797979" fill="none" />
  <path d="M 204 211  C 202.32 211  201 209.68  201 208  C 201 206.32  202.32 205  204 205  C 205.68 205  207 206.32  207 208  C 207 209.68  205.68 211  204 211  " fill-rule="nonzero" fill="#797979" stroke="none" />
</svg>