<?xml version="1.0" encoding="utf-8"?>
<svg version="1.1" xmlns:xlink="http://www.w3.org/1999/xlink" width="839px" height="142px" xmlns="http://www.w3.org/2000/svg">
  <g transform="matrix(1 0 0 1 -2574 -1569 )">
    <path d="M 2575 1573  A 3 3 0 0 1 2578 1570 L 3409 1570  A 3 3 0 0 1 3412 1573 L 3412 1707  A 3 3 0 0 1 3409 1710 L 2578 1710  A 3 3 0 0 1 2575 1707 L 2575 1573  Z " fill-rule="nonzero" fill="#000000" stroke="none" fill-opacity="0.0196078431372549" />
    <path d="M 2574.5 1573  A 3.5 3.5 0 0 1 2578 1569.5 L 3409 1569.5  A 3.5 3.5 0 0 1 3412.5 1573 L 3412.5 1707  A 3.5 3.5 0 0 1 3409 1710.5 L 2578 1710.5  A 3.5 3.5 0 0 1 2574.5 1707 L 2574.5 1573  Z " stroke-width="1" stroke-dasharray="9,4" stroke="#d9d9d9" fill="none" stroke-dashoffset="0.5" />
  </g>
</svg>