<?xml version="1.0" encoding="utf-8"?>
<svg version="1.1" xmlns:xlink="http://www.w3.org/1999/xlink" width="12px" height="12px" viewBox="-292 610  12 12" xmlns="http://www.w3.org/2000/svg">
  <path d="M -286 610  C -282.64 610  -280 612.64  -280 616  C -280 619.36  -282.64 622  -286 622  C -289.36 622  -292 619.36  -292 616  C -292 612.64  -289.36 610  -286 610  Z " fill-rule="nonzero" fill="#f0f0f0" stroke="none" />
  <path d="M -286 610.5  C -282.92 610.5  -280.5 612.92  -280.5 616  C -280.5 619.08  -282.92 621.5  -286 621.5  C -289.08 621.5  -291.5 619.08  -291.5 616  C -291.5 612.92  -289.08 610.5  -286 610.5  Z " stroke-width="1" stroke="#797979" fill="none" />
  <path d="M -286 619  C -287.68 619  -289 617.68  -289 616  C -289 614.32  -287.68 613  -286 613  C -284.32 613  -283 614.32  -283 616  C -283 617.68  -284.32 619  -286 619  " fill-rule="nonzero" fill="#797979" stroke="none" />
</svg>