<?xml version="1.0" encoding="utf-8"?>
<svg version="1.1" xmlns:xlink="http://www.w3.org/1999/xlink" width="12px" height="12px" viewBox="-231 610  12 12" xmlns="http://www.w3.org/2000/svg">
  <path d="M -225 610  C -221.64 610  -219 612.64  -219 616  C -219 619.36  -221.64 622  -225 622  C -228.36 622  -231 619.36  -231 616  C -231 612.64  -228.36 610  -225 610  Z " fill-rule="nonzero" fill="#f0f0f0" stroke="none" />
  <path d="M -225 610.5  C -221.92 610.5  -219.5 612.92  -219.5 616  C -219.5 619.08  -221.92 621.5  -225 621.5  C -228.08 621.5  -230.5 619.08  -230.5 616  C -230.5 612.92  -228.08 610.5  -225 610.5  Z " stroke-width="1" stroke="#797979" fill="none" />
  <path d="M -225 619  C -226.68 619  -228 617.68  -228 616  C -228 614.32  -226.68 613  -225 613  C -223.32 613  -222 614.32  -222 616  C -222 617.68  -223.32 619  -225 619  " fill-rule="nonzero" fill="#797979" stroke="none" />
</svg>