<?xml version="1.0" encoding="utf-8"?>
<svg version="1.1" xmlns:xlink="http://www.w3.org/1999/xlink" width="12px" height="12px" viewBox="289 2019  12 12" xmlns="http://www.w3.org/2000/svg">
  <path d="M 295 2019  C 298.36 2019  301 2021.64  301 2025  C 301 2028.36  298.36 2031  295 2031  C 291.64 2031  289 2028.36  289 2025  C 289 2021.64  291.64 2019  295 2019  Z " fill-rule="nonzero" fill="#ffffff" stroke="none" />
  <path d="M 295 2019.5  C 298.08 2019.5  300.5 2021.92  300.5 2025  C 300.5 2028.08  298.08 2030.5  295 2030.5  C 291.92 2030.5  289.5 2028.08  289.5 2025  C 289.5 2021.92  291.92 2019.5  295 2019.5  Z " stroke-width="1" stroke="#797979" fill="none" />
  <path d="M 295 2028  C 293.32 2028  292 2026.68  292 2025  C 292 2023.32  293.32 2022  295 2022  C 296.68 2022  298 2023.32  298 2025  C 298 2026.68  296.68 2028  295 2028  " fill-rule="nonzero" fill="#797979" stroke="none" />
</svg>