<?xml version="1.0" encoding="utf-8"?>
<svg version="1.1" xmlns:xlink="http://www.w3.org/1999/xlink" width="12px" height="12px" viewBox="154 2057  12 12" xmlns="http://www.w3.org/2000/svg">
  <path d="M 160 2057  C 163.36 2057  166 2059.64  166 2063  C 166 2066.36  163.36 2069  160 2069  C 156.64 2069  154 2066.36  154 2063  C 154 2059.64  156.64 2057  160 2057  Z " fill-rule="nonzero" fill="#ffffff" stroke="none" />
  <path d="M 160 2057.5  C 163.08 2057.5  165.5 2059.92  165.5 2063  C 165.5 2066.08  163.08 2068.5  160 2068.5  C 156.92 2068.5  154.5 2066.08  154.5 2063  C 154.5 2059.92  156.92 2057.5  160 2057.5  Z " stroke-width="1" stroke="#797979" fill="none" />
  <path d="M 160 2066  C 158.32 2066  157 2064.68  157 2063  C 157 2061.32  158.32 2060  160 2060  C 161.68 2060  163 2061.32  163 2063  C 163 2064.68  161.68 2066  160 2066  " fill-rule="nonzero" fill="#797979" stroke="none" />
</svg>