<?xml version="1.0" encoding="utf-8"?>
<svg version="1.1" xmlns:xlink="http://www.w3.org/1999/xlink" width="70px" height="25px" xmlns="http://www.w3.org/2000/svg">
  <g transform="matrix(1 0 0 1 -29 -1429 )">
    <path d="M 30 1437  A 7 7 0 0 1 37 1430 L 91 1430  A 7 7 0 0 1 98 1437 L 98 1446  A 7 7 0 0 1 91 1453 L 37 1453  A 7 7 0 0 1 30 1446 L 30 1437  Z " fill-rule="nonzero" fill="#0079fe" stroke="none" />
    <path d="M 29.5 1437  A 7.5 7.5 0 0 1 37 1429.5 L 91 1429.5  A 7.5 7.5 0 0 1 98.5 1437 L 98.5 1446  A 7.5 7.5 0 0 1 91 1453.5 L 37 1453.5  A 7.5 7.5 0 0 1 29.5 1446 L 29.5 1437  Z " stroke-width="1" stroke="#0079fe" fill="none" stroke-opacity="0.654901960784314" />
  </g>
</svg>