<?xml version="1.0" encoding="utf-8"?>
<svg version="1.1" xmlns:xlink="http://www.w3.org/1999/xlink" width="70px" height="25px" xmlns="http://www.w3.org/2000/svg">
  <g transform="matrix(1 0 0 1 -29 -1629 )">
    <path d="M 30 1637  A 7 7 0 0 1 37 1630 L 91 1630  A 7 7 0 0 1 98 1637 L 98 1646  A 7 7 0 0 1 91 1653 L 37 1653  A 7 7 0 0 1 30 1646 L 30 1637  Z " fill-rule="nonzero" fill="#0079fe" stroke="none" />
    <path d="M 29.5 1637  A 7.5 7.5 0 0 1 37 1629.5 L 91 1629.5  A 7.5 7.5 0 0 1 98.5 1637 L 98.5 1646  A 7.5 7.5 0 0 1 91 1653.5 L 37 1653.5  A 7.5 7.5 0 0 1 29.5 1646 L 29.5 1637  Z " stroke-width="1" stroke="#0079fe" fill="none" stroke-opacity="0.654901960784314" />
  </g>
</svg>