<?xml version="1.0" encoding="utf-8"?>
<svg version="1.1" xmlns:xlink="http://www.w3.org/1999/xlink" width="331px" height="104px" xmlns="http://www.w3.org/2000/svg">
  <g transform="matrix(1 0 0 1 -20 -1404 )">
    <path d="M 21 1408  A 3 3 0 0 1 24 1405 L 347 1405  A 3 3 0 0 1 350 1408 L 350 1504  A 3 3 0 0 1 347 1507 L 24 1507  A 3 3 0 0 1 21 1504 L 21 1408  Z " fill-rule="nonzero" fill="#000000" stroke="none" fill-opacity="0.0196078431372549" />
    <path d="M 20.5 1408  A 3.5 3.5 0 0 1 24 1404.5 L 347 1404.5  A 3.5 3.5 0 0 1 350.5 1408 L 350.5 1504  A 3.5 3.5 0 0 1 347 1507.5 L 24 1507.5  A 3.5 3.5 0 0 1 20.5 1504 L 20.5 1408  Z " stroke-width="1" stroke-dasharray="9,4" stroke="#d9d9d9" fill="none" stroke-dashoffset="0.5" />
  </g>
</svg>