<?xml version="1.0" encoding="utf-8"?>
<svg version="1.1" xmlns:xlink="http://www.w3.org/1999/xlink" width="12px" height="12px" viewBox="233 430  12 12" xmlns="http://www.w3.org/2000/svg">
  <path d="M 239 430  C 242.36 430  245 432.64  245 436  C 245 439.36  242.36 442  239 442  C 235.64 442  233 439.36  233 436  C 233 432.64  235.64 430  239 430  Z " fill-rule="nonzero" fill="#ffffff" stroke="none" />
  <path d="M 239 430.5  C 242.08 430.5  244.5 432.92  244.5 436  C 244.5 439.08  242.08 441.5  239 441.5  C 235.92 441.5  233.5 439.08  233.5 436  C 233.5 432.92  235.92 430.5  239 430.5  Z " stroke-width="1" stroke="#797979" fill="none" />
  <path d="M 239 439  C 237.32 439  236 437.68  236 436  C 236 434.32  237.32 433  239 433  C 240.68 433  242 434.32  242 436  C 242 437.68  240.68 439  239 439  " fill-rule="nonzero" fill="#797979" stroke="none" />
</svg>