<?xml version="1.0" encoding="utf-8"?>
<svg version="1.1" xmlns:xlink="http://www.w3.org/1999/xlink" width="12px" height="12px" viewBox="284 696  12 12" xmlns="http://www.w3.org/2000/svg">
  <path d="M 290 696  C 293.36 696  296 698.64  296 702  C 296 705.36  293.36 708  290 708  C 286.64 708  284 705.36  284 702  C 284 698.64  286.64 696  290 696  Z " fill-rule="nonzero" fill="#ffffff" stroke="none" />
  <path d="M 290 696.5  C 293.08 696.5  295.5 698.92  295.5 702  C 295.5 705.08  293.08 707.5  290 707.5  C 286.92 707.5  284.5 705.08  284.5 702  C 284.5 698.92  286.92 696.5  290 696.5  Z " stroke-width="1" stroke="#797979" fill="none" />
  <path d="M 290 705  C 288.32 705  287 703.68  287 702  C 287 700.32  288.32 699  290 699  C 291.68 699  293 700.32  293 702  C 293 703.68  291.68 705  290 705  " fill-rule="nonzero" fill="#797979" stroke="none" />
</svg>