<?xml version="1.0" encoding="utf-8"?>
<svg version="1.1" xmlns:xlink="http://www.w3.org/1999/xlink" width="12px" height="12px" viewBox="-117 696  12 12" xmlns="http://www.w3.org/2000/svg">
  <path d="M -111 696  C -107.64 696  -105 698.64  -105 702  C -105 705.36  -107.64 708  -111 708  C -114.36 708  -117 705.36  -117 702  C -117 698.64  -114.36 696  -111 696  Z " fill-rule="nonzero" fill="#ffffff" stroke="none" />
  <path d="M -111 696.5  C -107.92 696.5  -105.5 698.92  -105.5 702  C -105.5 705.08  -107.92 707.5  -111 707.5  C -114.08 707.5  -116.5 705.08  -116.5 702  C -116.5 698.92  -114.08 696.5  -111 696.5  Z " stroke-width="1" stroke="#797979" fill="none" />
  <path d="M -111 705  C -112.68 705  -114 703.68  -114 702  C -114 700.32  -112.68 699  -111 699  C -109.32 699  -108 700.32  -108 702  C -108 703.68  -109.32 705  -111 705  " fill-rule="nonzero" fill="#797979" stroke="none" />
</svg>