<?xml version="1.0" encoding="utf-8"?>
<svg version="1.1" xmlns:xlink="http://www.w3.org/1999/xlink" width="14px" height="14px" xmlns="http://www.w3.org/2000/svg">
  <g transform="matrix(1 0 0 1 -348 -63 )">
    <path d="M 355 64  C 358.36 64  361 66.64  361 70  C 361 73.36  358.36 76  355 76  C 351.64 76  349 73.36  349 70  C 349 66.64  351.64 64  355 64  Z " fill-rule="nonzero" fill="#0d0d51" stroke="none" />
    <path d="M 355 64  C 358.36 64  361 66.64  361 70  C 361 73.36  358.36 76  355 76  C 351.64 76  349 73.36  349 70  C 349 66.64  351.64 64  355 64  Z " stroke-width="2" stroke="#ffffff" fill="none" />
  </g>
</svg>