<?xml version="1.0" encoding="utf-8"?>
<svg version="1.1" xmlns:xlink="http://www.w3.org/1999/xlink" width="331px" height="104px" xmlns="http://www.w3.org/2000/svg">
  <g transform="matrix(1 0 0 1 -31 -775 )">
    <path d="M 32 779  A 3 3 0 0 1 35 776 L 358 776  A 3 3 0 0 1 361 779 L 361 875  A 3 3 0 0 1 358 878 L 35 878  A 3 3 0 0 1 32 875 L 32 779  Z " fill-rule="nonzero" fill="#000000" stroke="none" fill-opacity="0.0196078431372549" />
    <path d="M 31.5 779  A 3.5 3.5 0 0 1 35 775.5 L 358 775.5  A 3.5 3.5 0 0 1 361.5 779 L 361.5 875  A 3.5 3.5 0 0 1 358 878.5 L 35 878.5  A 3.5 3.5 0 0 1 31.5 875 L 31.5 779  Z " stroke-width="1" stroke-dasharray="9,4" stroke="#d9d9d9" fill="none" stroke-dashoffset="0.5" />
  </g>
</svg>