<?xml version="1.0" encoding="utf-8"?>
<svg version="1.1" xmlns:xlink="http://www.w3.org/1999/xlink" width="30px" height="30px" xmlns="http://www.w3.org/2000/svg">
  <g transform="matrix(1 0 0 1 -28 -1065 )">
    <path d="M 43 1066  C 50.84 1066  57 1072.16  57 1080  C 57 1087.84  50.84 1094  43 1094  C 35.16 1094  29 1087.84  29 1080  C 29 1072.16  35.16 1066  43 1066  Z " fill-rule="nonzero" fill="#0079fe" stroke="none" />
    <path d="M 43 1066  C 50.84 1066  57 1072.16  57 1080  C 57 1087.84  50.84 1094  43 1094  C 35.16 1094  29 1087.84  29 1080  C 29 1072.16  35.16 1066  43 1066  Z " stroke-width="2" stroke="#0079fe" fill="none" />
  </g>
</svg>