<?xml version="1.0" encoding="utf-8"?>
<svg version="1.1" xmlns:xlink="http://www.w3.org/1999/xlink" width="30px" height="30px" xmlns="http://www.w3.org/2000/svg">
  <g transform="matrix(1 0 0 1 -28 -1129 )">
    <path d="M 43 1130  C 50.84 1130  57 1136.16  57 1144  C 57 1151.84  50.84 1158  43 1158  C 35.16 1158  29 1151.84  29 1144  C 29 1136.16  35.16 1130  43 1130  Z " fill-rule="nonzero" fill="#ffffff" stroke="none" />
    <path d="M 43 1130  C 50.84 1130  57 1136.16  57 1144  C 57 1151.84  50.84 1158  43 1158  C 35.16 1158  29 1151.84  29 1144  C 29 1136.16  35.16 1130  43 1130  Z " stroke-width="2" stroke="#cccccc" fill="none" />
  </g>
</svg>